<?xml version="1.0" standalone="no"?>
<!DOCTYPE svg PUBLIC "-//W3C//DTD SVG 1.1//EN" "http://www.w3.org/Graphics/SVG/1.1/DTD/svg11.dtd" >
<svg>
<metadata>
Created by FontForge 20120731 at Sat Jun  3 13:23:55 2017
 By convertio
2009 Commercial Type.
</metadata>
<defs>
<font id="GraphikLCWeb-BlackItalic" horiz-adv-x="600" >
  <font-face 
    font-family="Graphik LC Web Black"
    font-weight="800"
    font-style="italic"
    font-stretch="normal"
    units-per-em="1000"
    panose-1="2 11 10 3 3 2 2 13 2 3"
    ascent="818"
    descent="-182"
    x-height="523"
    cap-height="715"
    bbox="-256 -233 1217 1142"
    underline-thickness="50"
    underline-position="-50"
    slope="-8"
    unicode-range="U+000D-FB02"
  />
<missing-glyph horiz-adv-x="523" 
 />
    <glyph glyph-name="f_f" unicode="ff" horiz-adv-x="730" 
d="M433 391h-144l-61 -391h-196l61 391h-63l20 132h64l8 49q7 48 27.5 82t50.5 55.5t67.5 31.5t79.5 10q35 0 56 -4t39 -10l-22 -142q-10 3 -19.5 5t-24.5 2q-28 0 -42 -12.5t-19 -38.5l-5 -28h144l10 60q7 48 27.5 82t51 55.5t68.5 31.5t81 10q37 0 58 -4t39 -11l-22 -142
q-11 3 -20.5 5.5t-26.5 2.5q-29 0 -44 -14t-19 -37l-6 -39h101l-20 -132h-102l-62 -391h-196z" />
    <glyph glyph-name=".notdef" horiz-adv-x="523" 
 />
    <glyph glyph-name="NULL" horiz-adv-x="0" 
 />
    <glyph glyph-name="NULL" horiz-adv-x="0" 
 />
    <glyph glyph-name="nonmarkingreturn" unicode="&#xd;" horiz-adv-x="185" 
 />
    <glyph glyph-name="space" unicode=" " horiz-adv-x="185" 
 />
    <glyph glyph-name="exclam" unicode="!" horiz-adv-x="342" 
d="M132 715h221l-105 -474h-163zM145 -12q-48 0 -78.5 30t-30.5 75q0 22 8.5 41t23.5 33.5t35 23t44 8.5q48 0 79.5 -30t31.5 -75q0 -22 -9 -41.5t-24 -33.5t-35.5 -22.5t-44.5 -8.5z" />
    <glyph glyph-name="quotedbl" unicode="&#x22;" horiz-adv-x="478" 
d="M108 715h182l-64 -281h-139zM329 715h183l-65 -281h-138z" />
    <glyph glyph-name="numbersign" unicode="#" horiz-adv-x="581" 
d="M300 234h-57l-32 -135h-130l32 135h-76l25 154h88l15 65h-77l22 146h90l28 116h130l-28 -116h56l28 116h131l-28 -116h77l-22 -146h-90l-15 -65h79l-25 -154h-91l-32 -135h-130zM280 388h56l16 65h-57z" />
    <glyph glyph-name="dollar" unicode="$" horiz-adv-x="648" 
d="M242 -6q-46 6 -87.5 22.5t-73.5 44.5t-51.5 69t-20.5 97h200q1 -63 57 -82l21 131q-58 12 -100 30t-69 43.5t-40 58.5t-13 77q0 57 23 101t63 74.5t93.5 47t113.5 17.5l14 88h82l-15 -93q45 -6 84 -20.5t68 -40t47 -64t20 -92.5h-196q-1 26 -14 42t-33 24l-20 -127
q52 -11 94 -27.5t72 -41t46 -58.5t16 -80q0 -61 -22.5 -107t-63 -77t-95.5 -47t-119 -16l-19 -123h-82zM423 203q0 19 -12.5 31.5t-44.5 23.5l-19 -121q76 6 76 66zM260 516q0 -22 12 -34.5t44 -22.5l19 118q-29 -4 -52 -18t-23 -43z" />
    <glyph glyph-name="percent" unicode="%" horiz-adv-x="835" 
d="M198 526q0 -21 10.5 -38t37.5 -16q15 0 26 8t18 21t10.5 28.5t3.5 31.5q0 22 -11 38t-36 16q-30 0 -44.5 -27t-14.5 -62zM241 360q-38 0 -71.5 10.5t-58.5 30.5t-40 50.5t-15 69.5q0 42 15 79t42 64.5t65 43t84 15.5q36 0 69.5 -10.5t58.5 -31t40 -50.5t15 -69
q0 -41 -15 -77.5t-42 -64.5t-64.5 -44t-82.5 -16zM677 715h103l-582 -715h-103zM569 153q0 -21 10 -38t38 -16q15 0 26 8t17.5 21t10 28.5t3.5 31.5q0 21 -10.5 37.5t-35.5 16.5q-31 0 -45 -27t-14 -62zM612 -13q-38 0 -71.5 10.5t-59 30.5t-40.5 50.5t-15 69.5q0 41 15 78
t42.5 64.5t65.5 43.5t84 16q36 0 69.5 -10.5t58.5 -31t40 -50.5t15 -69q0 -41 -15 -77.5t-42 -64.5t-64.5 -44t-82.5 -16z" />
    <glyph glyph-name="ampersand" unicode="&#x26;" horiz-adv-x="777" 
d="M469 0l-32 48q-32 -23 -79 -41.5t-114 -18.5q-45 0 -86.5 10.5t-73.5 34.5t-51.5 61.5t-19.5 91.5q0 45 16 80.5t42.5 63t61 47.5t71.5 34q-15 24 -24 54t-9 56q0 50 20 88t54.5 64t80 39t96.5 13q39 0 78 -9t69.5 -29.5t50 -53t19.5 -78.5q0 -38 -13.5 -66.5t-36 -50
t-52.5 -38.5t-63 -30l64 -98l65 101h175l-154 -239l85 -134h-240zM225 214q0 -32 18.5 -51.5t54.5 -19.5q19 0 35 6.5t27 15.5l-85 129q-19 -11 -34.5 -29.5t-15.5 -50.5zM418 587q-23 0 -39 -15.5t-16 -43.5q0 -17 8.5 -35t22.5 -35q27 13 50 31t23 50q0 20 -13 34t-36 14z
" />
    <glyph glyph-name="quotesingle" unicode="'" horiz-adv-x="264" 
d="M108 715h190l-64 -281h-147z" />
    <glyph glyph-name="parenleft" unicode="(" horiz-adv-x="362" 
d="M138 -148q-20 30 -39 67t-34 81t-24 96.5t-9 114.5q0 85 17.5 163.5t50.5 150t79.5 134t104.5 116.5h157q-52 -66 -93.5 -132.5t-70.5 -137t-44.5 -146.5t-15.5 -163q0 -108 20.5 -194.5t49.5 -149.5h-149v0z" />
    <glyph glyph-name="parenright" unicode=")" horiz-adv-x="362" 
d="M237 775q20 -30 39 -67t34 -81t24 -96.5t9 -114.5q0 -85 -17.5 -163.5t-50.5 -150t-79.5 -134t-104.5 -116.5h-157q52 66 93.5 132.5t70.5 137t44.5 146.5t15.5 163q0 108 -20.5 194.5t-49.5 149.5h149v0z" />
    <glyph glyph-name="asterisk" unicode="*" horiz-adv-x="444" 
d="M81 457l103 79l-114 18l58 130l99 -60l-7 119h154l-45 -125l116 45l16 -134l-118 -3l77 -91l-130 -75l-35 116l-70 -109z" />
    <glyph glyph-name="plus" unicode="+" horiz-adv-x="579" 
d="M211 269h-174l23 142h174l29 189h157l-30 -189h174l-23 -142h-173l-30 -190h-157z" />
    <glyph glyph-name="comma" unicode="," horiz-adv-x="311" 
d="M-25 -77l105 270l173 -63l-170 -254z" />
    <glyph glyph-name="hyphen" unicode="-" horiz-adv-x="390" 
d="M64 360h292l-24 -146h-292z" />
    <glyph glyph-name="period" unicode="." horiz-adv-x="302" 
d="M122 -12q-48 0 -78.5 31t-30.5 77q0 45 30 76t78 31q24 0 45 -8.5t36 -23t23.5 -34t8.5 -41.5q0 -46 -31.5 -77t-80.5 -31z" />
    <glyph glyph-name="slash" unicode="/" horiz-adv-x="440" 
d="M363 776h158l-452 -924h-158z" />
    <glyph glyph-name="zero" unicode="0" horiz-adv-x="741" 
d="M354 -13q-72 0 -130.5 19.5t-99 57t-62.5 92t-22 124.5q0 20 1.5 40.5t5.5 41.5l4 28q13 84 45 147t79.5 105t108.5 63t132 21q69 0 126.5 -19.5t99 -57t64.5 -93t23 -127.5q0 -38 -6 -77l-4 -29q-26 -168 -121 -252t-244 -84zM363 162q59 0 88.5 43t43.5 131l4 27
q3 20 5 39.5t2 36.5q0 49 -20.5 82t-75.5 33q-57 0 -89 -42.5t-46 -132.5l-4 -28q-3 -20 -5.5 -40t-2.5 -37q0 -23 5 -43.5t16.5 -35.5t30.5 -24t48 -9z" />
    <glyph glyph-name="one" unicode="1" horiz-adv-x="459" 
d="M199 493l-145 -82l30 193l182 111h195l-113 -715h-227z" />
    <glyph glyph-name="two" unicode="2" horiz-adv-x="626" 
d="M-33 31l286 259q30 26 57.5 51.5t47.5 50.5t32 50.5t12 52.5t-15 44t-45 17q-32 0 -56.5 -23t-38.5 -85h-205q8 71 35 123t69 86.5t97 51.5t119 17q57 0 106 -13t84.5 -39.5t55.5 -66.5t20 -94q0 -44 -14 -81t-37.5 -69.5t-54.5 -61.5t-66 -57l-91 -76h217l-25 -168h-595
z" />
    <glyph glyph-name="three" unicode="3" horiz-adv-x="661" 
d="M321 -13q-69 0 -124.5 15t-95 45.5t-61.5 78.5t-22 114h205q-1 -40 19 -65.5t68 -25.5q38 0 62 21t24 59q0 65 -80 65h-50l22 137h64q37 0 59 17.5t22 55.5q1 31 -18 46t-48 15q-38 0 -62.5 -20.5t-32.5 -63.5h-201q7 55 32 100.5t64.5 77.5t94 49.5t120.5 17.5
q51 0 99 -10.5t85 -33t59.5 -59.5t22.5 -89q0 -61 -36 -105.5t-103 -61.5q54 -14 84 -52.5t30 -92.5q0 -60 -26 -104.5t-68.5 -73.5t-96.5 -43t-111 -14z" />
    <glyph glyph-name="four" unicode="4" horiz-adv-x="689" 
d="M339 134h-346l14 86l372 495h270l-68 -426h91l-25 -155h-90l-21 -134h-218zM369 289l39 249l-179 -249h140z" />
    <glyph glyph-name="five" unicode="5" horiz-adv-x="639" 
d="M297 -13q-57 0 -108.5 13t-90.5 42t-62 75.5t-23 112.5h211q1 -33 18 -53t55 -20q42 0 62.5 26.5t21.5 70.5q0 40 -22 60.5t-63 20.5q-38 0 -65.5 -13.5t-44.5 -34.5h-135l81 428h496l-26 -164h-333l-26 -142q23 30 65 53t105 23q44 0 80 -13.5t61.5 -39.5t39.5 -65.5
t14 -91.5q0 -66 -22 -119.5t-62.5 -91t-97.5 -57.5t-129 -20z" />
    <glyph glyph-name="six" unicode="6" horiz-adv-x="685" 
d="M342 -13q-69 0 -125 17.5t-95 53t-60 88.5t-20 124q0 22 2 45.5t6 47.5l3 23q12 74 42 136.5t76 107.5t107 70.5t135 25.5q52 0 99 -12t83 -38t58.5 -67.5t24.5 -101.5h-209q-2 24 -16 38t-45 14t-53.5 -14t-38 -37.5t-25.5 -54.5t-16 -65q12 16 27.5 30.5t36 25.5
t45.5 18t56 7q41 0 80 -13t69 -38.5t48 -63.5t18 -89q0 -66 -25 -118t-67.5 -87.5t-99.5 -54t-121 -18.5zM265 227q0 -33 19 -57t59 -24q41 0 66 30.5t25 74.5q0 32 -18.5 55.5t-57.5 23.5q-40 0 -66.5 -29t-26.5 -74z" />
    <glyph glyph-name="seven" unicode="7" horiz-adv-x="586" 
d="M334 531h-270l29 184h557l-3 -23l-356 -692h-233z" />
    <glyph glyph-name="eight" unicode="8" horiz-adv-x="666" 
d="M314 -13q-58 0 -112 12t-96 36.5t-67 62.5t-25 90q0 79 44.5 126.5t114.5 68.5q-38 20 -59.5 52.5t-21.5 75.5q0 54 24 94.5t63.5 67t91.5 40t109 13.5q46 0 94.5 -10t88 -33t64.5 -60t25 -90q0 -60 -33.5 -102t-90.5 -63q53 -21 79 -60.5t26 -87.5q0 -59 -24 -102.5
t-67 -72.5t-101 -43.5t-127 -14.5zM241 220q0 -35 22.5 -55t59.5 -20q38 0 64.5 23t26.5 67q0 35 -22.5 54t-57.5 19q-38 0 -65.5 -22t-27.5 -66zM294 498q0 -29 19 -48t51 -19q31 0 56.5 19.5t25.5 57.5q0 30 -19.5 48.5t-51.5 18.5q-31 0 -56 -19.5t-25 -57.5z" />
    <glyph glyph-name="nine" unicode="9" horiz-adv-x="685" 
d="M299 -12q-53 0 -102 12t-86.5 38t-60.5 67.5t-26 101.5h209q3 -28 23 -40t51 -12q55 0 85 44t45 123q-25 -35 -62.5 -57.5t-99.5 -22.5q-41 0 -80.5 11.5t-70 35.5t-49 62t-18.5 92q0 66 24 119t66 89.5t99.5 56t124.5 19.5q69 0 125 -18.5t95 -55t60 -91t21 -126.5
q0 -21 -1.5 -43t-5.5 -45l-3 -19q-29 -173 -118.5 -257t-244.5 -84zM274 464q0 -35 18.5 -57t54.5 -22q41 0 69 27.5t28 75.5q0 32 -18.5 56t-58.5 24t-66.5 -28.5t-26.5 -75.5z" />
    <glyph glyph-name="colon" unicode=":" horiz-adv-x="308" 
d="M124 -12q-48 0 -78.5 31t-30.5 77q0 45 30 76t78 31q24 0 45 -8.5t36.5 -23t24 -34t8.5 -41.5q0 -46 -32 -77t-81 -31zM170 272q-24 0 -44 8.5t-34.5 22.5t-22.5 33.5t-8 42.5q0 22 8 42t22.5 34.5t34 23t43.5 8.5t45 -8.5t36.5 -23t24 -34.5t8.5 -42q0 -23 -8.5 -42.5
t-23.5 -33.5t-36 -22.5t-45 -8.5z" />
    <glyph glyph-name="semicolon" unicode=";" horiz-adv-x="326" 
d="M-28 -77l105 270l172 -63l-169 -254zM195 272q-24 0 -44 8.5t-34.5 22.5t-22.5 33.5t-8 42.5q0 22 8 42t22.5 34.5t34 23t43.5 8.5t45 -8.5t36.5 -23t24 -34.5t8.5 -42q0 -23 -8.5 -42.5t-23.5 -33.5t-36 -22.5t-45 -8.5z" />
    <glyph glyph-name="less" unicode="&#x3c;" horiz-adv-x="514" 
d="M46 309l6 38l467 245l-28 -181l-191 -90l161 -100l-27 -168z" />
    <glyph glyph-name="equal" unicode="=" horiz-adv-x="570" 
d="M42 293h493l-20 -131h-493zM73 492h493l-20 -131h-493z" />
    <glyph glyph-name="greater" unicode="&#x3e;" horiz-adv-x="514" 
d="M485 337l-6 -38l-467 -245l28 181l192 90l-162 100l27 168z" />
    <glyph glyph-name="question" unicode="?" horiz-adv-x="568" 
d="M165 260q5 30 17 53.5t28.5 42.5t35.5 34t37 29q17 13 32.5 24.5t27.5 23.5t19 25t7 30q-2 44 -49 44q-58 0 -74 -80h-192q7 61 32 106t63 74.5t87.5 44t105.5 14.5q119 0 179.5 -50t60.5 -133q0 -34 -8.5 -60.5t-22.5 -47.5t-32.5 -38.5t-38.5 -32.5
q-19 -14 -39.5 -27.5t-39 -28t-32.5 -30.5t-21 -36h-186zM232 -12q-24 0 -44 8t-34.5 22t-22.5 33t-8 41t8.5 41.5t23.5 34.5t35 23.5t44 8.5q48 0 79.5 -30.5t31.5 -75.5q0 -22 -9 -41t-24 -33.5t-35.5 -23t-44.5 -8.5z" />
    <glyph glyph-name="at" unicode="@" horiz-adv-x="918" 
d="M662 187q-5 -30 3.5 -47t35.5 -17q21 0 41 11.5t36.5 36.5t26.5 64t10 95q0 65 -23.5 118.5t-67 92t-104.5 59.5t-137 21q-77 0 -144.5 -26t-117.5 -74.5t-79 -117.5t-29 -155q0 -72 22 -134t66.5 -107t110.5 -71t154 -26t156 27t105 63h93q-26 -36 -63 -65.5
t-83.5 -50.5t-100 -32.5t-111.5 -11.5q-102 0 -182.5 31.5t-136.5 87t-86 130.5t-30 161q0 100 37.5 181.5t101 139t146 89t172.5 31.5q88 0 163.5 -25.5t131 -73t87 -115t31.5 -150.5q0 -75 -19.5 -127.5t-51.5 -86t-73.5 -48.5t-84.5 -15q-124 0 -147 80
q-20 -38 -54.5 -60t-85.5 -22q-69 0 -111 47t-43 129q0 55 16 101t43.5 78t65 50t81.5 18q46 0 70.5 -16.5t34.5 -40.5l9 49h159zM442 175q32 0 53.5 32.5t21.5 80.5q0 27 -14 43t-40 16q-31 0 -52.5 -30.5t-20.5 -81.5q0 -28 13 -44t39 -16z" />
    <glyph glyph-name="A" unicode="A" horiz-adv-x="755" 
d="M457 119h-225l-51 -119h-217l339 715h292l111 -715h-235zM299 273h141l-29 259z" />
    <glyph glyph-name="B" unicode="B" horiz-adv-x="690" 
d="M136 715h305q63 0 107.5 -13.5t72 -37.5t40 -56t12.5 -69q0 -71 -40 -113.5t-100 -56.5q54 -11 89 -47.5t35 -101.5q0 -50 -19.5 -90.5t-56 -69t-88 -44.5t-115.5 -16h-355zM343 149q45 0 70 23.5t25 61.5q0 33 -20 50t-65 17h-62l-24 -152h76zM383 436q84 0 84 73
q0 31 -18 44.5t-53 13.5h-63l-21 -131h71z" />
    <glyph glyph-name="C" unicode="C" horiz-adv-x="768" 
d="M394 -13q-80 0 -145.5 20t-112 59.5t-71.5 98.5t-25 137q0 93 27.5 170.5t79 134t126.5 88t170 31.5q73 0 131.5 -17.5t100 -52.5t65 -88t26.5 -124h-228q-5 51 -28 78t-73 27q-40 0 -70 -19t-50 -51.5t-30 -75.5t-10 -91q0 -30 6 -57t20 -46.5t37 -31t56 -11.5
q48 0 81 26.5t47 81.5h225q-11 -72 -42.5 -126t-79 -89.5t-107 -53.5t-126.5 -18z" />
    <glyph glyph-name="D" unicode="D" horiz-adv-x="757" 
d="M136 715h242q184 0 276.5 -80t92.5 -224q0 -101 -30.5 -177.5t-86 -128.5t-132 -78.5t-169.5 -26.5h-306zM330 172q89 0 135.5 59t46.5 170q0 142 -139 142h-37l-59 -371h53z" />
    <glyph glyph-name="E" unicode="E" horiz-adv-x="621" 
d="M136 715h507l-27 -174h-282l-16 -101h224l-24 -158h-224l-18 -108h298l-27 -174h-524z" />
    <glyph glyph-name="F" unicode="F" horiz-adv-x="587" 
d="M136 715h495l-28 -175h-268l-20 -133h215l-27 -167h-215l-38 -240h-227z" />
    <glyph glyph-name="G" unicode="G" horiz-adv-x="791" 
d="M401 -13q-81 0 -148 20.5t-114 60.5t-73 99.5t-26 138.5q0 91 30.5 168t85 133t130 87t165.5 31q64 0 122 -15t102 -47t71.5 -83t30.5 -124h-225q-4 45 -29.5 68t-80.5 23q-41 0 -72.5 -20t-52.5 -53t-31.5 -76t-10.5 -90q0 -70 32.5 -109.5t102.5 -39.5q62 0 91.5 26.5
t38.5 64.5h-120l24 149h341q-6 -104 -31.5 -181.5t-72 -128.5t-116 -76.5t-164.5 -25.5z" />
    <glyph glyph-name="H" unicode="H" horiz-adv-x="794" 
d="M136 715h227l-41 -264h209l42 264h227l-113 -715h-227l43 275h-210l-43 -275h-227z" />
    <glyph glyph-name="I" unicode="I" horiz-adv-x="366" 
d="M139 715h229l-113 -715h-229z" />
    <glyph glyph-name="J" unicode="J" horiz-adv-x="489" 
d="M151 -9q-63 0 -100 10t-58 21l26 166q18 -6 40 -12t51 -6q36 0 61.5 18t32.5 64l74 463h227l-75 -472q-20 -130 -91.5 -191t-187.5 -61z" />
    <glyph glyph-name="K" unicode="K" horiz-adv-x="745" 
d="M136 715h227l-43 -273l246 273h243l-317 -342l204 -373h-245l-154 300l-47 -300h-227z" />
    <glyph glyph-name="L" unicode="L" horiz-adv-x="582" 
d="M136 715h227l-85 -540h260l-28 -175h-487z" />
    <glyph glyph-name="M" unicode="M" horiz-adv-x="957" 
d="M136 715h285l67 -346l178 346h296l-113 -715h-225l67 424l-230 -424h-76l-93 424l-67 -424h-202z" />
    <glyph glyph-name="N" unicode="N" horiz-adv-x="787" 
d="M136 715h255l141 -372l59 372h201l-113 -715h-217l-171 423l-66 -423h-202z" />
    <glyph glyph-name="O" unicode="O" horiz-adv-x="820" 
d="M810 410q0 -94 -30 -172t-85.5 -133.5t-133 -86.5t-172.5 -31q-71 0 -134.5 20t-111 60t-75.5 98t-28 135q0 94 30 172.5t85 134.5t130.5 87.5t167.5 31.5q73 0 138 -20t114 -59.5t77 -99t28 -137.5zM574 402q0 30 -7 56.5t-22.5 46.5t-40 31.5t-58.5 12.5q-43 0 -75 -20
t-53.5 -54t-32 -77.5t-10.5 -89.5q0 -63 31.5 -103t98.5 -40q43 0 75 20.5t53 53.5t31 75.5t10 87.5z" />
    <glyph glyph-name="P" unicode="P" horiz-adv-x="664" 
d="M136 715h268q134 0 203 -56t70 -152q0 -67 -21.5 -118t-61 -85.5t-96 -52.5t-126.5 -18h-85l-37 -233h-227zM362 385q48 0 74 24t26 72q0 67 -83 67h-44l-25 -163h52z" />
    <glyph glyph-name="Q" unicode="Q" horiz-adv-x="820" 
d="M389 -13q-71 0 -134.5 20t-111 59.5t-75.5 98t-28 134.5q0 94 30 172.5t85 135t130.5 87.5t167.5 31q74 0 139 -20t113.5 -59.5t76.5 -98.5t28 -137q0 -114 -43 -202.5t-121 -144.5l62 -63l-135 -126l-109 119q-36 -6 -75 -6zM451 265l59 -62q32 34 48 86.5t16 112.5
q0 29 -7 55.5t-22.5 46.5t-40 32t-58.5 13q-43 0 -75 -20t-53.5 -53.5t-32 -77.5t-10.5 -90q0 -44 15.5 -79t48.5 -54z" />
    <glyph glyph-name="R" unicode="R" horiz-adv-x="710" 
d="M136 715h283q137 0 204 -56t67 -151q0 -88 -44.5 -142.5t-114.5 -74.5l128 -291h-229l-106 245h-37l-38 -245h-226zM372 391q46 0 71.5 20.5t25.5 66.5q0 67 -81 67h-53l-25 -154h62z" />
    <glyph glyph-name="S" unicode="S" horiz-adv-x="651" 
d="M315 -13q-74 0 -131 16t-96.5 47t-60 76t-19.5 103h212q1 -17 6.5 -31.5t17 -26t30.5 -18t46 -6.5q41 -1 61 15t20 46q0 22 -20.5 35t-71.5 23q-67 13 -113 31.5t-74.5 44.5t-41.5 60t-13 79q0 52 19.5 96.5t57.5 77.5t93 51.5t126 18.5q65 0 117 -13.5t88 -41.5t55 -71
t18 -102h-207q-4 69 -77 69q-35 0 -53 -14.5t-18 -39.5q0 -23 19 -35t72 -22q61 -12 107 -29t77 -42t46.5 -60t15.5 -82q0 -56 -20 -102.5t-59 -80.5t-96.5 -52.5t-132.5 -19.5z" />
    <glyph glyph-name="T" unicode="T" horiz-adv-x="629" 
d="M243 541h-181l29 174h589l-28 -174h-181l-85 -541h-228z" />
    <glyph glyph-name="U" unicode="U" horiz-adv-x="776" 
d="M376 -13q-83 0 -146.5 20.5t-104 61t-56 102t-2.5 142.5l65 402h226l-65 -409q-11 -71 8.5 -106t78.5 -35q28 0 47.5 8t32 24.5t20 40.5t12.5 56l67 421h228l-70 -439q-23 -150 -106.5 -219.5t-234.5 -69.5z" />
    <glyph glyph-name="V" unicode="V" horiz-adv-x="734" 
d="M76 715h237l57 -479l209 479h221l-345 -715h-256z" />
    <glyph glyph-name="W" unicode="W" horiz-adv-x="1000" 
d="M77 715h229l14 -432l158 432h191l33 -437l156 437h208l-283 -715h-221l-35 416l-164 -416h-229z" />
    <glyph glyph-name="X" unicode="X" horiz-adv-x="744" 
d="M246 376l-145 339h243l71 -202l129 202h234l-240 -347l159 -368h-244l-87 237l-158 -237h-237z" />
    <glyph glyph-name="Y" unicode="Y" horiz-adv-x="693" 
d="M241 306l-166 409h235l77 -221l143 221h226l-288 -421l-46 -294h-228z" />
    <glyph glyph-name="Z" unicode="Z" horiz-adv-x="626" 
d="M-28 24l367 521h-248l28 170h568l-4 -24l-366 -520h262l-27 -171h-584z" />
    <glyph glyph-name="bracketleft" unicode="[" horiz-adv-x="419" 
d="M141 776h321l-22 -142h-123l-100 -640h122l-23 -142h-321z" />
    <glyph glyph-name="backslash" unicode="\" horiz-adv-x="440" 
d="M65 776h149l197 -924h-149z" />
    <glyph glyph-name="bracketright" unicode="]" horiz-adv-x="546" 
d="M-6 -6h121l101 640h-121l23 142h319l-146 -924h-319z" />
    <glyph glyph-name="asciicircum" unicode="^" horiz-adv-x="535" 
d="M251 715h169l116 -324h-162l-59 165l-109 -165h-167z" />
    <glyph glyph-name="underscore" unicode="_" horiz-adv-x="441" 
d="M-54 -72h442l-14 -89h-442z" />
    <glyph glyph-name="grave" unicode="`" horiz-adv-x="400" 
d="M96 747h192l38 -169h-137z" />
    <glyph glyph-name="a" unicode="a" horiz-adv-x="584" 
d="M168 -13q-35 0 -65 9.5t-52 28t-35 45.5t-13 62q0 52 19 87t55 56.5t87.5 31t117.5 9.5h72l2 12q5 32 -4.5 52.5t-48.5 20.5q-33 0 -47.5 -17t-19.5 -39h-184q20 97 86.5 145t173.5 48q134 0 194 -57.5t41 -177.5l-22 -139q-8 -51 -10.5 -91t2.5 -73h-191
q-3 16 -3.5 32.5t0.5 32.5q-22 -31 -58.5 -54.5t-96.5 -23.5zM251 117q32 0 54.5 18.5t27.5 47.5l5 27h-51q-48 0 -68 -11.5t-20 -38.5q0 -18 13 -30.5t39 -12.5z" />
    <glyph glyph-name="b" unicode="b" horiz-adv-x="646" 
d="M374 -13q-60 0 -101.5 26.5t-57.5 69.5l-13 -83h-198l120 749h196l-47 -300q26 42 68 65.5t104 23.5q38 0 71 -14t57.5 -42.5t38.5 -71t14 -98.5q0 -77 -19 -137.5t-53 -102t-80 -63.5t-100 -22zM316 135q48 0 78 44.5t30 118.5q0 46 -19.5 70.5t-57.5 24.5
q-24 0 -44.5 -12.5t-35.5 -34t-23 -51.5t-8 -65q0 -95 80 -95z" />
    <glyph glyph-name="c" unicode="c" horiz-adv-x="584" 
d="M291 -12q-57 0 -106.5 15t-86 45t-57 75t-20.5 105q0 70 21.5 127t61 97.5t94.5 62.5t121 22q52 0 97.5 -12.5t79 -39.5t53 -68.5t21.5 -99.5h-184q-6 69 -71 69q-27 0 -45.5 -13.5t-30 -36t-16.5 -51t-5 -59.5q0 -44 18 -70.5t62 -26.5q34 0 56 20t30 60h176
q-13 -107 -82 -164t-187 -57z" />
    <glyph glyph-name="d" unicode="d" horiz-adv-x="645" 
d="M206 -13q-41 0 -75.5 14t-59.5 42.5t-39 71t-14 99.5q0 77 20 137.5t54.5 102t82 63t103.5 21.5q57 0 96 -23t56 -65l47 299h198l-93 -585q-8 -52 -11 -91.5t0 -72.5h-194q-4 17 -4 38t1 43q-29 -47 -69 -70.5t-99 -23.5zM297 133q24 0 44.5 12.5t35.5 34t23 52t8 66.5
q0 46 -20.5 70.5t-58.5 24.5q-48 0 -78.5 -44.5t-30.5 -118.5q0 -46 19.5 -71.5t57.5 -25.5z" />
    <glyph glyph-name="e" unicode="e" horiz-adv-x="602" 
d="M213 217q0 -20 4.5 -38t15 -31.5t27.5 -21t42 -7.5q37 0 56.5 16t27.5 42h185q-19 -93 -91.5 -141.5t-182.5 -48.5q-57 0 -107.5 14t-88 43.5t-59 74.5t-21.5 108q0 70 23 127.5t63.5 98t96 63t121.5 22.5t117.5 -20t84.5 -58.5t46.5 -93.5t2.5 -125l-3 -23h-360v-1z
M324 412q-31 0 -58 -20.5t-41 -70.5h170q4 40 -12 65.5t-59 25.5z" />
    <glyph glyph-name="f" unicode="f" horiz-adv-x="391" 
d="M50 523h64l10 60q8 48 29 82t51 55.5t68 31.5t81 10q37 0 58 -4t39 -11l-23 -142q-10 3 -20 5.5t-26 2.5q-29 0 -44 -14t-20 -37l-6 -39h102l-21 -132h-102l-62 -391h-196l61 391h-63z" />
    <glyph glyph-name="g" unicode="g" horiz-adv-x="643" 
d="M298 168q26 0 46.5 11t34.5 30t21 45t7 55q-1 38 -21 62t-56 24q-27 0 -46.5 -11.5t-32.5 -30.5t-19.5 -43.5t-6.5 -49.5q0 -41 18 -66.5t55 -25.5zM558 31q-9 -57 -29.5 -99.5t-56 -70.5t-86.5 -41.5t-121 -13.5q-73 0 -125.5 15.5t-86 42.5t-50 63t-18.5 77h195
q1 -11 6 -22t14.5 -20t24.5 -14.5t37 -5.5q52 0 73 25.5t26 63.5l14 82q-25 -39 -63.5 -60.5t-95.5 -21.5q-41 0 -76.5 13.5t-61.5 40.5t-41 67.5t-15 94.5q0 65 19 118.5t53 92t80.5 59.5t101.5 21q60 0 97 -23.5t54 -64.5l12 73h197z" />
    <glyph glyph-name="h" unicode="h" horiz-adv-x="627" 
d="M124 749h196l-49 -313q27 44 69 73t106 29q36 0 67 -12.5t51.5 -39.5t28.5 -69.5t-1 -101.5l-50 -315h-197l47 297q13 83 -54 83q-76 0 -91 -94l-45 -286h-197z" />
    <glyph glyph-name="i" unicode="i" horiz-adv-x="303" 
d="M211 563q-46 0 -75 28t-29 70q0 43 29.5 70.5t75.5 27.5q45 0 74.5 -27.5t29.5 -70.5q0 -21 -8 -39t-22.5 -31t-33.5 -20.5t-41 -7.5zM93 523h197l-83 -523h-196z" />
    <glyph glyph-name="j" unicode="j" horiz-adv-x="303" 
d="M-57 -42q31 2 48 14t21 41l81 510h196l-84 -529q-6 -38 -22 -72t-48.5 -58t-84.5 -36.5t-129 -8.5zM210 563q-45 0 -74 28t-29 70q0 43 29.5 70.5t74.5 27.5t74.5 -27.5t29.5 -70.5q0 -42 -30 -70t-75 -28z" />
    <glyph glyph-name="k" unicode="k" horiz-adv-x="587" 
d="M123 750h197l-68 -431l161 204h211l-207 -242l129 -281h-210l-98 231l-36 -231h-197z" />
    <glyph glyph-name="l" unicode="l" horiz-adv-x="300" 
d="M129 750h195l-118 -750h-196z" />
    <glyph glyph-name="m" unicode="m" horiz-adv-x="931" 
d="M60 349q9 57 13.5 97.5t6.5 76.5h192q0 -20 -1 -43t-4 -46q13 21 31 39.5t40.5 33t49 23t56.5 8.5q51 0 84.5 -24.5t47.5 -73.5q37 51 81.5 74.5t96.5 23.5q37 0 67.5 -12.5t50.5 -38t27.5 -64.5t-1.5 -92l-51 -331h-197l48 301q6 40 -6.5 59t-41.5 19q-66 0 -80 -82
l-47 -297h-194l47 302q7 39 -6 58t-42 19q-33 0 -53 -21.5t-26 -60.5l-47 -297h-197z" />
    <glyph glyph-name="n" unicode="n" horiz-adv-x="627" 
d="M60 349q9 57 13.5 97.5t6.5 76.5h192q0 -20 -1 -44.5t-4 -47.5q28 45 71.5 76t107.5 31q36 0 67 -12.5t51.5 -39.5t28.5 -69.5t-1 -101.5l-50 -315h-197l47 297q13 83 -54 83q-76 0 -91 -94l-45 -286h-197z" />
    <glyph glyph-name="o" unicode="o" horiz-adv-x="620" 
d="M294 -13q-53 0 -102 14t-87 43.5t-60.5 75t-22.5 107.5q0 67 22 124t62.5 98t97 64.5t124.5 23.5q53 0 102 -14.5t87 -44t60.5 -75.5t22.5 -109q0 -68 -22.5 -124.5t-63 -97t-96.5 -63t-124 -22.5zM297 132q27 0 47 13t32.5 36t19 54.5t6.5 67.5q0 37 -18 63t-59 26
q-27 0 -47 -12.5t-33.5 -35t-20 -52.5t-6.5 -66q0 -17 3.5 -34t12.5 -30.5t24.5 -21.5t38.5 -8z" />
    <glyph glyph-name="p" unicode="p" horiz-adv-x="646" 
d="M444 538q39 0 72.5 -14t57.5 -42.5t38 -71t14 -98.5q0 -77 -19 -137.5t-52.5 -102t-79.5 -63.5t-100 -22q-60 0 -102 26.5t-58 69.5l-41 -257h-197l83 523q9 57 13.5 97.5t6.5 76.5h192q0 -17 -1 -38.5t-3 -44.5q29 48 71.5 73t104.5 25zM316 135q48 0 78 44.5t30 118.5
q0 46 -19.5 70.5t-57.5 24.5q-24 0 -44.5 -12.5t-35.5 -34t-23 -51.5t-8 -65q0 -95 80 -95z" />
    <glyph glyph-name="q" unicode="q" horiz-adv-x="646" 
d="M372 76q-27 -42 -67 -65.5t-99 -23.5q-41 0 -75.5 14t-59.5 42.5t-39 71t-14 99.5q0 77 20 137.5t54.5 102t82 63t103.5 21.5q57 0 96 -23t56 -65l12 73h196l-110 -697h-197zM297 133q24 0 44.5 12.5t35.5 34t23 52t8 66.5q0 46 -20.5 70.5t-58.5 24.5q-48 0 -78.5 -44.5
t-30.5 -118.5q0 -46 19.5 -71.5t57.5 -25.5z" />
    <glyph glyph-name="r" unicode="r" horiz-adv-x="439" 
d="M60 349q9 57 13 97.5t6 76.5h192q0 -20 -1.5 -51.5t-5.5 -63.5q31 64 77 93.5t112 28.5l-28 -184q-84 5 -130 -22t-57 -100l-36 -224h-197z" />
    <glyph glyph-name="s" unicode="s" horiz-adv-x="519" 
d="M233 -14q-54 0 -98.5 10.5t-76 33t-49 57t-17.5 81.5h182q2 -25 15.5 -39.5t48.5 -14.5q53 0 53 37q0 17 -16.5 26t-69.5 19q-89 17 -131 52t-42 104q0 46 18.5 81.5t50.5 58.5t76.5 34.5t97.5 11.5q49 0 90.5 -9.5t71.5 -30.5t47.5 -54t20.5 -79h-179q-2 20 -15.5 34.5
t-40.5 14.5q-53 0 -53 -35q0 -18 18.5 -26.5t57.5 -16.5q52 -10 88.5 -22.5t59.5 -31.5t33.5 -46t10.5 -64q0 -48 -19 -83t-52.5 -58t-80 -34t-100.5 -11z" />
    <glyph glyph-name="t" unicode="t" horiz-adv-x="393" 
d="M228 -12q-47 0 -82.5 11t-58 35.5t-30 63.5t1.5 94l32 199h-61l20 132h61l18 107h197l-18 -107h99l-20 -132h-99l-31 -192q-5 -32 6.5 -44t36.5 -12q11 0 23.5 1.5t25.5 6.5l-23 -148q-17 -6 -41.5 -10.5t-56.5 -4.5z" />
    <glyph glyph-name="u" unicode="u" horiz-adv-x="627" 
d="M561 164q-8 -52 -11.5 -91.5t-1.5 -72.5h-192q-2 17 -2 39.5t2 44.5q-29 -42 -69.5 -69.5t-100.5 -27.5q-39 0 -71.5 12.5t-53.5 39t-29 68.5t1 101l50 315h197l-49 -308q-12 -83 52 -83q76 0 91 94l47 297h196z" />
    <glyph glyph-name="v" unicode="v" horiz-adv-x="592" 
d="M44 523h202l42 -321l147 321h194l-274 -523h-210z" />
    <glyph glyph-name="w" unicode="w" horiz-adv-x="842" 
d="M45 523h199l23 -294l120 294h158l25 -294l119 294h190l-246 -523h-185l-27 275l-115 -275h-190z" />
    <glyph glyph-name="x" unicode="x" horiz-adv-x="602" 
d="M175 269l-119 254h216l52 -128l90 128h207l-201 -247l135 -276h-217l-61 146l-108 -146h-207z" />
    <glyph glyph-name="y" unicode="y" horiz-adv-x="590" 
d="M172 59l-128 464h204l54 -263l130 263h195l-385 -697h-196z" />
    <glyph glyph-name="z" unicode="z" horiz-adv-x="511" 
d="M-32 19l268 359h-189l22 145h471l-3 -20l-276 -359h206l-23 -144h-478z" />
    <glyph glyph-name="braceleft" unicode="{" horiz-adv-x="425" 
d="M322 -148q-153 2 -216.5 64t-23.5 180l25 78q13 37 -5.5 57.5t-73.5 23.5l21 136q57 -1 81 17t22 55v81q0 67 18.5 111.5t57 71.5t98.5 38.5t142 11.5l-23 -143q-29 -2 -47.5 -7t-30 -16t-16 -28t-5.5 -42l-4 -96q-2 -54 -34 -86.5t-89 -43.5q57 -14 76.5 -50.5
t3.5 -90.5l-25 -90q-14 -47 0.5 -66t69.5 -23l-22 -143v0z" />
    <glyph glyph-name="bar" unicode="|" horiz-adv-x="270" 
d="M81 776h135v-924h-135v924z" />
    <glyph glyph-name="braceright" unicode="}" horiz-adv-x="425" 
d="M117 777q153 -2 215.5 -64t24.5 -180l-25 -77q-11 -37 7 -57.5t73 -24.5l-21 -136q-58 2 -80.5 -15.5t-23.5 -55.5v-82q0 -67 -18.5 -111.5t-57.5 -71.5t-98.5 -38.5t-141.5 -11.5l22 143q29 1 48 6.5t30 16.5t16 28t6 42l4 99q2 54 34.5 85.5t89.5 42.5q-57 14 -76.5 51
t-4.5 89l25 90q14 47 -0.5 66t-69.5 23l22 143v0z" />
    <glyph glyph-name="asciitilde" unicode="~" horiz-adv-x="532" 
d="M20 213q7 58 24 98.5t40 65.5t50.5 36t56.5 11q27 0 51 -7t44 -15t36.5 -15t29.5 -7q20 0 32.5 12t17.5 33h125q-6 -54 -23 -93.5t-40 -66t-51 -39t-57 -12.5q-28 0 -52 6.5t-44 15t-36.5 15t-29.5 6.5q-21 0 -32.5 -12t-16.5 -32h-125v0z" />
    <glyph glyph-name="uni00A0" unicode="&#xa0;" horiz-adv-x="253" 
 />
    <glyph glyph-name="exclamdown" unicode="&#xa1;" horiz-adv-x="343" 
d="M218.008 -117.956h-220.986l104.994 473.971h162.989zM205.009 608.999q47.9971 0 78.4951 -29.998t30.498 -74.9951q0 -21.999 -8.49902 -40.998q-8.5 -18.998 -23.499 -33.498q-14.999 -14.499 -34.998 -22.998q-19.998 -8.5 -43.9971 -8.5q-47.9971 0 -79.4951 29.999
q-31.498 29.998 -31.498 74.9951q0 21.998 9 41.4971q8.99902 19.499 23.998 33.498t35.498 22.499q20.499 8.49902 44.4971 8.49902z" />
    <glyph glyph-name="cent" unicode="&#xa2;" 
d="M234 -8q-46 7 -85 25t-68 47t-46 68t-17 89q0 67 21.5 124t61.5 99t95.5 66t123.5 27l15 92h74l-15 -96q87 -13 139 -65.5t56 -151.5h-177q-1 56 -41 73l-42 -267q64 10 80 87h170q-6 -50 -27.5 -90.5t-56.5 -69t-82.5 -45t-105.5 -17.5l-19 -122h-74zM208 223
q0 -74 47 -95l42 264q-42 -11 -65.5 -53t-23.5 -116z" />
    <glyph glyph-name="sterling" unicode="&#xa3;" horiz-adv-x="668" 
d="M55 409h45q-2 14 -3 29.5t-1 31.5q0 60 22 107t61.5 80t93.5 50.5t118 17.5q60 0 110.5 -12.5t87.5 -42t57.5 -77.5t20.5 -118h-210q0 41 -14.5 61t-49.5 20q-24 0 -39.5 -9.5t-25 -25.5t-13 -37.5t-3.5 -44.5v-30h179l-20 -124h-156q0 -24 -5.5 -50t-18.5 -52
q26 -7 47.5 -12t39.5 -5q26 0 42 13t21 41h203q-7 -50 -24.5 -91.5t-47 -72.5t-71.5 -48t-96 -17q-38 0 -70 8t-58.5 17t-48.5 17t-40 8q-20 0 -32.5 -11.5t-15.5 -29.5h-165q10 63 40 113.5t83 73.5q10 21 15 43t5 48v7h-83z" />
    <glyph glyph-name="yen" unicode="&#xa5;" horiz-adv-x="659" 
d="M77 370h133l-131 345h240l56 -216l126 216h221l-233 -345h136l-11 -73h-161l-8 -47h160l-11 -74h-160l-28 -176h-227l27 176h-160l11 74h161l7 47h-159z" />
    <glyph glyph-name="brokenbar" unicode="&#xa6;" horiz-adv-x="270" 
d="M81 302h135v-450h-135v450zM81 776h135v-403h-135v403z" />
    <glyph glyph-name="section" unicode="&#xa7;" horiz-adv-x="618" 
d="M266 -137q-46 0 -88 10t-73.5 32.5t-50 58t-18.5 86.5h179q2 -27 15 -42t43 -15q21 0 35.5 9t14.5 28q0 18 -22.5 31t-77.5 30q-46 14 -83.5 31t-64.5 39t-41.5 50.5t-14.5 66.5q0 66 37 102.5t94 53.5q-30 37 -30 85q0 53 19.5 91.5t53 64t78 38t95.5 12.5
q46 0 86.5 -9.5t70.5 -32t48 -58.5t20 -88h-182q-1 26 -11.5 40t-40.5 15q-23 0 -36.5 -9t-13.5 -29q0 -19 21 -31t74 -29q46 -14 83.5 -31t64.5 -39t41.5 -51t14.5 -68q0 -32 -9 -56.5t-26 -43t-41 -31.5t-53 -23q33 -38 33 -85q0 -53 -20 -91.5t-54 -63.5t-78 -36.5
t-92 -11.5zM373 227q15 3 27 11t12 26t-18 29.5t-63 30.5l-75 32q-15 -2 -28 -9.5t-13 -26.5q0 -17 18 -29t63 -31z" />
    <glyph glyph-name="dieresis" unicode="&#xa8;" horiz-adv-x="400" 
d="M153 570q-19 0 -35.5 7t-29 19t-19.5 28t-7 35q0 18 7 34.5t19.5 28.5t29.5 19t36 7q38 0 64.5 -26t26.5 -63q0 -18 -7 -34.5t-19.5 -28.5t-29.5 -19t-36 -7zM370 570q-19 0 -35.5 7t-28.5 19t-19 28t-7 35q0 37 26 63t64 26q39 0 65.5 -26t26.5 -63t-26.5 -63t-65.5 -26
z" />
    <glyph glyph-name="copyright" unicode="&#xa9;" horiz-adv-x="842" 
d="M442 150q-55 0 -95.5 14.5t-67.5 41.5t-40 64.5t-13 83.5v8q0 46 16 84t44.5 64t66.5 40.5t83 14.5q83 0 134.5 -38t58.5 -122h-138q-2 26 -15.5 40t-39.5 14q-32 0 -50.5 -24t-18.5 -73v-7q0 -98 72 -98q25 0 42 13.5t20 42.5h133q-2 -40 -17 -70.5t-40.5 -51t-60 -31
t-74.5 -10.5zM433 31q67 0 125.5 23.5t102.5 67t69.5 103.5t25.5 134q0 72 -25 132t-68 103t-102 66.5t-126 23.5q-68 0 -127 -24t-102.5 -67t-68.5 -103t-25 -133q0 -74 25.5 -134t69 -102.5t102 -66t124.5 -23.5zM433 -21q-80 0 -150.5 29t-123 79.5t-82.5 119.5t-30 150
q0 79 30 148.5t82.5 120.5t123.5 80.5t152 29.5q82 0 152.5 -29t122.5 -80t81.5 -120t29.5 -148q0 -81 -30 -150.5t-82.5 -120.5t-123.5 -80t-152 -29z" />
    <glyph glyph-name="ordfeminine" unicode="&#xaa;" horiz-adv-x="495" 
d="M182 287q-26 0 -49.5 7.5t-41.5 21.5t-28.5 35.5t-10.5 48.5q0 41 16 69t46 45t73.5 24t98.5 7h42l2 12q2 21 -3 35t-32 14q-23 0 -33 -12t-14 -28h-161q14 78 72 117.5t149 39.5q113 0 157.5 -46.5t27.5 -154.5l-15 -95q-7 -39 -8 -71t2 -58h-163q-2 12 -3 26t-1 26
q-16 -23 -45 -43t-78 -20zM256 400q23 0 37.5 10.5t18.5 31.5l3 19h-35q-32 0 -45.5 -8.5t-13.5 -25.5q0 -27 35 -27z" />
    <glyph glyph-name="guillemotleft" unicode="&#xab;" horiz-adv-x="477" 
d="M24 266l143 189h125l-142 -191l90 -197h-118zM206 264l143 191h125l-142 -195l86 -193h-118z" />
    <glyph glyph-name="uni00AD" unicode="&#xad;" horiz-adv-x="390" 
d="M64 360h292l-24 -146h-292z" />
    <glyph glyph-name="registered" unicode="&#xae;" horiz-adv-x="517" 
d="M208 615h92q92 0 92 -72v-1q0 -23 -9.5 -36.5t-24.5 -21.5l47 -88h-75l-39 73h-9v-73h-74v219zM295 516q26 0 26 22v1q0 20 -26 20h-13v-43h13zM295 320q39 0 73 13.5t59 37.5t39.5 57.5t14.5 74.5q0 40 -14 74t-38.5 58t-59 37.5t-74.5 13.5q-41 0 -75 -13.5t-58.5 -38
t-38.5 -58.5t-14 -74q0 -41 14.5 -74.5t39.5 -57.5t59 -37t73 -13zM295 280q-48 0 -90 17t-73.5 47t-49.5 70.5t-18 87.5q0 46 18 87t49 71.5t73.5 48t90.5 17.5q49 0 91 -17.5t73 -47.5t48.5 -71t17.5 -87q0 -47 -18 -88t-49 -71t-73 -47t-90 -17z" />
    <glyph glyph-name="macron" unicode="&#xaf;" horiz-adv-x="400" 
d="M112 712h316l-17 -107h-316z" />
    <glyph glyph-name="degree" unicode="&#xb0;" horiz-adv-x="457" 
d="M273 448q40 0 65.5 29t25.5 73t-25.5 73t-65.5 29q-41 0 -67 -29t-26 -74q0 -43 25.5 -72t67.5 -29zM272 376q-37 0 -69.5 14t-57 37.5t-38.5 54.5t-14 66q0 36 14 68t38.5 56t57.5 38t71 14q37 0 69 -13.5t56 -37.5t38 -55.5t14 -67.5q0 -35 -14 -66.5t-38.5 -55.5
t-57 -38t-69.5 -14z" />
    <glyph glyph-name="plusminus" unicode="&#xb1;" horiz-adv-x="579" 
d="M223 343h-173l22 142h173l26 162h157l-26 -162h174l-22 -142h-174l-26 -161h-156zM15 126h507l-19 -126h-507z" />
    <glyph glyph-name="twosuperior" unicode="&#xb2;" horiz-adv-x="366" 
d="M18 351l149 133q14 12 29.5 26t28 28t21 26.5t8.5 23.5q0 28 -25 28q-15 0 -26 -12t-17 -39h-132q11 79 61.5 117.5t124.5 38.5q32 0 60.5 -6t50 -20t34 -36t12.5 -55q0 -41 -28.5 -75t-75.5 -73l-24 -20h103l-16 -103h-341z" />
    <glyph glyph-name="threesuperior" unicode="&#xb3;" horiz-adv-x="385" 
d="M220 326q-76 0 -123.5 32t-48.5 105h128q0 -38 38 -38q13 0 24.5 7.5t11.5 25.5q0 27 -41 27h-29l12 79h35q41 0 41 32q0 11 -6.5 18.5t-23.5 7.5q-14 0 -25.5 -8.5t-15.5 -26.5h-126q9 63 55.5 98.5t124.5 35.5q27 0 54.5 -5t49 -17t35.5 -32t14 -50q0 -36 -21 -58.5
t-56 -32.5q29 -7 47 -25t18 -53q0 -32 -14 -55t-37.5 -38t-55 -22t-65.5 -7z" />
    <glyph glyph-name="acute" unicode="&#xb4;" horiz-adv-x="400" 
d="M244 747h194l-125 -169h-142z" />
    <glyph glyph-name="paragraph" unicode="&#xb6;" horiz-adv-x="544" 
d="M261 326h-2q-42 0 -78 10.5t-62.5 32t-41.5 53.5t-15 75q0 55 18.5 96t51.5 68t78 40.5t98 13.5h241l-129 -815h-76l118 750h-73l-119 -750h-75z" />
    <glyph glyph-name="periodcentered" unicode="&#xb7;" horiz-adv-x="302" 
d="M159 219q-24 0 -44 8.5t-34.5 22.5t-23 33.5t-8.5 42.5q0 22 8 42t22.5 34.5t34.5 23t44 8.5t44.5 -8.5t36 -23t24 -34.5t8.5 -42q0 -23 -8.5 -42.5t-23.5 -33.5t-35.5 -22.5t-44.5 -8.5z" />
    <glyph glyph-name="cedilla" unicode="&#xb8;" horiz-adv-x="400" 
d="M138 -228q-25 0 -47.5 5.5t-40.5 17t-29.5 29t-13.5 42.5h91q2 -10 9 -18t24 -8q11 0 21.5 7.5t10.5 24.5q0 27 -31 27q-11 0 -18 -2.5t-12 -7.5l-35 39l57 72h76l-36 -44q42 3 71.5 -17.5t29.5 -62.5q0 -27 -10 -46.5t-27.5 -32t-40.5 -19t-49 -6.5z" />
    <glyph glyph-name="onesuperior" unicode="&#xb9;" horiz-adv-x="297" 
d="M150 574l-89 -45l19 118l114 68h124l-61 -382h-145z" />
    <glyph glyph-name="ordmasculine" unicode="&#xba;" horiz-adv-x="527" 
d="M276 287q-98 0 -155 49.5t-57 137.5q0 56 20.5 102t56 78.5t82 50.5t98.5 18t91.5 -14t66 -39t40 -60t13.5 -78q0 -57 -21 -102t-56.5 -77t-81.5 -49t-97 -17zM288 411q19 0 33 10t23 27.5t13.5 40t4.5 46.5q0 30 -12 46.5t-41 16.5q-35 0 -54.5 -35.5t-19.5 -88.5
q0 -30 13 -46.5t40 -16.5z" />
    <glyph glyph-name="guillemotright" unicode="&#xbb;" horiz-adv-x="477" 
d="M451 256l-142 -189h-125l141 191l-90 197h119zM269 258l-142 -191h-125l141 195l-86 193h119z" />
    <glyph glyph-name="onequarter" unicode="&#xbc;" horiz-adv-x="823" 
d="M153 574l-89 -45l19 118l114 68h124l-61 -382h-145zM671 715h101l-614 -715h-100zM580 70h-189l9 54l197 258h173l-34 -218h48l-15 -94h-48l-11 -70h-141zM600 164l19 120l-88 -120h69z" />
    <glyph glyph-name="onehalf" unicode="&#xbd;" horiz-adv-x="835" 
d="M153 574l-89 -45l19 118l114 68h124l-61 -382h-145zM659 715h101l-614 -715h-100zM432 18l149 133q14 12 29.5 26t28 28t21 26.5t8.5 23.5q0 28 -25 28q-15 0 -26 -12t-17 -39h-132q11 79 61.5 117.5t124.5 38.5q32 0 60.5 -6t50 -20t34 -36t12.5 -55q0 -41 -28.5 -75
t-75.5 -73l-24 -20h103l-16 -103h-341z" />
    <glyph glyph-name="threequarters" unicode="&#xbe;" horiz-adv-x="866" 
d="M223 326q-76 0 -123.5 32t-48.5 105h128q0 -38 38 -38q13 0 24.5 7.5t11.5 25.5q0 27 -41 27h-29l12 79h35q41 0 41 32q0 11 -6.5 18.5t-23.5 7.5q-14 0 -25.5 -8.5t-15.5 -26.5h-126q9 63 55.5 98.5t124.5 35.5q27 0 54.5 -5t49 -17t35.5 -32t14 -50q0 -36 -21 -58.5
t-56 -32.5q29 -7 47 -25t18 -53q0 -32 -14 -55t-37.5 -38t-55 -22t-65.5 -7zM728 715h101l-614 -715h-100zM623 70h-189l9 54l197 258h173l-34 -218h48l-15 -94h-48l-11 -70h-141zM643 164l19 120l-88 -120h69z" />
    <glyph glyph-name="questiondown" unicode="&#xbf;" horiz-adv-x="568" 
d="M412.01 340.016q-4.99902 -29.998 -16.999 -53.4961q-11.999 -23.499 -28.498 -42.498t-35.498 -33.998q-18.998 -14.999 -36.9971 -28.998q-16.999 -12.999 -32.498 -24.498q-15.499 -11.5 -27.499 -23.499q-11.999 -11.999 -18.998 -24.998q-7 -12.999 -7 -29.998
q2 -43.998 48.9971 -43.998q57.9961 0 73.9951 79.9951h191.988q-6.99902 -60.9961 -31.998 -105.993q-24.998 -44.9971 -62.9961 -74.4951q-37.9971 -29.498 -87.4941 -43.998q-49.4971 -14.499 -105.494 -14.499q-118.992 0 -179.488 49.9971
q-60.4971 49.9971 -60.4971 132.992q0 33.998 8.5 60.4961q8.49902 26.498 22.498 47.4971q14 20.999 32.498 38.498q18.499 17.499 38.498 32.498q18.999 13.999 39.498 27.498q20.498 13.499 38.9971 27.998t32.498 30.498t20.999 35.998h185.988zM345.014 611.999
q23.999 0 43.998 -7.99902q19.998 -8 34.498 -21.999q14.499 -13.999 22.498 -32.998q8 -18.999 8 -40.9971q0 -21.999 -8.5 -41.498q-8.49902 -19.498 -23.498 -34.498q-14.999 -14.999 -34.998 -23.498q-19.999 -8.5 -43.9971 -8.5q-47.9971 0 -79.4951 30.499
q-31.498 30.498 -31.498 75.4951q0 21.998 8.99902 40.9971t23.999 33.498q14.999 14.499 35.4971 22.999q20.499 8.49902 44.4971 8.49902z" />
    <glyph glyph-name="Agrave" unicode="&#xc0;" horiz-adv-x="755" 
d="M457 119h-225l-51 -119h-217l339 715h292l111 -715h-235zM299 273h141l-29 259zM302 906h199l32 -149h-144z" />
    <glyph glyph-name="Aacute" unicode="&#xc1;" horiz-adv-x="755" 
d="M457 119h-225l-51 -119h-217l339 715h292l111 -715h-235zM299 273h141l-29 259zM433 906h201l-115 -149h-150z" />
    <glyph glyph-name="Acircumflex" unicode="&#xc2;" horiz-adv-x="755" 
d="M457 119h-225l-51 -119h-217l339 715h292l111 -715h-235zM299 273h141l-29 259zM381 906h164l93 -149h-137l-48 47l-60 -47h-144z" />
    <glyph glyph-name="Atilde" unicode="&#xc3;" horiz-adv-x="755" 
d="M457 119h-225l-51 -119h-217l339 715h292l111 -715h-235zM299 273h141l-29 259zM518 755q-22 0 -39 5t-31.5 11t-26 11t-23.5 5t-21.5 -8t-11.5 -22h-110q14 84 53 122t87 38q21 0 38 -5t31.5 -11t27.5 -11t26 -5q25 0 34 30h109q-8 -42 -22.5 -72t-33.5 -49.5t-41.5 -29
t-45.5 -9.5z" />
    <glyph glyph-name="Adieresis" unicode="&#xc4;" horiz-adv-x="755" 
d="M457 119h-225l-51 -119h-217l339 715h292l111 -715h-235zM299 273h141l-29 259zM342 752q-19 0 -35.5 7t-29 19t-19.5 28.5t-7 34.5t7 34.5t19.5 28.5t29.5 19t36 7q38 0 64.5 -25.5t26.5 -63.5q0 -18 -7 -34.5t-19.5 -28.5t-29.5 -19t-36 -7zM569 752q-19 0 -35.5 7
t-29 19t-19.5 28.5t-7 34.5t7 34.5t19.5 28.5t29 19t35.5 7q39 0 65.5 -25.5t26.5 -63.5q0 -18 -7 -34.5t-19.5 -28.5t-29.5 -19t-36 -7z" />
    <glyph glyph-name="Aring" unicode="&#xc5;" horiz-adv-x="755" 
d="M457 119h-225l-51 -119h-217l339 715h292l111 -715h-235zM299 273h141l-29 259zM454 810q20 0 32.5 14t12.5 36t-12.5 36t-32.5 14t-32.5 -13.5t-12.5 -37.5q0 -22 12 -35.5t33 -13.5zM454 742q-25 0 -47.5 9.5t-39 25t-26 37t-9.5 45.5q0 25 10 46.5t26.5 37.5
t38.5 25.5t47 9.5t47.5 -9.5t39 -25.5t26 -37.5t9.5 -45.5t-10 -45.5t-26.5 -37.5t-38.5 -25.5t-47 -9.5z" />
    <glyph glyph-name="AE" unicode="&#xc6;" horiz-adv-x="1012" 
d="M384 715h651l-27 -174h-275l-16 -101h217l-24 -158h-217l-18 -108h291l-27 -174h-516l21 135h-184l-75 -135h-220zM344 285h123l41 256h-20z" />
    <glyph glyph-name="Ccedilla" unicode="&#xc7;" horiz-adv-x="768" 
d="M317 -228q-25 0 -47.5 5.5t-40.5 17t-29.5 29t-13.5 42.5h91q2 -10 9 -18t24 -8q11 0 21.5 7.5t10.5 24.5q0 27 -31 27q-11 0 -18 -2.5t-12 -7.5l-35 39l53 67q-120 20 -189.5 97.5t-69.5 209.5q0 93 27.5 170.5t79 134t126.5 88t170 31.5q73 0 131.5 -17.5t100 -52.5
t65 -88t26.5 -124h-228q-5 51 -28 78t-73 27q-40 0 -70 -19t-50 -51.5t-30 -75.5t-10 -91q0 -30 6 -57t20 -46.5t37 -31t56 -11.5q48 0 81 26.5t47 81.5h225q-11 -72 -42.5 -126t-79 -89.5t-107 -53.5t-126.5 -18h-26l-25 -31q42 3 71.5 -17.5t29.5 -62.5q0 -27 -10 -46.5
t-27.5 -32t-40.5 -19t-49 -6.5z" />
    <glyph glyph-name="Egrave" unicode="&#xc8;" horiz-adv-x="621" 
d="M136 715h507l-27 -174h-282l-16 -101h224l-24 -158h-224l-18 -108h298l-27 -174h-524zM242 906h199l32 -149h-144z" />
    <glyph glyph-name="Eacute" unicode="&#xc9;" horiz-adv-x="621" 
d="M136 715h507l-27 -174h-282l-16 -101h224l-24 -158h-224l-18 -108h298l-27 -174h-524zM367 906h201l-115 -149h-150z" />
    <glyph glyph-name="Ecircumflex" unicode="&#xca;" horiz-adv-x="621" 
d="M136 715h507l-27 -174h-282l-16 -101h224l-24 -158h-224l-18 -108h298l-27 -174h-524zM326 906h164l93 -149h-137l-48 47l-60 -47h-144z" />
    <glyph glyph-name="Edieresis" unicode="&#xcb;" horiz-adv-x="621" 
d="M136 715h507l-27 -174h-282l-16 -101h224l-24 -158h-224l-18 -108h298l-27 -174h-524zM289 752q-19 0 -35.5 7t-29 19t-19.5 28.5t-7 34.5t7 34.5t19.5 28.5t29.5 19t36 7q38 0 64.5 -25.5t26.5 -63.5q0 -18 -7 -34.5t-19.5 -28.5t-29.5 -19t-36 -7zM516 752
q-19 0 -35.5 7t-29 19t-19.5 28.5t-7 34.5t7 34.5t19.5 28.5t29 19t35.5 7q39 0 65.5 -25.5t26.5 -63.5q0 -18 -7 -34.5t-19.5 -28.5t-29.5 -19t-36 -7z" />
    <glyph glyph-name="Igrave" unicode="&#xcc;" horiz-adv-x="366" 
d="M139 715h229l-113 -715h-229zM107 906h199l32 -149h-144z" />
    <glyph glyph-name="Iacute" unicode="&#xcd;" horiz-adv-x="366" 
d="M139 715h229l-113 -715h-229zM235 906h201l-115 -149h-150z" />
    <glyph glyph-name="Icircumflex" unicode="&#xce;" horiz-adv-x="366" 
d="M139 715h229l-113 -715h-229zM195 906h164l93 -149h-137l-48 47l-60 -47h-144z" />
    <glyph glyph-name="Idieresis" unicode="&#xcf;" horiz-adv-x="366" 
d="M139 715h229l-113 -715h-229zM158 752q-19 0 -35.5 7t-29 19t-19.5 28.5t-7 34.5t7 34.5t19.5 28.5t29.5 19t36 7q38 0 64.5 -25.5t26.5 -63.5q0 -18 -7 -34.5t-19.5 -28.5t-29.5 -19t-36 -7zM385 752q-19 0 -35.5 7t-29 19t-19.5 28.5t-7 34.5t7 34.5t19.5 28.5t29 19
t35.5 7q39 0 65.5 -25.5t26.5 -63.5q0 -18 -7 -34.5t-19.5 -28.5t-29.5 -19t-36 -7z" />
    <glyph glyph-name="Eth" unicode="&#xd0;" horiz-adv-x="775" 
d="M55 435h55l44 280h242q184 0 276.5 -80t92.5 -224q0 -101 -30.5 -177.5t-85.5 -128.5t-132 -78.5t-170 -26.5h-306l45 284h-55zM349 172q88 0 135 59t47 170q0 142 -139 142h-42l-17 -108h103l-23 -151h-104l-18 -112h58z" />
    <glyph glyph-name="Ntilde" unicode="&#xd1;" horiz-adv-x="787" 
d="M136 715h255l141 -372l59 372h201l-113 -715h-217l-171 423l-66 -423h-202zM551 755q-22 0 -39 5t-31.5 11t-26 11t-23.5 5t-21.5 -8t-11.5 -22h-110q14 84 53 122t87 38q21 0 38 -5t31.5 -11t27.5 -11t26 -5q25 0 34 30h109q-8 -42 -22.5 -72t-33.5 -49.5t-41.5 -29
t-45.5 -9.5z" />
    <glyph glyph-name="Ograve" unicode="&#xd2;" horiz-adv-x="820" 
d="M810 410q0 -94 -30 -172t-85.5 -133.5t-133 -86.5t-172.5 -31q-71 0 -134.5 20t-111 60t-75.5 98t-28 135q0 94 30 172.5t85 134.5t130.5 87.5t167.5 31.5q73 0 138 -20t114 -59.5t77 -99t28 -137.5zM574 402q0 30 -7 56.5t-22.5 46.5t-40 31.5t-58.5 12.5q-43 0 -75 -20
t-53.5 -54t-32 -77.5t-10.5 -89.5q0 -63 31.5 -103t98.5 -40q43 0 75 20.5t53 53.5t31 75.5t10 87.5zM313 906h199l32 -149h-144z" />
    <glyph glyph-name="Oacute" unicode="&#xd3;" horiz-adv-x="820" 
d="M810 410q0 -94 -30 -172t-85.5 -133.5t-133 -86.5t-172.5 -31q-71 0 -134.5 20t-111 60t-75.5 98t-28 135q0 94 30 172.5t85 134.5t130.5 87.5t167.5 31.5q73 0 138 -20t114 -59.5t77 -99t28 -137.5zM574 402q0 30 -7 56.5t-22.5 46.5t-40 31.5t-58.5 12.5q-43 0 -75 -20
t-53.5 -54t-32 -77.5t-10.5 -89.5q0 -63 31.5 -103t98.5 -40q43 0 75 20.5t53 53.5t31 75.5t10 87.5zM441 906h201l-115 -149h-150z" />
    <glyph glyph-name="Ocircumflex" unicode="&#xd4;" horiz-adv-x="820" 
d="M810 410q0 -94 -30 -172t-85.5 -133.5t-133 -86.5t-172.5 -31q-71 0 -134.5 20t-111 60t-75.5 98t-28 135q0 94 30 172.5t85 134.5t130.5 87.5t167.5 31.5q73 0 138 -20t114 -59.5t77 -99t28 -137.5zM574 402q0 30 -7 56.5t-22.5 46.5t-40 31.5t-58.5 12.5q-43 0 -75 -20
t-53.5 -54t-32 -77.5t-10.5 -89.5q0 -63 31.5 -103t98.5 -40q43 0 75 20.5t53 53.5t31 75.5t10 87.5zM399 906h164l93 -149h-137l-48 47l-60 -47h-144z" />
    <glyph glyph-name="Otilde" unicode="&#xd5;" horiz-adv-x="820" 
d="M810 410q0 -94 -30 -172t-85.5 -133.5t-133 -86.5t-172.5 -31q-71 0 -134.5 20t-111 60t-75.5 98t-28 135q0 94 30 172.5t85 134.5t130.5 87.5t167.5 31.5q73 0 138 -20t114 -59.5t77 -99t28 -137.5zM574 402q0 30 -7 56.5t-22.5 46.5t-40 31.5t-58.5 12.5q-43 0 -75 -20
t-53.5 -54t-32 -77.5t-10.5 -89.5q0 -63 31.5 -103t98.5 -40q43 0 75 20.5t53 53.5t31 75.5t10 87.5zM530 755q-22 0 -39 5t-31.5 11t-26 11t-23.5 5t-21.5 -8t-11.5 -22h-110q14 84 53 122t87 38q21 0 38 -5t31.5 -11t27.5 -11t26 -5q25 0 34 30h109q-8 -42 -22.5 -72
t-33.5 -49.5t-41.5 -29t-45.5 -9.5z" />
    <glyph glyph-name="Odieresis" unicode="&#xd6;" horiz-adv-x="820" 
d="M810 410q0 -94 -30 -172t-85.5 -133.5t-133 -86.5t-172.5 -31q-71 0 -134.5 20t-111 60t-75.5 98t-28 135q0 94 30 172.5t85 134.5t130.5 87.5t167.5 31.5q73 0 138 -20t114 -59.5t77 -99t28 -137.5zM574 402q0 30 -7 56.5t-22.5 46.5t-40 31.5t-58.5 12.5q-43 0 -75 -20
t-53.5 -54t-32 -77.5t-10.5 -89.5q0 -63 31.5 -103t98.5 -40q43 0 75 20.5t53 53.5t31 75.5t10 87.5zM363 752q-19 0 -35.5 7t-29 19t-19.5 28.5t-7 34.5t7 34.5t19.5 28.5t29.5 19t36 7q38 0 64.5 -25.5t26.5 -63.5q0 -18 -7 -34.5t-19.5 -28.5t-29.5 -19t-36 -7zM590 752
q-19 0 -35.5 7t-29 19t-19.5 28.5t-7 34.5t7 34.5t19.5 28.5t29 19t35.5 7q39 0 65.5 -25.5t26.5 -63.5q0 -18 -7 -34.5t-19.5 -28.5t-29.5 -19t-36 -7z" />
    <glyph glyph-name="multiply" unicode="&#xd7;" horiz-adv-x="589" 
d="M28 186l174 152l-131 154l116 103l132 -155l174 151l90 -104l-175 -152l132 -153l-117 -103l-132 154l-173 -150z" />
    <glyph glyph-name="Oslash" unicode="&#xd8;" horiz-adv-x="820" 
d="M34 23l76 77q-33 38 -51.5 87.5t-18.5 111.5q0 94 30 172.5t85 135t130.5 87.5t167.5 31q62 0 117.5 -14t100.5 -42l72 72l55 -56l-65 -66q36 -39 56.5 -91t20.5 -118q0 -94 -30 -172t-85.5 -133.5t-133 -86.5t-172.5 -31q-127 0 -220 61l-80 -81zM581 402q0 15 -2 29
t-5 27l-262 -265q35 -29 93 -29q44 0 77 19.5t55 52.5t33 76t11 90zM269 309q0 -12 1 -23t3 -21l257 260q-33 24 -84 25q-44 0 -77 -19.5t-55 -52.5t-33.5 -77t-11.5 -92z" />
    <glyph glyph-name="Ugrave" unicode="&#xd9;" horiz-adv-x="776" 
d="M376 -13q-83 0 -146.5 20.5t-104 61t-56 102t-2.5 142.5l65 402h226l-65 -409q-11 -71 8.5 -106t78.5 -35q28 0 47.5 8t32 24.5t20 40.5t12.5 56l67 421h228l-70 -439q-23 -150 -106.5 -219.5t-234.5 -69.5zM303 906h199l32 -149h-144z" />
    <glyph glyph-name="Uacute" unicode="&#xda;" horiz-adv-x="776" 
d="M376 -13q-83 0 -146.5 20.5t-104 61t-56 102t-2.5 142.5l65 402h226l-65 -409q-11 -71 8.5 -106t78.5 -35q28 0 47.5 8t32 24.5t20 40.5t12.5 56l67 421h228l-70 -439q-23 -150 -106.5 -219.5t-234.5 -69.5zM445 906h201l-115 -149h-150z" />
    <glyph glyph-name="Ucircumflex" unicode="&#xdb;" horiz-adv-x="776" 
d="M376 -13q-83 0 -146.5 20.5t-104 61t-56 102t-2.5 142.5l65 402h226l-65 -409q-11 -71 8.5 -106t78.5 -35q28 0 47.5 8t32 24.5t20 40.5t12.5 56l67 421h228l-70 -439q-23 -150 -106.5 -219.5t-234.5 -69.5zM392 906h164l93 -149h-137l-48 47l-60 -47h-144z" />
    <glyph glyph-name="Udieresis" unicode="&#xdc;" horiz-adv-x="776" 
d="M376 -13q-83 0 -146.5 20.5t-104 61t-56 102t-2.5 142.5l65 402h226l-65 -409q-11 -71 8.5 -106t78.5 -35q28 0 47.5 8t32 24.5t20 40.5t12.5 56l67 421h228l-70 -439q-23 -150 -106.5 -219.5t-234.5 -69.5zM352 752q-19 0 -35.5 7t-29 19t-19.5 28.5t-7 34.5t7 34.5
t19.5 28.5t29.5 19t36 7q38 0 64.5 -25.5t26.5 -63.5q0 -18 -7 -34.5t-19.5 -28.5t-29.5 -19t-36 -7zM579 752q-19 0 -35.5 7t-29 19t-19.5 28.5t-7 34.5t7 34.5t19.5 28.5t29 19t35.5 7q39 0 65.5 -25.5t26.5 -63.5q0 -18 -7 -34.5t-19.5 -28.5t-29.5 -19t-36 -7z" />
    <glyph glyph-name="Yacute" unicode="&#xdd;" horiz-adv-x="693" 
d="M241 306l-166 409h235l77 -221l143 221h226l-288 -421l-46 -294h-228zM412 906h201l-115 -149h-150z" />
    <glyph glyph-name="Thorn" unicode="&#xde;" horiz-adv-x="664" 
d="M344 600h45q134 0 203 -53t69 -153q0 -62 -21.5 -111t-61 -83t-95.5 -52t-126 -18h-87l-20 -130h-227l113 715h226zM319 442l-25 -160h53q48 0 73 24.5t25 70.5q1 31 -19.5 48t-62.5 17h-44z" />
    <glyph glyph-name="germandbls" unicode="&#xdf;" horiz-adv-x="641" 
d="M358 -10q-34 0 -61 4.5t-48 12.5l24 143q10 -5 22.5 -8t26.5 -3q55 0 77.5 36.5t22.5 92.5q0 53 -29.5 77.5t-81.5 22.5l22 137q41 1 68 18.5t27 59.5q0 28 -16 44t-46 16q-63 0 -76 -84l-88 -559h-197l88 549q9 60 33.5 102t61 68.5t83.5 38.5t102 12q53 0 97 -11
t75.5 -33t49 -55.5t17.5 -77.5q0 -60 -37.5 -99t-98.5 -56q63 -18 103 -66.5t40 -125.5q0 -58 -17.5 -105.5t-50.5 -81t-81.5 -51.5t-111.5 -18z" />
    <glyph glyph-name="agrave" unicode="&#xe0;" horiz-adv-x="584" 
d="M168 -13q-35 0 -65 9.5t-52 28t-35 45.5t-13 62q0 52 19 87t55 56.5t87.5 31t117.5 9.5h72l2 12q5 32 -4.5 52.5t-48.5 20.5q-33 0 -47.5 -17t-19.5 -39h-184q20 97 86.5 145t173.5 48q134 0 194 -57.5t41 -177.5l-22 -139q-8 -51 -10.5 -91t2.5 -73h-191
q-3 16 -3.5 32.5t0.5 32.5q-22 -31 -58.5 -54.5t-96.5 -23.5zM251 117q32 0 54.5 18.5t27.5 47.5l5 27h-51q-48 0 -68 -11.5t-20 -38.5q0 -18 13 -30.5t39 -12.5zM162 747h192l38 -169h-137z" />
    <glyph glyph-name="aacute" unicode="&#xe1;" horiz-adv-x="584" 
d="M168 -13q-35 0 -65 9.5t-52 28t-35 45.5t-13 62q0 52 19 87t55 56.5t87.5 31t117.5 9.5h72l2 12q5 32 -4.5 52.5t-48.5 20.5q-33 0 -47.5 -17t-19.5 -39h-184q20 97 86.5 145t173.5 48q134 0 194 -57.5t41 -177.5l-22 -139q-8 -51 -10.5 -91t2.5 -73h-191
q-3 16 -3.5 32.5t0.5 32.5q-22 -31 -58.5 -54.5t-96.5 -23.5zM251 117q32 0 54.5 18.5t27.5 47.5l5 27h-51q-48 0 -68 -11.5t-20 -38.5q0 -18 13 -30.5t39 -12.5zM331 747h194l-125 -169h-142z" />
    <glyph glyph-name="acircumflex" unicode="&#xe2;" horiz-adv-x="584" 
d="M168 -13q-35 0 -65 9.5t-52 28t-35 45.5t-13 62q0 52 19 87t55 56.5t87.5 31t117.5 9.5h72l2 12q5 32 -4.5 52.5t-48.5 20.5q-33 0 -47.5 -17t-19.5 -39h-184q20 97 86.5 145t173.5 48q134 0 194 -57.5t41 -177.5l-22 -139q-8 -51 -10.5 -91t2.5 -73h-191
q-3 16 -3.5 32.5t0.5 32.5q-22 -31 -58.5 -54.5t-96.5 -23.5zM251 117q32 0 54.5 18.5t27.5 47.5l5 27h-51q-48 0 -68 -11.5t-20 -38.5q0 -18 13 -30.5t39 -12.5zM280 746h137l99 -166h-132l-49 53l-63 -53h-139z" />
    <glyph glyph-name="atilde" unicode="&#xe3;" horiz-adv-x="584" 
d="M168 -13q-35 0 -65 9.5t-52 28t-35 45.5t-13 62q0 52 19 87t55 56.5t87.5 31t117.5 9.5h72l2 12q5 32 -4.5 52.5t-48.5 20.5q-33 0 -47.5 -17t-19.5 -39h-184q20 97 86.5 145t173.5 48q134 0 194 -57.5t41 -177.5l-22 -139q-8 -51 -10.5 -91t2.5 -73h-191
q-3 16 -3.5 32.5t0.5 32.5q-22 -31 -58.5 -54.5t-96.5 -23.5zM251 117q32 0 54.5 18.5t27.5 47.5l5 27h-51q-48 0 -68 -11.5t-20 -38.5q0 -18 13 -30.5t39 -12.5zM396 581q-22 0 -39 5t-30.5 11t-25 11t-23.5 5t-20.5 -8t-12.5 -22h-103q13 84 48 123t84 39q21 0 37.5 -5
t31 -11t27 -11t25.5 -5q24 0 32 31h104q-14 -85 -51 -124t-84 -39z" />
    <glyph glyph-name="adieresis" unicode="&#xe4;" horiz-adv-x="584" 
d="M168 -13q-35 0 -65 9.5t-52 28t-35 45.5t-13 62q0 52 19 87t55 56.5t87.5 31t117.5 9.5h72l2 12q5 32 -4.5 52.5t-48.5 20.5q-33 0 -47.5 -17t-19.5 -39h-184q20 97 86.5 145t173.5 48q134 0 194 -57.5t41 -177.5l-22 -139q-8 -51 -10.5 -91t2.5 -73h-191
q-3 16 -3.5 32.5t0.5 32.5q-22 -31 -58.5 -54.5t-96.5 -23.5zM251 117q32 0 54.5 18.5t27.5 47.5l5 27h-51q-48 0 -68 -11.5t-20 -38.5q0 -18 13 -30.5t39 -12.5zM224 570q-19 0 -35.5 7t-29 19t-19.5 28t-7 35q0 18 7 34.5t19.5 28.5t29.5 19t36 7q38 0 64.5 -26t26.5 -63
q0 -18 -7 -34.5t-19.5 -28.5t-29.5 -19t-36 -7zM441 570q-19 0 -35.5 7t-28.5 19t-19 28t-7 35q0 37 26 63t64 26q39 0 65.5 -26t26.5 -63t-26.5 -63t-65.5 -26z" />
    <glyph glyph-name="aring" unicode="&#xe5;" horiz-adv-x="584" 
d="M168 -13q-35 0 -65 9.5t-52 28t-35 45.5t-13 62q0 52 19 87t55 56.5t87.5 31t117.5 9.5h72l2 12q5 32 -4.5 52.5t-48.5 20.5q-33 0 -47.5 -17t-19.5 -39h-184q20 97 86.5 145t173.5 48q134 0 194 -57.5t41 -177.5l-22 -139q-8 -51 -10.5 -91t2.5 -73h-191
q-3 16 -3.5 32.5t0.5 32.5q-22 -31 -58.5 -54.5t-96.5 -23.5zM251 117q32 0 54.5 18.5t27.5 47.5l5 27h-51q-48 0 -68 -11.5t-20 -38.5q0 -18 13 -30.5t39 -12.5zM329 642q20 0 32.5 13.5t12.5 35.5q0 21 -12 34.5t-32 13.5t-32.5 -13.5t-12.5 -35.5q0 -21 12 -34.5
t32 -13.5zM329 574q-25 0 -46.5 9t-38 25t-26 37t-9.5 45t9.5 45.5t26 37t38.5 25t47 9.5t46.5 -9t38 -25t26 -37t9.5 -45t-9.5 -45.5t-26 -37.5t-38.5 -25t-47 -9z" />
    <glyph glyph-name="ae" unicode="&#xe6;" horiz-adv-x="912" 
d="M525 217q0 -20 4.5 -38t15 -31.5t27 -21t41.5 -7.5q37 0 55.5 16t26.5 42h185q-19 -93 -90.5 -141.5t-181.5 -48.5q-75 0 -129.5 22.5t-86.5 70.5q-12 -18 -28 -35t-39.5 -29.5t-54.5 -20.5t-73 -8q-43 0 -78.5 10t-61 29t-40 46.5t-14.5 63.5q0 51 19.5 86t56 56.5
t88.5 31t117 9.5h71l2 11q5 31 -6 51t-50 20q-33 0 -49 -17t-21 -39h-183q9 49 32 85.5t57.5 60.5t78.5 35.5t94 11.5q60 0 100.5 -14t63.5 -42q36 26 78 40.5t88 14.5q65 0 115.5 -19.5t83 -57t45 -92.5t1.5 -126l-3 -23h-357v-2zM635 412q-31 0 -57.5 -21t-40.5 -71h168
q3 39 -12.5 65.5t-57.5 26.5zM251 117q32 0 55 18t28 52l5 29h-52q-48 0 -68 -13t-20 -42q0 -20 13 -32t39 -12z" />
    <glyph glyph-name="ccedilla" unicode="&#xe7;" horiz-adv-x="584" 
d="M229 -228q-25 0 -47.5 5.5t-40.5 17t-29.5 29t-13.5 42.5h91q2 -10 9 -18t24 -8q11 0 21.5 7.5t10.5 24.5q0 27 -31 27q-11 0 -18 -2.5t-12 -7.5l-35 39l54 68q-42 9 -77.5 28t-60.5 48t-39 68t-14 88q0 70 21.5 127t61 97.5t94.5 62.5t121 22q52 0 97.5 -12.5t79 -39.5
t53 -68.5t21.5 -99.5h-184q-6 69 -71 69q-27 0 -45.5 -13.5t-30 -36t-16.5 -51t-5 -59.5q0 -44 18 -70.5t62 -26.5q34 0 56 20t30 60h176q-13 -107 -82 -164t-187 -57h-10l-26 -32q42 3 71.5 -17.5t29.5 -62.5q0 -27 -10 -46.5t-27.5 -32t-40.5 -19t-49 -6.5z" />
    <glyph glyph-name="egrave" unicode="&#xe8;" horiz-adv-x="602" 
d="M213 217q0 -20 4.5 -38t15 -31.5t27.5 -21t42 -7.5q37 0 56.5 16t27.5 42h185q-19 -93 -91.5 -141.5t-182.5 -48.5q-57 0 -107.5 14t-88 43.5t-59 74.5t-21.5 108q0 70 23 127.5t63.5 98t96 63t121.5 22.5t117.5 -20t84.5 -58.5t46.5 -93.5t2.5 -125l-3 -23h-360v-1z
M324 412q-31 0 -58 -20.5t-41 -70.5h170q4 40 -12 65.5t-59 25.5zM179 747h192l38 -169h-137z" />
    <glyph glyph-name="eacute" unicode="&#xe9;" horiz-adv-x="602" 
d="M213 217q0 -20 4.5 -38t15 -31.5t27.5 -21t42 -7.5q37 0 56.5 16t27.5 42h185q-19 -93 -91.5 -141.5t-182.5 -48.5q-57 0 -107.5 14t-88 43.5t-59 74.5t-21.5 108q0 70 23 127.5t63.5 98t96 63t121.5 22.5t117.5 -20t84.5 -58.5t46.5 -93.5t2.5 -125l-3 -23h-360v-1z
M324 412q-31 0 -58 -20.5t-41 -70.5h170q4 40 -12 65.5t-59 25.5zM335 747h194l-125 -169h-142z" />
    <glyph glyph-name="ecircumflex" unicode="&#xea;" horiz-adv-x="602" 
d="M213 217q0 -20 4.5 -38t15 -31.5t27.5 -21t42 -7.5q37 0 56.5 16t27.5 42h185q-19 -93 -91.5 -141.5t-182.5 -48.5q-57 0 -107.5 14t-88 43.5t-59 74.5t-21.5 108q0 70 23 127.5t63.5 98t96 63t121.5 22.5t117.5 -20t84.5 -58.5t46.5 -93.5t2.5 -125l-3 -23h-360v-1z
M324 412q-31 0 -58 -20.5t-41 -70.5h170q4 40 -12 65.5t-59 25.5zM289 746h137l99 -166h-132l-49 53l-63 -53h-139z" />
    <glyph glyph-name="edieresis" unicode="&#xeb;" horiz-adv-x="602" 
d="M213 217q0 -20 4.5 -38t15 -31.5t27.5 -21t42 -7.5q37 0 56.5 16t27.5 42h185q-19 -93 -91.5 -141.5t-182.5 -48.5q-57 0 -107.5 14t-88 43.5t-59 74.5t-21.5 108q0 70 23 127.5t63.5 98t96 63t121.5 22.5t117.5 -20t84.5 -58.5t46.5 -93.5t2.5 -125l-3 -23h-360v-1z
M324 412q-31 0 -58 -20.5t-41 -70.5h170q4 40 -12 65.5t-59 25.5zM236 570q-19 0 -35.5 7t-29 19t-19.5 28t-7 35q0 18 7 34.5t19.5 28.5t29.5 19t36 7q38 0 64.5 -26t26.5 -63q0 -18 -7 -34.5t-19.5 -28.5t-29.5 -19t-36 -7zM453 570q-19 0 -35.5 7t-28.5 19t-19 28t-7 35
q0 37 26 63t64 26q39 0 65.5 -26t26.5 -63t-26.5 -63t-65.5 -26z" />
    <glyph glyph-name="igrave" unicode="&#xec;" horiz-adv-x="303" 
d="M93 523h197l-83 -523h-196zM44 747h192l38 -169h-137z" />
    <glyph glyph-name="iacute" unicode="&#xed;" horiz-adv-x="303" 
d="M93 523h197l-83 -523h-196zM195 747h194l-125 -169h-142z" />
    <glyph glyph-name="icircumflex" unicode="&#xee;" horiz-adv-x="303" 
d="M93 523h197l-83 -523h-196zM155 746h137l99 -166h-132l-49 53l-63 -53h-139z" />
    <glyph glyph-name="idieresis" unicode="&#xef;" horiz-adv-x="303" 
d="M107 570q-38 0 -64.5 25.5t-26.5 63.5q0 18 7 34.5t19.5 28.5t29.5 19t36 7q38 0 64.5 -26t26.5 -63q0 -18 -7 -34.5t-19.5 -28.5t-29.5 -19t-36 -7zM322 570q-19 0 -35.5 7t-28.5 19t-19 28t-7 35q0 18 7 34.5t19 28.5t28.5 19t35.5 7q39 0 65.5 -26t26.5 -63t-26.5 -63
t-65.5 -26zM93 523h197l-83 -523h-196z" />
    <glyph glyph-name="eth" unicode="&#xf0;" horiz-adv-x="625" 
d="M138 618l119 39q-28 26 -56.5 49t-54.5 43h230q13 -8 25.5 -17t25.5 -20l114 37l18 -63l-79 -26q25 -29 48 -63.5t40 -74.5t27 -85.5t10 -95.5q0 -74 -19 -138.5t-57 -112.5t-97 -75.5t-138 -27.5q-58 0 -108 15t-86.5 46t-57.5 77t-21 108q0 60 17.5 113.5t51 94
t81 64.5t107.5 24q36 0 63 -10.5t50 -36.5q-31 65 -83 123l-151 -49zM217 223q0 -38 18.5 -64.5t63.5 -26.5q29 0 49 15.5t33 40t18.5 54.5t5.5 60q0 38 -18.5 64t-62.5 26q-28 0 -48 -13.5t-33 -36.5t-19.5 -54t-6.5 -65z" />
    <glyph glyph-name="ntilde" unicode="&#xf1;" horiz-adv-x="627" 
d="M60 349q9 57 13.5 97.5t6.5 76.5h192q0 -20 -1 -44.5t-4 -47.5q28 45 71.5 76t107.5 31q36 0 67 -12.5t51.5 -39.5t28.5 -69.5t-1 -101.5l-50 -315h-197l47 297q13 83 -54 83q-76 0 -91 -94l-45 -286h-197zM421 581q-22 0 -39 5t-30.5 11t-25 11t-23.5 5t-20.5 -8
t-12.5 -22h-103q13 84 48 123t84 39q21 0 37.5 -5t31 -11t27 -11t25.5 -5q24 0 32 31h104q-14 -85 -51 -124t-84 -39z" />
    <glyph glyph-name="ograve" unicode="&#xf2;" horiz-adv-x="620" 
d="M294 -13q-53 0 -102 14t-87 43.5t-60.5 75t-22.5 107.5q0 67 22 124t62.5 98t97 64.5t124.5 23.5q53 0 102 -14.5t87 -44t60.5 -75.5t22.5 -109q0 -68 -22.5 -124.5t-63 -97t-96.5 -63t-124 -22.5zM297 132q27 0 47 13t32.5 36t19 54.5t6.5 67.5q0 37 -18 63t-59 26
q-27 0 -47 -12.5t-33.5 -35t-20 -52.5t-6.5 -66q0 -17 3.5 -34t12.5 -30.5t24.5 -21.5t38.5 -8zM181 747h192l38 -169h-137z" />
    <glyph glyph-name="oacute" unicode="&#xf3;" horiz-adv-x="620" 
d="M294 -13q-53 0 -102 14t-87 43.5t-60.5 75t-22.5 107.5q0 67 22 124t62.5 98t97 64.5t124.5 23.5q53 0 102 -14.5t87 -44t60.5 -75.5t22.5 -109q0 -68 -22.5 -124.5t-63 -97t-96.5 -63t-124 -22.5zM297 132q27 0 47 13t32.5 36t19 54.5t6.5 67.5q0 37 -18 63t-59 26
q-27 0 -47 -12.5t-33.5 -35t-20 -52.5t-6.5 -66q0 -17 3.5 -34t12.5 -30.5t24.5 -21.5t38.5 -8zM332 747h194l-125 -169h-142z" />
    <glyph glyph-name="ocircumflex" unicode="&#xf4;" horiz-adv-x="620" 
d="M294 -13q-53 0 -102 14t-87 43.5t-60.5 75t-22.5 107.5q0 67 22 124t62.5 98t97 64.5t124.5 23.5q53 0 102 -14.5t87 -44t60.5 -75.5t22.5 -109q0 -68 -22.5 -124.5t-63 -97t-96.5 -63t-124 -22.5zM297 132q27 0 47 13t32.5 36t19 54.5t6.5 67.5q0 37 -18 63t-59 26
q-27 0 -47 -12.5t-33.5 -35t-20 -52.5t-6.5 -66q0 -17 3.5 -34t12.5 -30.5t24.5 -21.5t38.5 -8zM293 746h137l99 -166h-132l-49 53l-63 -53h-139z" />
    <glyph glyph-name="otilde" unicode="&#xf5;" horiz-adv-x="620" 
d="M294 -13q-53 0 -102 14t-87 43.5t-60.5 75t-22.5 107.5q0 67 22 124t62.5 98t97 64.5t124.5 23.5q53 0 102 -14.5t87 -44t60.5 -75.5t22.5 -109q0 -68 -22.5 -124.5t-63 -97t-96.5 -63t-124 -22.5zM297 132q27 0 47 13t32.5 36t19 54.5t6.5 67.5q0 37 -18 63t-59 26
q-27 0 -47 -12.5t-33.5 -35t-20 -52.5t-6.5 -66q0 -17 3.5 -34t12.5 -30.5t24.5 -21.5t38.5 -8zM410 581q-22 0 -39 5t-30.5 11t-25 11t-23.5 5t-20.5 -8t-12.5 -22h-103q13 84 48 123t84 39q21 0 37.5 -5t31 -11t27 -11t25.5 -5q24 0 32 31h104q-14 -85 -51 -124t-84 -39z
" />
    <glyph glyph-name="odieresis" unicode="&#xf6;" horiz-adv-x="620" 
d="M294 -13q-53 0 -102 14t-87 43.5t-60.5 75t-22.5 107.5q0 67 22 124t62.5 98t97 64.5t124.5 23.5q53 0 102 -14.5t87 -44t60.5 -75.5t22.5 -109q0 -68 -22.5 -124.5t-63 -97t-96.5 -63t-124 -22.5zM297 132q27 0 47 13t32.5 36t19 54.5t6.5 67.5q0 37 -18 63t-59 26
q-27 0 -47 -12.5t-33.5 -35t-20 -52.5t-6.5 -66q0 -17 3.5 -34t12.5 -30.5t24.5 -21.5t38.5 -8zM242 570q-19 0 -35.5 7t-29 19t-19.5 28t-7 35q0 18 7 34.5t19.5 28.5t29.5 19t36 7q38 0 64.5 -26t26.5 -63q0 -18 -7 -34.5t-19.5 -28.5t-29.5 -19t-36 -7zM459 570
q-19 0 -35.5 7t-28.5 19t-19 28t-7 35q0 37 26 63t64 26q39 0 65.5 -26t26.5 -63t-26.5 -63t-65.5 -26z" />
    <glyph glyph-name="divide" unicode="&#xf7;" horiz-adv-x="582" 
d="M59 407h507l-21 -134h-507zM277 34q-43 0 -71 28t-28 70q0 41 28 69t71 28q44 0 73 -28t29 -69q0 -42 -28.5 -70t-73.5 -28zM325 450q-43 0 -71 28t-28 69t28 69.5t71 28.5q44 0 73 -28.5t29 -69.5t-28.5 -69t-73.5 -28z" />
    <glyph glyph-name="oslash" unicode="&#xf8;" horiz-adv-x="620" 
d="M12 7l64 66q-25 29 -39.5 67.5t-14.5 88.5q0 67 22 123.5t62.5 97.5t97 64.5t124.5 23.5q44 0 85 -10t76 -31l66 67l48 -46l-62 -63q27 -30 43 -70t16 -92q0 -69 -22.5 -125t-63 -96.5t-96.5 -62.5t-124 -22q-46 0 -89 10.5t-78 32.5l-67 -69zM298 129q28 0 49 13
t35 36.5t21 55t7 67.5q0 5 -0.5 9t-0.5 9l-169 -173q20 -17 58 -17zM210 228v-9t1 -8l165 169q-20 14 -50 14q-57 0 -86.5 -46.5t-29.5 -119.5z" />
    <glyph glyph-name="ugrave" unicode="&#xf9;" horiz-adv-x="627" 
d="M561 164q-8 -52 -11.5 -91.5t-1.5 -72.5h-192q-2 17 -2 39.5t2 44.5q-29 -42 -69.5 -69.5t-100.5 -27.5q-39 0 -71.5 12.5t-53.5 39t-29 68.5t1 101l50 315h197l-49 -308q-12 -83 52 -83q76 0 91 94l47 297h196zM193 747h192l38 -169h-137z" />
    <glyph glyph-name="uacute" unicode="&#xfa;" horiz-adv-x="627" 
d="M561 164q-8 -52 -11.5 -91.5t-1.5 -72.5h-192q-2 17 -2 39.5t2 44.5q-29 -42 -69.5 -69.5t-100.5 -27.5q-39 0 -71.5 12.5t-53.5 39t-29 68.5t1 101l50 315h197l-49 -308q-12 -83 52 -83q76 0 91 94l47 297h196zM355 747h194l-125 -169h-142z" />
    <glyph glyph-name="ucircumflex" unicode="&#xfb;" horiz-adv-x="627" 
d="M561 164q-8 -52 -11.5 -91.5t-1.5 -72.5h-192q-2 17 -2 39.5t2 44.5q-29 -42 -69.5 -69.5t-100.5 -27.5q-39 0 -71.5 12.5t-53.5 39t-29 68.5t1 101l50 315h197l-49 -308q-12 -83 52 -83q76 0 91 94l47 297h196zM304 746h137l99 -166h-132l-49 53l-63 -53h-139z" />
    <glyph glyph-name="udieresis" unicode="&#xfc;" horiz-adv-x="627" 
d="M561 164q-8 -52 -11.5 -91.5t-1.5 -72.5h-192q-2 17 -2 39.5t2 44.5q-29 -42 -69.5 -69.5t-100.5 -27.5q-39 0 -71.5 12.5t-53.5 39t-29 68.5t1 101l50 315h197l-49 -308q-12 -83 52 -83q76 0 91 94l47 297h196zM251 570q-19 0 -35.5 7t-29 19t-19.5 28t-7 35
q0 18 7 34.5t19.5 28.5t29.5 19t36 7q38 0 64.5 -26t26.5 -63q0 -18 -7 -34.5t-19.5 -28.5t-29.5 -19t-36 -7zM468 570q-19 0 -35.5 7t-28.5 19t-19 28t-7 35q0 37 26 63t64 26q39 0 65.5 -26t26.5 -63t-26.5 -63t-65.5 -26z" />
    <glyph glyph-name="yacute" unicode="&#xfd;" horiz-adv-x="590" 
d="M172 59l-128 464h204l54 -263l130 263h195l-385 -697h-196zM346 747h194l-125 -169h-142z" />
    <glyph glyph-name="thorn" unicode="&#xfe;" horiz-adv-x="647" 
d="M123 750h197l-48 -308q26 43 69.5 69t104.5 26q37 0 70 -14t57.5 -42t38.5 -70.5t14 -98.5q0 -77 -19 -137.5t-52.5 -102t-79.5 -63.5t-100 -22q-60 0 -102.5 27t-56.5 71l-42 -259h-197zM316 135q48 0 78 44.5t30 118.5q0 46 -19.5 70.5t-56.5 24.5q-25 0 -45.5 -12.5
t-35.5 -34t-23 -51.5t-8 -65q0 -46 20.5 -70.5t59.5 -24.5z" />
    <glyph glyph-name="ydieresis" unicode="&#xff;" horiz-adv-x="590" 
d="M172 59l-128 464h204l54 -263l130 263h195l-385 -697h-196zM247 570q-19 0 -35.5 7t-29 19t-19.5 28t-7 35q0 18 7 34.5t19.5 28.5t29.5 19t36 7q38 0 64.5 -26t26.5 -63q0 -18 -7 -34.5t-19.5 -28.5t-29.5 -19t-36 -7zM464 570q-19 0 -35.5 7t-28.5 19t-19 28t-7 35
q0 37 26 63t64 26q39 0 65.5 -26t26.5 -63t-26.5 -63t-65.5 -26z" />
    <glyph glyph-name="Amacron" unicode="&#x100;" horiz-adv-x="755" 
d="M457 119h-225l-51 -119h-217l339 715h292l111 -715h-235zM299 273h141l-29 259zM305 884h332l-18 -115h-332z" />
    <glyph glyph-name="amacron" unicode="&#x101;" horiz-adv-x="584" 
d="M168 -13q-35 0 -65 9.5t-52 28t-35 45.5t-13 62q0 52 19 87t55 56.5t87.5 31t117.5 9.5h72l2 12q5 32 -4.5 52.5t-48.5 20.5q-33 0 -47.5 -17t-19.5 -39h-184q20 97 86.5 145t173.5 48q134 0 194 -57.5t41 -177.5l-22 -139q-8 -51 -10.5 -91t2.5 -73h-191
q-3 16 -3.5 32.5t0.5 32.5q-22 -31 -58.5 -54.5t-96.5 -23.5zM251 117q32 0 54.5 18.5t27.5 47.5l5 27h-51q-48 0 -68 -11.5t-20 -38.5q0 -18 13 -30.5t39 -12.5zM190 712h316l-17 -107h-316z" />
    <glyph glyph-name="Abreve" unicode="&#x102;" horiz-adv-x="755" 
d="M457 119h-225l-51 -119h-217l339 715h292l111 -715h-235zM299 273h141l-29 259zM459 749q-82 0 -124 42.5t-43 114.5h124q2 -20 12.5 -31t32.5 -11q41 0 49 42h125q-11 -76 -58 -116.5t-118 -40.5z" />
    <glyph glyph-name="abreve" unicode="&#x103;" horiz-adv-x="584" 
d="M168 -13q-35 0 -65 9.5t-52 28t-35 45.5t-13 62q0 52 19 87t55 56.5t87.5 31t117.5 9.5h72l2 12q5 32 -4.5 52.5t-48.5 20.5q-33 0 -47.5 -17t-19.5 -39h-184q20 97 86.5 145t173.5 48q134 0 194 -57.5t41 -177.5l-22 -139q-8 -51 -10.5 -91t2.5 -73h-191
q-3 16 -3.5 32.5t0.5 32.5q-22 -31 -58.5 -54.5t-96.5 -23.5zM251 117q32 0 54.5 18.5t27.5 47.5l5 27h-51q-48 0 -68 -11.5t-20 -38.5q0 -18 13 -30.5t39 -12.5zM342 582q-78 0 -122.5 42.5t-41.5 120.5h118q3 -45 48 -45q46 0 52 45h120q-11 -80 -56.5 -121.5
t-117.5 -41.5z" />
    <glyph glyph-name="Aogonek" unicode="&#x104;" horiz-adv-x="755" 
d="M457 119h-225l-51 -119h-217l339 715h292l110 -704q-27 -18 -44.5 -36t-17.5 -38q0 -22 28 -22q14 0 25 3l-14 -85q-13 -5 -32.5 -10t-48.5 -5q-22 0 -42.5 4t-36.5 13t-26 24t-10 38q0 20 9 36.5t23 29.5t31.5 22t34.5 15h-113zM299 273h141l-29 259z" />
    <glyph glyph-name="aogonek" unicode="&#x105;" horiz-adv-x="584" 
d="M425 -182q-22 0 -42.5 4t-36.5 13t-26 24t-10 38q0 20 9 36.5t23 29.5t31 22t34 15h-81q-3 16 -3.5 32.5t0.5 32.5q-22 -31 -58.5 -54.5t-96.5 -23.5q-35 0 -65 9.5t-52 28t-35 45.5t-13 62q0 52 19 87t55 56.5t87.5 31t117.5 9.5h72l2 12q5 32 -4.5 52.5t-48.5 20.5
q-33 0 -47.5 -17t-19.5 -39h-184q20 97 86.5 145t173.5 48q134 0 194 -57.5t41 -177.5l-22 -139q-8 -50 -10.5 -87.5t1.5 -70.5q-17 -14 -32.5 -31.5t-15.5 -37.5q0 -22 27 -22q16 0 25 4l-14 -86q-13 -6 -32.5 -10.5t-48.5 -4.5zM251 117q32 0 54.5 18.5t27.5 47.5l5 27
h-51q-48 0 -68 -11.5t-20 -38.5q0 -18 13 -30.5t39 -12.5z" />
    <glyph glyph-name="Cacute" unicode="&#x106;" horiz-adv-x="768" 
d="M394 -13q-80 0 -145.5 20t-112 59.5t-71.5 98.5t-25 137q0 93 27.5 170.5t79 134t126.5 88t170 31.5q73 0 131.5 -17.5t100 -52.5t65 -88t26.5 -124h-228q-5 51 -28 78t-73 27q-40 0 -70 -19t-50 -51.5t-30 -75.5t-10 -91q0 -30 6 -57t20 -46.5t37 -31t56 -11.5
q48 0 81 26.5t47 81.5h225q-11 -72 -42.5 -126t-79 -89.5t-107 -53.5t-126.5 -18zM427 906h201l-115 -149h-150z" />
    <glyph glyph-name="cacute" unicode="&#x107;" horiz-adv-x="584" 
d="M291 -12q-57 0 -106.5 15t-86 45t-57 75t-20.5 105q0 70 21.5 127t61 97.5t94.5 62.5t121 22q52 0 97.5 -12.5t79 -39.5t53 -68.5t21.5 -99.5h-184q-6 69 -71 69q-27 0 -45.5 -13.5t-30 -36t-16.5 -51t-5 -59.5q0 -44 18 -70.5t62 -26.5q34 0 56 20t30 60h176
q-13 -107 -82 -164t-187 -57zM321 747h194l-125 -169h-142z" />
    <glyph glyph-name="Ccircumflex" unicode="&#x108;" horiz-adv-x="768" 
d="M394 -13q-80 0 -145.5 20t-112 59.5t-71.5 98.5t-25 137q0 93 27.5 170.5t79 134t126.5 88t170 31.5q73 0 131.5 -17.5t100 -52.5t65 -88t26.5 -124h-228q-5 51 -28 78t-73 27q-40 0 -70 -19t-50 -51.5t-30 -75.5t-10 -91q0 -30 6 -57t20 -46.5t37 -31t56 -11.5
q48 0 81 26.5t47 81.5h225q-11 -72 -42.5 -126t-79 -89.5t-107 -53.5t-126.5 -18zM386 906h164l93 -149h-137l-48 47l-60 -47h-144z" />
    <glyph glyph-name="ccircumflex" unicode="&#x109;" horiz-adv-x="584" 
d="M291 -12q-57 0 -106.5 15t-86 45t-57 75t-20.5 105q0 70 21.5 127t61 97.5t94.5 62.5t121 22q52 0 97.5 -12.5t79 -39.5t53 -68.5t21.5 -99.5h-184q-6 69 -71 69q-27 0 -45.5 -13.5t-30 -36t-16.5 -51t-5 -59.5q0 -44 18 -70.5t62 -26.5q34 0 56 20t30 60h176
q-13 -107 -82 -164t-187 -57zM279 746h137l99 -166h-132l-49 53l-63 -53h-139z" />
    <glyph glyph-name="Cdotaccent" unicode="&#x10a;" horiz-adv-x="768" 
d="M394 -13q-80 0 -145.5 20t-112 59.5t-71.5 98.5t-25 137q0 93 27.5 170.5t79 134t126.5 88t170 31.5q73 0 131.5 -17.5t100 -52.5t65 -88t26.5 -124h-228q-5 51 -28 78t-73 27q-40 0 -70 -19t-50 -51.5t-30 -75.5t-10 -91q0 -30 6 -57t20 -46.5t37 -31t56 -11.5
q48 0 81 26.5t47 81.5h225q-11 -72 -42.5 -126t-79 -89.5t-107 -53.5t-126.5 -18zM455 752q-45 0 -74 26.5t-29 67.5q0 42 29.5 69t73.5 27t73.5 -26.5t29.5 -68.5t-29.5 -68.5t-73.5 -26.5z" />
    <glyph glyph-name="cdotaccent" unicode="&#x10b;" horiz-adv-x="584" 
d="M291 -12q-57 0 -106.5 15t-86 45t-57 75t-20.5 105q0 70 21.5 127t61 97.5t94.5 62.5t121 22q52 0 97.5 -12.5t79 -39.5t53 -68.5t21.5 -99.5h-184q-6 69 -71 69q-27 0 -45.5 -13.5t-30 -36t-16.5 -51t-5 -59.5q0 -44 18 -70.5t62 -26.5q34 0 56 20t30 60h176
q-13 -107 -82 -164t-187 -57zM334 569q-45 0 -74 26t-29 68t29.5 69t73.5 27t73.5 -26.5t29.5 -68.5t-29.5 -68.5t-73.5 -26.5z" />
    <glyph glyph-name="Ccaron" unicode="&#x10c;" horiz-adv-x="768" 
d="M394 -13q-80 0 -145.5 20t-112 59.5t-71.5 98.5t-25 137q0 93 27.5 170.5t79 134t126.5 88t170 31.5q73 0 131.5 -17.5t100 -52.5t65 -88t26.5 -124h-228q-5 51 -28 78t-73 27q-40 0 -70 -19t-50 -51.5t-30 -75.5t-10 -91q0 -30 6 -57t20 -46.5t37 -31t56 -11.5
q48 0 81 26.5t47 81.5h225q-11 -72 -42.5 -126t-79 -89.5t-107 -53.5t-126.5 -18zM528 757h-164l-92 149h137l48 -47l59 47h145z" />
    <glyph glyph-name="ccaron" unicode="&#x10d;" horiz-adv-x="584" 
d="M291 -12q-57 0 -106.5 15t-86 45t-57 75t-20.5 105q0 70 21.5 127t61 97.5t94.5 62.5t121 22q52 0 97.5 -12.5t79 -39.5t53 -68.5t21.5 -99.5h-184q-6 69 -71 69q-27 0 -45.5 -13.5t-30 -36t-16.5 -51t-5 -59.5q0 -44 18 -70.5t62 -26.5q34 0 56 20t30 60h176
q-13 -107 -82 -164t-187 -57zM389 580h-138l-98 166h131l49 -52l63 52h139z" />
    <glyph glyph-name="Dcaron" unicode="&#x10e;" horiz-adv-x="757" 
d="M136 715h242q184 0 276.5 -80t92.5 -224q0 -101 -30.5 -177.5t-86 -128.5t-132 -78.5t-169.5 -26.5h-306zM330 172q89 0 135.5 59t46.5 170q0 142 -139 142h-37l-59 -371h53zM491 757h-164l-92 149h137l48 -47l59 47h145z" />
    <glyph glyph-name="dcaron" unicode="&#x10f;" horiz-adv-x="645" 
d="M206 -13q-41 0 -75.5 14t-59.5 42.5t-39 71t-14 99.5q0 77 20 137.5t54.5 102t82 63t103.5 21.5q57 0 96 -23t56 -65l47 299h198l-93 -585q-8 -52 -11 -91.5t0 -72.5h-194q-4 17 -4 38t1 43q-29 -47 -69 -70.5t-99 -23.5zM297 133q24 0 44.5 12.5t35.5 34t23 52t8 66.5
q0 46 -20.5 70.5t-58.5 24.5q-48 0 -78.5 -44.5t-30.5 -118.5q0 -46 19.5 -71.5t57.5 -25.5zM716 750h139l-75 -175h-99z" />
    <glyph glyph-name="Dcroat" unicode="&#x110;" horiz-adv-x="775" 
d="M55 435h55l44 280h242q184 0 276.5 -80t92.5 -224q0 -101 -30.5 -177.5t-85.5 -128.5t-132 -78.5t-170 -26.5h-306l45 284h-55zM349 172q88 0 135 59t47 170q0 142 -139 142h-42l-17 -108h103l-23 -151h-104l-18 -112h58z" />
    <glyph glyph-name="dcroat" unicode="&#x111;" horiz-adv-x="645" 
d="M316 684h150l11 65h198l-11 -65h53l-16 -102h-53l-66 -418q-8 -52 -11 -91.5t0 -72.5h-194q-4 17 -4 38t1 43q-29 -47 -69 -70.5t-99 -23.5q-41 0 -75.5 14t-59.5 42.5t-39 71t-14 99.5q0 77 20 137.5t54.5 102t82 63t103.5 21.5q57 0 96 -23t56 -65l20 132h-150z
M329 393q-48 0 -78.5 -44.5t-30.5 -118.5q0 -46 19.5 -71.5t57.5 -25.5q24 0 44.5 12.5t35.5 34t23 52t8 66.5q0 46 -20.5 70.5t-58.5 24.5z" />
    <glyph glyph-name="Emacron" unicode="&#x112;" horiz-adv-x="621" 
d="M136 715h507l-27 -174h-282l-16 -101h224l-24 -158h-224l-18 -108h298l-27 -174h-524zM245 884h332l-18 -115h-332z" />
    <glyph glyph-name="emacron" unicode="&#x113;" horiz-adv-x="602" 
d="M213 217q0 -20 4.5 -38t15 -31.5t27.5 -21t42 -7.5q37 0 56.5 16t27.5 42h185q-19 -93 -91.5 -141.5t-182.5 -48.5q-57 0 -107.5 14t-88 43.5t-59 74.5t-21.5 108q0 70 23 127.5t63.5 98t96 63t121.5 22.5t117.5 -20t84.5 -58.5t46.5 -93.5t2.5 -125l-3 -23h-360v-1z
M324 412q-31 0 -58 -20.5t-41 -70.5h170q4 40 -12 65.5t-59 25.5zM200 712h316l-17 -107h-316z" />
    <glyph glyph-name="Ebreve" unicode="&#x114;" horiz-adv-x="621" 
d="M136 715h507l-27 -174h-282l-16 -101h224l-24 -158h-224l-18 -108h298l-27 -174h-524zM399 749q-82 0 -124 42.5t-43 114.5h124q2 -20 12.5 -31t32.5 -11q41 0 49 42h125q-11 -76 -58 -116.5t-118 -40.5z" />
    <glyph glyph-name="ebreve" unicode="&#x115;" horiz-adv-x="602" 
d="M213 217q0 -20 4.5 -38t15 -31.5t27.5 -21t42 -7.5q37 0 56.5 16t27.5 42h185q-19 -93 -91.5 -141.5t-182.5 -48.5q-57 0 -107.5 14t-88 43.5t-59 74.5t-21.5 108q0 70 23 127.5t63.5 98t96 63t121.5 22.5t117.5 -20t84.5 -58.5t46.5 -93.5t2.5 -125l-3 -23h-360v-1z
M324 412q-31 0 -58 -20.5t-41 -70.5h170q4 40 -12 65.5t-59 25.5zM345 581q-78 0 -122.5 42.5t-41.5 120.5h118q3 -45 48 -45q46 0 52 45h120q-11 -80 -56.5 -121.5t-117.5 -41.5z" />
    <glyph glyph-name="Edotaccent" unicode="&#x116;" horiz-adv-x="621" 
d="M136 715h507l-27 -174h-282l-16 -101h224l-24 -158h-224l-18 -108h298l-27 -174h-524zM396 752q-45 0 -74 26.5t-29 67.5q0 42 29.5 69t73.5 27t73.5 -26.5t29.5 -68.5t-29.5 -68.5t-73.5 -26.5z" />
    <glyph glyph-name="edotaccent" unicode="&#x117;" horiz-adv-x="602" 
d="M213 217q0 -20 4.5 -38t15 -31.5t27.5 -21t42 -7.5q37 0 56.5 16t27.5 42h185q-19 -93 -91.5 -141.5t-182.5 -48.5q-57 0 -107.5 14t-88 43.5t-59 74.5t-21.5 108q0 70 23 127.5t63.5 98t96 63t121.5 22.5t117.5 -20t84.5 -58.5t46.5 -93.5t2.5 -125l-3 -23h-360v-1z
M324 412q-31 0 -58 -20.5t-41 -70.5h170q4 40 -12 65.5t-59 25.5zM341 569q-45 0 -74 26t-29 68t29.5 69t73.5 27t73.5 -26.5t29.5 -68.5t-29.5 -68.5t-73.5 -26.5z" />
    <glyph glyph-name="Eogonek" unicode="&#x118;" horiz-adv-x="621" 
d="M136 715h507l-27 -174h-282l-16 -101h224l-24 -158h-224l-18 -108h298l-27 -174h-38q-14 -11 -30.5 -27t-16.5 -36q0 -22 27 -22q14 0 25 3l-14 -85q-13 -5 -32.5 -10t-47.5 -5q-22 0 -43 3.5t-37 12.5t-26 24t-10 38q0 20 9 36.5t23 29.5t31 22.5t34 15.5h-378z" />
    <glyph glyph-name="eogonek" unicode="&#x119;" horiz-adv-x="602" 
d="M297 -13q-57 0 -107.5 14t-88 43.5t-59 74.5t-21.5 108q0 70 23 127.5t63.5 98t96.5 63t121 22.5q66 0 117.5 -20t84.5 -58.5t46.5 -93.5t2.5 -125l-3 -23h-360v-1q0 -20 4.5 -38t15 -31.5t27.5 -21t42 -7.5q37 0 56.5 16t27.5 42h185q-9 -44 -29 -76.5t-54 -59.5
q-12 -10 -29.5 -21t-34 -24t-28.5 -28t-12 -31q0 -22 28 -22q16 0 25 4l-14 -86q-13 -6 -32.5 -10.5t-48.5 -4.5q-22 0 -42.5 3.5t-36.5 12.5t-26 23.5t-10 35.5q0 19 7.5 34t19.5 26t27 19.5t30 14.5h-14zM324 412q-31 0 -58 -20.5t-41 -70.5h170q4 40 -12 65.5t-59 25.5z
" />
    <glyph glyph-name="Ecaron" unicode="&#x11a;" horiz-adv-x="621" 
d="M136 715h507l-27 -174h-282l-16 -101h224l-24 -158h-224l-18 -108h298l-27 -174h-524zM468 757h-164l-92 149h137l48 -47l59 47h145z" />
    <glyph glyph-name="ecaron" unicode="&#x11b;" horiz-adv-x="602" 
d="M213 217q0 -20 4.5 -38t15 -31.5t27.5 -21t42 -7.5q37 0 56.5 16t27.5 42h185q-19 -93 -91.5 -141.5t-182.5 -48.5q-57 0 -107.5 14t-88 43.5t-59 74.5t-21.5 108q0 70 23 127.5t63.5 98t96 63t121.5 22.5t117.5 -20t84.5 -58.5t46.5 -93.5t2.5 -125l-3 -23h-360v-1z
M324 412q-31 0 -58 -20.5t-41 -70.5h170q4 40 -12 65.5t-59 25.5zM398 580h-138l-98 166h131l49 -52l63 52h139z" />
    <glyph glyph-name="Gcircumflex" unicode="&#x11c;" horiz-adv-x="791" 
d="M401 -13q-81 0 -148 20.5t-114 60.5t-73 99.5t-26 138.5q0 91 30.5 168t85 133t130 87t165.5 31q64 0 122 -15t102 -47t71.5 -83t30.5 -124h-225q-4 45 -29.5 68t-80.5 23q-41 0 -72.5 -20t-52.5 -53t-31.5 -76t-10.5 -90q0 -70 32.5 -109.5t102.5 -39.5q62 0 91.5 26.5
t38.5 64.5h-120l24 149h341q-6 -104 -31.5 -181.5t-72 -128.5t-116 -76.5t-164.5 -25.5zM382 906h164l93 -149h-137l-48 47l-60 -47h-144z" />
    <glyph glyph-name="gcircumflex" unicode="&#x11d;" horiz-adv-x="643" 
d="M298 168q26 0 46.5 11t34.5 30t21 45t7 55q-1 38 -21 62t-56 24q-27 0 -46.5 -11.5t-32.5 -30.5t-19.5 -43.5t-6.5 -49.5q0 -41 18 -66.5t55 -25.5zM558 31q-9 -57 -29.5 -99.5t-56 -70.5t-86.5 -41.5t-121 -13.5q-73 0 -125.5 15.5t-86 42.5t-50 63t-18.5 77h195
q1 -11 6 -22t14.5 -20t24.5 -14.5t37 -5.5q52 0 73 25.5t26 63.5l14 82q-25 -39 -63.5 -60.5t-95.5 -21.5q-41 0 -76.5 13.5t-61.5 40.5t-41 67.5t-15 94.5q0 65 19 118.5t53 92t80.5 59.5t101.5 21q60 0 97 -23.5t54 -64.5l12 73h197zM311 746h137l99 -166h-132l-49 53
l-63 -53h-139z" />
    <glyph glyph-name="Gbreve" unicode="&#x11e;" horiz-adv-x="791" 
d="M401 -13q-81 0 -148 20.5t-114 60.5t-73 99.5t-26 138.5q0 91 30.5 168t85 133t130 87t165.5 31q64 0 122 -15t102 -47t71.5 -83t30.5 -124h-225q-4 45 -29.5 68t-80.5 23q-41 0 -72.5 -20t-52.5 -53t-31.5 -76t-10.5 -90q0 -70 32.5 -109.5t102.5 -39.5q62 0 91.5 26.5
t38.5 64.5h-120l24 149h341q-6 -104 -31.5 -181.5t-72 -128.5t-116 -76.5t-164.5 -25.5zM454 749q-82 0 -124 42.5t-43 114.5h124q2 -20 12.5 -31t32.5 -11q41 0 49 42h125q-11 -76 -58 -116.5t-118 -40.5z" />
    <glyph glyph-name="gbreve" unicode="&#x11f;" horiz-adv-x="643" 
d="M298 168q26 0 46.5 11t34.5 30t21 45t7 55q-1 38 -21 62t-56 24q-27 0 -46.5 -11.5t-32.5 -30.5t-19.5 -43.5t-6.5 -49.5q0 -41 18 -66.5t55 -25.5zM558 31q-9 -57 -29.5 -99.5t-56 -70.5t-86.5 -41.5t-121 -13.5q-73 0 -125.5 15.5t-86 42.5t-50 63t-18.5 77h195
q1 -11 6 -22t14.5 -20t24.5 -14.5t37 -5.5q52 0 73 25.5t26 63.5l14 82q-25 -39 -63.5 -60.5t-95.5 -21.5q-41 0 -76.5 13.5t-61.5 40.5t-41 67.5t-15 94.5q0 65 19 118.5t53 92t80.5 59.5t101.5 21q60 0 97 -23.5t54 -64.5l12 73h197zM363 581q-78 0 -122.5 42.5
t-41.5 120.5h118q3 -45 48 -45q46 0 52 45h120q-11 -80 -56.5 -121.5t-117.5 -41.5z" />
    <glyph glyph-name="Gdotaccent" unicode="&#x120;" horiz-adv-x="791" 
d="M401 -13q-81 0 -148 20.5t-114 60.5t-73 99.5t-26 138.5q0 91 30.5 168t85 133t130 87t165.5 31q64 0 122 -15t102 -47t71.5 -83t30.5 -124h-225q-4 45 -29.5 68t-80.5 23q-41 0 -72.5 -20t-52.5 -53t-31.5 -76t-10.5 -90q0 -70 32.5 -109.5t102.5 -39.5q62 0 91.5 26.5
t38.5 64.5h-120l24 149h341q-6 -104 -31.5 -181.5t-72 -128.5t-116 -76.5t-164.5 -25.5zM451 752q-45 0 -74 26.5t-29 67.5q0 42 29.5 69t73.5 27t73.5 -26.5t29.5 -68.5t-29.5 -68.5t-73.5 -26.5z" />
    <glyph glyph-name="gdotaccent" unicode="&#x121;" horiz-adv-x="643" 
d="M298 168q26 0 46.5 11t34.5 30t21 45t7 55q-1 38 -21 62t-56 24q-27 0 -46.5 -11.5t-32.5 -30.5t-19.5 -43.5t-6.5 -49.5q0 -41 18 -66.5t55 -25.5zM558 31q-9 -57 -29.5 -99.5t-56 -70.5t-86.5 -41.5t-121 -13.5q-73 0 -125.5 15.5t-86 42.5t-50 63t-18.5 77h195
q1 -11 6 -22t14.5 -20t24.5 -14.5t37 -5.5q52 0 73 25.5t26 63.5l14 82q-25 -39 -63.5 -60.5t-95.5 -21.5q-41 0 -76.5 13.5t-61.5 40.5t-41 67.5t-15 94.5q0 65 19 118.5t53 92t80.5 59.5t101.5 21q60 0 97 -23.5t54 -64.5l12 73h197zM356 569q-45 0 -74 26t-29 68t29.5 69
t73.5 27t73.5 -26.5t29.5 -68.5t-29.5 -68.5t-73.5 -26.5z" />
    <glyph glyph-name="uni0122" unicode="&#x122;" horiz-adv-x="791" 
d="M401 -13q-81 0 -148 20.5t-114 60.5t-73 99.5t-26 138.5q0 91 30.5 168t85 133t130 87t165.5 31q64 0 122 -15t102 -47t71.5 -83t30.5 -124h-225q-4 45 -29.5 68t-80.5 23q-41 0 -72.5 -20t-52.5 -53t-31.5 -76t-10.5 -90q0 -70 32.5 -109.5t102.5 -39.5q62 0 91.5 26.5
t38.5 64.5h-120l24 149h341q-6 -104 -31.5 -181.5t-72 -128.5t-116 -76.5t-164.5 -25.5zM228 -206l47 175l171 -12l-110 -190z" />
    <glyph glyph-name="uni0123" unicode="&#x123;" horiz-adv-x="643" 
d="M298 168q26 0 46.5 11t34.5 30t21 45t7 55q-1 38 -21 62t-56 24q-27 0 -46.5 -11.5t-32.5 -30.5t-19.5 -43.5t-6.5 -49.5q0 -41 18 -66.5t55 -25.5zM558 31q-9 -57 -29.5 -99.5t-56 -70.5t-86.5 -41.5t-121 -13.5q-73 0 -125.5 15.5t-86 42.5t-50 63t-18.5 77h195
q1 -11 6 -22t14.5 -20t24.5 -14.5t37 -5.5q52 0 73 25.5t26 63.5l14 82q-25 -39 -63.5 -60.5t-95.5 -21.5q-41 0 -76.5 13.5t-61.5 40.5t-41 67.5t-15 94.5q0 65 19 118.5t53 92t80.5 59.5t101.5 21q60 0 97 -23.5t54 -64.5l12 73h197zM480 740l-47 -175l-171 12l110 190z
" />
    <glyph glyph-name="Hcircumflex" unicode="&#x124;" horiz-adv-x="794" 
d="M136 715h227l-41 -264h209l42 264h227l-113 -715h-227l43 275h-210l-43 -275h-227zM404 906h164l93 -149h-137l-48 47l-60 -47h-144z" />
    <glyph glyph-name="hcircumflex" unicode="&#x125;" horiz-adv-x="627" 
d="M124 749h196l-49 -313q27 44 69 73t106 29q36 0 67 -12.5t51.5 -39.5t28.5 -69.5t-1 -101.5l-50 -315h-197l47 297q13 83 -54 83q-76 0 -91 -94l-45 -286h-197zM328 936h164l93 -149h-137l-48 47l-60 -47h-144z" />
    <glyph glyph-name="Hbar" unicode="&#x126;" horiz-adv-x="794" 
d="M64 627h58l14 88h227l-14 -88h210l14 88h227l-14 -88h58l-16 -101h-58l-83 -526h-227l43 275h-210l-43 -275h-227l83 526h-59zM531 451l12 75h-210l-11 -75h209z" />
    <glyph glyph-name="hbar" unicode="&#x127;" horiz-adv-x="627" 
d="M60 684h53l11 65h196l-10 -65h151l-16 -102h-151l-23 -146q27 44 69 73t106 29q36 0 67 -12.5t51.5 -39.5t28.5 -69.5t-1 -101.5l-50 -315h-197l47 297q13 83 -54 83q-76 0 -91 -94l-45 -286h-197l92 582h-53z" />
    <glyph glyph-name="Itilde" unicode="&#x128;" horiz-adv-x="366" 
d="M139 715h229l-113 -715h-229zM334 755q-22 0 -39 5t-31.5 11t-26 11t-23.5 5t-21.5 -8t-11.5 -22h-110q14 84 53 122t87 38q21 0 38 -5t31.5 -11t27.5 -11t26 -5q25 0 34 30h109q-8 -42 -22.5 -72t-33.5 -49.5t-41.5 -29t-45.5 -9.5z" />
    <glyph glyph-name="itilde" unicode="&#x129;" horiz-adv-x="303" 
d="M93 523h197l-83 -523h-196zM274 581q-22 0 -39 5t-30.5 11t-25 11t-23.5 5t-20.5 -8t-12.5 -22h-103q13 84 48 123t84 39q21 0 37.5 -5t31 -11t27 -11t25.5 -5q24 0 32 31h104q-14 -85 -51 -124t-84 -39z" />
    <glyph glyph-name="Imacron" unicode="&#x12a;" horiz-adv-x="366" 
d="M139 715h229l-113 -715h-229zM111 884h332l-18 -115h-332z" />
    <glyph glyph-name="imacron" unicode="&#x12b;" horiz-adv-x="303" 
d="M95 712h255l-17 -107h-255zM93 523h197l-83 -523h-196z" />
    <glyph glyph-name="Ibreve" unicode="&#x12c;" horiz-adv-x="366" 
d="M139 715h229l-113 -715h-229zM268 749q-82 0 -124 42.5t-43 114.5h124q2 -20 12.5 -31t32.5 -11q41 0 49 42h125q-11 -76 -58 -116.5t-118 -40.5z" />
    <glyph glyph-name="ibreve" unicode="&#x12d;" horiz-adv-x="303" 
d="M93 523h197l-83 -523h-196zM208 581q-78 0 -122.5 42.5t-41.5 120.5h118q3 -45 48 -45q46 0 52 45h120q-11 -80 -56.5 -121.5t-117.5 -41.5z" />
    <glyph glyph-name="Iogonek" unicode="&#x12e;" horiz-adv-x="366" 
d="M151 -182q-22 0 -42.5 4t-36.5 13t-26 24t-10 38q0 20 9 36.5t23.5 29.5t31.5 22t34 15h-108l113 715h229l-110 -700q-28 -20 -46.5 -39.5t-18.5 -38.5q0 -22 28 -22q14 0 25 3l-14 -85q-13 -5 -32.5 -10t-48.5 -5z" />
    <glyph glyph-name="iogonek" unicode="&#x12f;" horiz-adv-x="303" 
d="M93 523h197l-80 -508q-28 -20 -46 -39t-18 -39q0 -22 27 -22q14 0 25 3l-14 -85q-13 -5 -32.5 -10t-48.5 -5q-22 0 -42.5 4t-36.5 13t-26 24t-10 38q0 20 9 36.5t23.5 29.5t31.5 22t33 15h-74zM211 563q-46 0 -75 28t-29 70q0 43 29.5 70.5t75.5 27.5q45 0 74.5 -27.5
t29.5 -70.5q0 -21 -8 -39t-22.5 -31t-33.5 -20.5t-41 -7.5z" />
    <glyph glyph-name="Idotaccent" unicode="&#x130;" horiz-adv-x="366" 
d="M139 715h229l-113 -715h-229zM264 752q-45 0 -74 26.5t-29 67.5q0 42 29.5 69t73.5 27t73.5 -26.5t29.5 -68.5t-29.5 -68.5t-73.5 -26.5z" />
    <glyph glyph-name="dotlessi" unicode="&#x131;" horiz-adv-x="303" 
d="M93 523h197l-83 -523h-196z" />
    <glyph glyph-name="IJ" unicode="&#x132;" horiz-adv-x="830" 
d="M130 715h229l-113 -715h-229zM483 -9q-63 0 -100 10t-58 21l26 166q18 -6 40 -12t51 -6q36 0 61.5 18t32.5 64l74 463h227l-75 -472q-20 -130 -91.5 -191t-187.5 -61z" />
    <glyph glyph-name="ij" unicode="&#x133;" horiz-adv-x="303" 
d="M211 563q-46 0 -75 28t-29 70q0 43 29.5 70.5t75.5 27.5q45 0 74.5 -27.5t29.5 -70.5q0 -21 -8 -39t-22.5 -31t-33.5 -20.5t-41 -7.5zM93 523h197l-83 -523h-196zM245 -42q31 2 48 14t21 41l81 510h196l-84 -529q-6 -38 -22 -72t-48.5 -58t-84.5 -36.5t-129 -8.5z
M512 563q-45 0 -74 28t-29 70q0 43 29.5 70.5t74.5 27.5t74.5 -27.5t29.5 -70.5q0 -42 -30 -70t-75 -28z" />
    <glyph glyph-name="Jcircumflex" unicode="&#x134;" horiz-adv-x="489" 
d="M151 -9q-63 0 -100 10t-58 21l26 166q18 -6 40 -12t51 -6q36 0 61.5 18t32.5 64l74 463h227l-75 -472q-20 -130 -91.5 -191t-187.5 -61zM329 906h164l93 -149h-137l-48 47l-60 -47h-144z" />
    <glyph glyph-name="jcircumflex" unicode="&#x135;" horiz-adv-x="303" 
d="M-57 -42q31 2 48 14t21 41l81 510h196l-84 -529q-6 -38 -22 -72t-48.5 -58t-84.5 -36.5t-129 -8.5zM148 746h137l99 -166h-132l-49 53l-63 -53h-139z" />
    <glyph glyph-name="uni0136" unicode="&#x136;" horiz-adv-x="745" 
d="M136 715h227l-43 -273l246 273h243l-317 -342l204 -373h-245l-154 300l-47 -300h-227zM204 -206l47 175l171 -12l-110 -190z" />
    <glyph glyph-name="uni0137" unicode="&#x137;" horiz-adv-x="587" 
d="M123 750h197l-68 -431l161 204h211l-207 -242l129 -281h-210l-98 231l-36 -231h-197zM138 -206l47 175l171 -12l-110 -190z" />
    <glyph glyph-name="Lacute" unicode="&#x139;" horiz-adv-x="582" 
d="M136 715h227l-85 -540h260l-28 -175h-487zM231 906h201l-115 -149h-150z" />
    <glyph glyph-name="lacute" unicode="&#x13a;" horiz-adv-x="300" 
d="M129 750h195l-118 -750h-196zM211 936h201l-115 -149h-150z" />
    <glyph glyph-name="uni013B" unicode="&#x13b;" horiz-adv-x="582" 
d="M136 715h227l-85 -540h260l-28 -175h-487zM129 -206l47 175l171 -12l-110 -190z" />
    <glyph glyph-name="uni013C" unicode="&#x13c;" horiz-adv-x="300" 
d="M129 750h195l-118 -750h-196zM-29 -206l47 175l171 -12l-110 -190z" />
    <glyph glyph-name="Lcaron" unicode="&#x13d;" horiz-adv-x="582" 
d="M450 715h159l-90 -180h-112zM136 715h227l-85 -540h260l-28 -175h-487z" />
    <glyph glyph-name="lcaron" unicode="&#x13e;" horiz-adv-x="300" 
d="M129 750h195l-118 -750h-196zM367 750h139l-75 -175h-99z" />
    <glyph glyph-name="Ldot" unicode="&#x13f;" horiz-adv-x="613" 
d="M136 715h227l-85 -540h260l-28 -175h-487zM516 297q-24 0 -44 8.5t-34.5 22.5t-23 33.5t-8.5 42.5q0 22 8 42t22.5 34.5t34.5 23t44 8.5t44.5 -8.5t36 -23t24 -34.5t8.5 -42q0 -23 -8.5 -42.5t-23.5 -33.5t-35.5 -22.5t-44.5 -8.5z" />
    <glyph glyph-name="ldot" unicode="&#x140;" horiz-adv-x="478" 
d="M129 750h195l-118 -750h-196zM401 251q-24 0 -44 8.5t-34.5 22.5t-23 33.5t-8.5 42.5q0 22 8 42t22.5 34.5t34.5 23t44 8.5t44.5 -8.5t36 -23t24 -34.5t8.5 -42q0 -23 -8.5 -42.5t-23.5 -33.5t-35.5 -22.5t-44.5 -8.5z" />
    <glyph glyph-name="Lslash" unicode="&#x141;" 
d="M33 343l65 21l56 351h228l-44 -274l186 60l-20 -120l-185 -60l-23 -146h260l-27 -175h-488l38 244l-64 -21z" />
    <glyph glyph-name="lslash" unicode="&#x142;" horiz-adv-x="344" 
d="M34 379l62 26l54 345h196l-40 -255l66 28l-20 -126l-66 -29l-58 -368h-196l44 278l-62 -26z" />
    <glyph glyph-name="Nacute" unicode="&#x143;" horiz-adv-x="787" 
d="M136 715h255l141 -372l59 372h201l-113 -715h-217l-171 423l-66 -423h-202zM459 906h201l-115 -149h-150z" />
    <glyph glyph-name="nacute" unicode="&#x144;" horiz-adv-x="627" 
d="M60 349q9 57 13.5 97.5t6.5 76.5h192q0 -20 -1 -44.5t-4 -47.5q28 45 71.5 76t107.5 31q36 0 67 -12.5t51.5 -39.5t28.5 -69.5t-1 -101.5l-50 -315h-197l47 297q13 83 -54 83q-76 0 -91 -94l-45 -286h-197zM349 747h194l-125 -169h-142z" />
    <glyph glyph-name="uni0145" unicode="&#x145;" horiz-adv-x="787" 
d="M136 715h255l141 -372l59 372h201l-113 -715h-217l-171 423l-66 -423h-202zM215 -206l47 175l171 -12l-110 -190z" />
    <glyph glyph-name="uni0146" unicode="&#x146;" horiz-adv-x="626" 
d="M60 349q9 57 13.5 97.5t6.5 76.5h192q0 -20 -1 -44.5t-4 -47.5q28 45 71.5 76t107.5 31q36 0 67 -12.5t51.5 -39.5t28.5 -69.5t-1 -101.5l-50 -315h-197l47 297q13 83 -54 83q-76 0 -91 -94l-45 -286h-197zM139 -206l47 175l171 -12l-110 -190z" />
    <glyph glyph-name="Ncaron" unicode="&#x147;" horiz-adv-x="787" 
d="M136 715h255l141 -372l59 372h201l-113 -715h-217l-171 423l-66 -423h-202zM560 757h-164l-92 149h137l48 -47l59 47h145z" />
    <glyph glyph-name="ncaron" unicode="&#x148;" horiz-adv-x="627" 
d="M60 349q9 57 13.5 97.5t6.5 76.5h192q0 -20 -1 -44.5t-4 -47.5q28 45 71.5 76t107.5 31q36 0 67 -12.5t51.5 -39.5t28.5 -69.5t-1 -101.5l-50 -315h-197l47 297q13 83 -54 83q-76 0 -91 -94l-45 -286h-197zM415 580h-138l-98 166h131l49 -52l63 52h139z" />
    <glyph glyph-name="napostrophe" unicode="&#x149;" horiz-adv-x="766" 
d="M200 349q9 57 13.5 97.5t6.5 76.5h192q0 -20 -1 -44.5t-4 -47.5q28 45 71.5 76t107.5 31q36 0 67 -12.5t51.5 -39.5t28.5 -69.5t-1 -101.5l-50 -315h-197l47 297q13 83 -54 83q-76 0 -91 -94l-45 -286h-197zM2 458l100 270l168 -56l-161 -255z" />
    <glyph glyph-name="Eng" unicode="&#x14a;" horiz-adv-x="787" 
d="M377 -23q60 0 80 42l-163 408l-68 -427h-203l113 715h255l140 -373l59 373h202l-110 -697q-16 -97 -80 -153.5t-186 -56.5q-53 0 -85.5 7t-53.5 18l26 158q16 -6 32 -10t42 -4z" />
    <glyph glyph-name="eng" unicode="&#x14b;" horiz-adv-x="628" 
d="M60 349q9 57 13.5 97.5t6.5 76.5h192q0 -20 -1 -44.5t-4 -47.5q28 45 71.5 76t107.5 31q36 0 67 -12.5t51.5 -39.5t28.5 -69.5t-1 -101.5l-51 -321q-6 -38 -22 -72t-48 -58t-84 -37t-130 -9l21 140q31 2 48 14t22 41l44 284q13 83 -54 83q-76 0 -91 -94l-45 -286h-197z
" />
    <glyph glyph-name="Omacron" unicode="&#x14c;" horiz-adv-x="820" 
d="M810 410q0 -94 -30 -172t-85.5 -133.5t-133 -86.5t-172.5 -31q-71 0 -134.5 20t-111 60t-75.5 98t-28 135q0 94 30 172.5t85 134.5t130.5 87.5t167.5 31.5q73 0 138 -20t114 -59.5t77 -99t28 -137.5zM574 402q0 30 -7 56.5t-22.5 46.5t-40 31.5t-58.5 12.5q-43 0 -75 -20
t-53.5 -54t-32 -77.5t-10.5 -89.5q0 -63 31.5 -103t98.5 -40q43 0 75 20.5t53 53.5t31 75.5t10 87.5zM319 884h332l-18 -115h-332z" />
    <glyph glyph-name="omacron" unicode="&#x14d;" horiz-adv-x="620" 
d="M294 -13q-53 0 -102 14t-87 43.5t-60.5 75t-22.5 107.5q0 67 22 124t62.5 98t97 64.5t124.5 23.5q53 0 102 -14.5t87 -44t60.5 -75.5t22.5 -109q0 -68 -22.5 -124.5t-63 -97t-96.5 -63t-124 -22.5zM297 132q27 0 47 13t32.5 36t19 54.5t6.5 67.5q0 37 -18 63t-59 26
q-27 0 -47 -12.5t-33.5 -35t-20 -52.5t-6.5 -66q0 -17 3.5 -34t12.5 -30.5t24.5 -21.5t38.5 -8zM202 712h316l-17 -107h-316z" />
    <glyph glyph-name="Obreve" unicode="&#x14e;" horiz-adv-x="820" 
d="M810 410q0 -94 -30 -172t-85.5 -133.5t-133 -86.5t-172.5 -31q-71 0 -134.5 20t-111 60t-75.5 98t-28 135q0 94 30 172.5t85 134.5t130.5 87.5t167.5 31.5q73 0 138 -20t114 -59.5t77 -99t28 -137.5zM574 402q0 30 -7 56.5t-22.5 46.5t-40 31.5t-58.5 12.5q-43 0 -75 -20
t-53.5 -54t-32 -77.5t-10.5 -89.5q0 -63 31.5 -103t98.5 -40q43 0 75 20.5t53 53.5t31 75.5t10 87.5zM475 749q-82 0 -124 42.5t-43 114.5h124q2 -20 12.5 -31t32.5 -11q41 0 49 42h125q-11 -76 -58 -116.5t-118 -40.5z" />
    <glyph glyph-name="obreve" unicode="&#x14f;" horiz-adv-x="620" 
d="M294 -13q-53 0 -102 14t-87 43.5t-60.5 75t-22.5 107.5q0 67 22 124t62.5 98t97 64.5t124.5 23.5q53 0 102 -14.5t87 -44t60.5 -75.5t22.5 -109q0 -68 -22.5 -124.5t-63 -97t-96.5 -63t-124 -22.5zM297 132q27 0 47 13t32.5 36t19 54.5t6.5 67.5q0 37 -18 63t-59 26
q-27 0 -47 -12.5t-33.5 -35t-20 -52.5t-6.5 -66q0 -17 3.5 -34t12.5 -30.5t24.5 -21.5t38.5 -8zM344 581q-78 0 -122.5 42.5t-41.5 120.5h118q3 -45 48 -45q46 0 52 45h120q-11 -80 -56.5 -121.5t-117.5 -41.5z" />
    <glyph glyph-name="Ohungarumlaut" unicode="&#x150;" horiz-adv-x="820" 
d="M810 410q0 -94 -30 -172t-85.5 -133.5t-133 -86.5t-172.5 -31q-71 0 -134.5 20t-111 60t-75.5 98t-28 135q0 94 30 172.5t85 134.5t130.5 87.5t167.5 31.5q73 0 138 -20t114 -59.5t77 -99t28 -137.5zM574 402q0 30 -7 56.5t-22.5 46.5t-40 31.5t-58.5 12.5q-43 0 -75 -20
t-53.5 -54t-32 -77.5t-10.5 -89.5q0 -63 31.5 -103t98.5 -40q43 0 75 20.5t53 53.5t31 75.5t10 87.5zM357 906h164l-91 -149h-130zM558 906h164l-90 -149h-131z" />
    <glyph glyph-name="ohungarumlaut" unicode="&#x151;" horiz-adv-x="620" 
d="M294 -13q-53 0 -102 14t-87 43.5t-60.5 75t-22.5 107.5q0 67 22 124t62.5 98t97 64.5t124.5 23.5q53 0 102 -14.5t87 -44t60.5 -75.5t22.5 -109q0 -68 -22.5 -124.5t-63 -97t-96.5 -63t-124 -22.5zM297 132q27 0 47 13t32.5 36t19 54.5t6.5 67.5q0 37 -18 63t-59 26
q-27 0 -47 -12.5t-33.5 -35t-20 -52.5t-6.5 -66q0 -17 3.5 -34t12.5 -30.5t24.5 -21.5t38.5 -8zM252 747h148l-98 -169h-114zM434 747h148l-98 -169h-115z" />
    <glyph glyph-name="OE" unicode="&#x152;" horiz-adv-x="988" 
d="M402 0q-180 0 -271 77.5t-91 221.5q0 100 30.5 178t86 130.5t132.5 80t170 27.5h553l-28 -174h-267l-16 -101h209l-24 -158h-209l-18 -108h284l-28 -174h-513zM457 543q-88 0 -135 -61.5t-47 -172.5q0 -137 140 -137h20l58 371h-36z" />
    <glyph glyph-name="oe" unicode="&#x153;" horiz-adv-x="980" 
d="M590 217q0 -41 20 -69.5t70 -28.5q36 0 56 16t28 42h184q-19 -93 -91 -141.5t-182 -48.5q-60 0 -109.5 17t-83.5 54q-37 -34 -84 -52.5t-104 -18.5q-53 0 -102 14.5t-86.5 44.5t-60.5 75.5t-23 107.5q0 67 22 123.5t62.5 97.5t97 64t124.5 23q55 0 103.5 -18.5
t83.5 -56.5q37 36 84.5 56t103.5 20q66 0 117.5 -20t84.5 -58.5t46.5 -93.5t2.5 -125l-4 -23h-360v-1zM297 132q27 0 47 13t32.5 36t19 54.5t6.5 67.5q0 37 -18 63t-59 26q-27 0 -47.5 -12.5t-34 -35t-20 -53t-6.5 -66.5q0 -17 4 -34t13 -30t24.5 -21t38.5 -8zM701 412
q-31 0 -57.5 -20.5t-41.5 -70.5h171q3 40 -13 65.5t-59 25.5z" />
    <glyph glyph-name="Racute" unicode="&#x154;" horiz-adv-x="710" 
d="M136 715h283q137 0 204 -56t67 -151q0 -88 -44.5 -142.5t-114.5 -74.5l128 -291h-229l-106 245h-37l-38 -245h-226zM372 391q46 0 71.5 20.5t25.5 66.5q0 67 -81 67h-53l-25 -154h62zM374 906h201l-115 -149h-150z" />
    <glyph glyph-name="racute" unicode="&#x155;" horiz-adv-x="439" 
d="M60 349q9 57 13 97.5t6 76.5h192q0 -20 -1.5 -51.5t-5.5 -63.5q31 64 77 93.5t112 28.5l-28 -184q-84 5 -130 -22t-57 -100l-36 -224h-197zM289 747h194l-125 -169h-142z" />
    <glyph glyph-name="uni0156" unicode="&#x156;" horiz-adv-x="710" 
d="M136 715h283q137 0 204 -56t67 -151q0 -88 -44.5 -142.5t-114.5 -74.5l128 -291h-229l-106 245h-37l-38 -245h-226zM372 391q46 0 71.5 20.5t25.5 66.5q0 67 -81 67h-53l-25 -154h62zM191 -206l47 175l171 -12l-110 -190z" />
    <glyph glyph-name="uni0157" unicode="&#x157;" horiz-adv-x="440" 
d="M60 349q9 57 13 97.5t6 76.5h192q0 -20 -1.5 -51.5t-5.5 -63.5q31 64 77 93.5t112 28.5l-28 -184q-84 5 -130 -22t-57 -100l-36 -224h-197zM-35 -206l47 175l171 -12l-110 -190z" />
    <glyph glyph-name="Rcaron" unicode="&#x158;" horiz-adv-x="710" 
d="M136 715h283q137 0 204 -56t67 -151q0 -88 -44.5 -142.5t-114.5 -74.5l128 -291h-229l-106 245h-37l-38 -245h-226zM372 391q46 0 71.5 20.5t25.5 66.5q0 67 -81 67h-53l-25 -154h62zM474 757h-164l-92 149h137l48 -47l59 47h145z" />
    <glyph glyph-name="rcaron" unicode="&#x159;" horiz-adv-x="439" 
d="M60 349q9 57 13 97.5t6 76.5h192q0 -20 -1.5 -51.5t-5.5 -63.5q31 64 77 93.5t112 28.5l-28 -184q-84 5 -130 -22t-57 -100l-36 -224h-197zM353 580h-138l-98 166h131l49 -52l63 52h139z" />
    <glyph glyph-name="Sacute" unicode="&#x15a;" horiz-adv-x="651" 
d="M315 -13q-74 0 -131 16t-96.5 47t-60 76t-19.5 103h212q1 -17 6.5 -31.5t17 -26t30.5 -18t46 -6.5q41 -1 61 15t20 46q0 22 -20.5 35t-71.5 23q-67 13 -113 31.5t-74.5 44.5t-41.5 60t-13 79q0 52 19.5 96.5t57.5 77.5t93 51.5t126 18.5q65 0 117 -13.5t88 -41.5t55 -71
t18 -102h-207q-4 69 -77 69q-35 0 -53 -14.5t-18 -39.5q0 -23 19 -35t72 -22q61 -12 107 -29t77 -42t46.5 -60t15.5 -82q0 -56 -20 -102.5t-59 -80.5t-96.5 -52.5t-132.5 -19.5zM363 906h201l-115 -149h-150z" />
    <glyph glyph-name="sacute" unicode="&#x15b;" horiz-adv-x="519" 
d="M233 -14q-54 0 -98.5 10.5t-76 33t-49 57t-17.5 81.5h182q2 -25 15.5 -39.5t48.5 -14.5q53 0 53 37q0 17 -16.5 26t-69.5 19q-89 17 -131 52t-42 104q0 46 18.5 81.5t50.5 58.5t76.5 34.5t97.5 11.5q49 0 90.5 -9.5t71.5 -30.5t47.5 -54t20.5 -79h-179q-2 20 -15.5 34.5
t-40.5 14.5q-53 0 -53 -35q0 -18 18.5 -26.5t57.5 -16.5q52 -10 88.5 -22.5t59.5 -31.5t33.5 -46t10.5 -64q0 -48 -19 -83t-52.5 -58t-80 -34t-100.5 -11zM284 747h194l-125 -169h-142z" />
    <glyph glyph-name="Scircumflex" unicode="&#x15c;" horiz-adv-x="651" 
d="M315 -13q-74 0 -131 16t-96.5 47t-60 76t-19.5 103h212q1 -17 6.5 -31.5t17 -26t30.5 -18t46 -6.5q41 -1 61 15t20 46q0 22 -20.5 35t-71.5 23q-67 13 -113 31.5t-74.5 44.5t-41.5 60t-13 79q0 52 19.5 96.5t57.5 77.5t93 51.5t126 18.5q65 0 117 -13.5t88 -41.5t55 -71
t18 -102h-207q-4 69 -77 69q-35 0 -53 -14.5t-18 -39.5q0 -23 19 -35t72 -22q61 -12 107 -29t77 -42t46.5 -60t15.5 -82q0 -56 -20 -102.5t-59 -80.5t-96.5 -52.5t-132.5 -19.5zM322 906h164l93 -149h-137l-48 47l-60 -47h-144z" />
    <glyph glyph-name="scircumflex" unicode="&#x15d;" horiz-adv-x="519" 
d="M233 -14q-54 0 -98.5 10.5t-76 33t-49 57t-17.5 81.5h182q2 -25 15.5 -39.5t48.5 -14.5q53 0 53 37q0 17 -16.5 26t-69.5 19q-89 17 -131 52t-42 104q0 46 18.5 81.5t50.5 58.5t76.5 34.5t97.5 11.5q49 0 90.5 -9.5t71.5 -30.5t47.5 -54t20.5 -79h-179q-2 20 -15.5 34.5
t-40.5 14.5q-53 0 -53 -35q0 -18 18.5 -26.5t57.5 -16.5q52 -10 88.5 -22.5t59.5 -31.5t33.5 -46t10.5 -64q0 -48 -19 -83t-52.5 -58t-80 -34t-100.5 -11zM243 746h137l99 -166h-132l-49 53l-63 -53h-139z" />
    <glyph glyph-name="uni015E" unicode="&#x15e;" horiz-adv-x="651" 
d="M258 -228q-25 0 -47.5 5.5t-40.5 17t-29.5 29t-13.5 42.5h91q2 -10 9 -18t24 -8q11 0 21.5 7.5t10.5 24.5q0 27 -31 27q-11 0 -18 -2.5t-12 -7.5l-35 39l51 64q-112 15 -172 75.5t-58 161.5h212q1 -17 6.5 -31.5t17 -26t30.5 -18t46 -6.5q41 -1 61 15t20 46
q0 22 -20.5 35t-71.5 23q-67 13 -113 31.5t-74.5 44.5t-41.5 60t-13 79q0 52 19.5 96.5t57.5 77.5t93 51.5t126 18.5q65 0 117 -13.5t88 -41.5t55 -71t18 -102h-207q-4 69 -77 69q-35 0 -53 -14.5t-18 -39.5q0 -23 19 -35t72 -22q61 -12 107 -29t77 -42t46.5 -60t15.5 -82
q0 -56 -20 -102.5t-59 -80.5t-96.5 -52.5t-132.5 -19.5h-6l-25 -31q42 3 71.5 -17.5t29.5 -62.5q0 -27 -10 -46.5t-27.5 -32t-40.5 -19t-49 -6.5z" />
    <glyph glyph-name="uni015F" unicode="&#x15f;" horiz-adv-x="519" 
d="M198 -228q-25 0 -47.5 5.5t-40.5 17t-29.5 29t-13.5 42.5h91q2 -10 9 -18t24 -8q11 0 21.5 7.5t10.5 24.5q0 27 -31 27q-11 0 -18 -2.5t-12 -7.5l-35 39l48 62q-84 10 -133 53t-50 125h182q2 -25 15.5 -39.5t48.5 -14.5q53 0 53 37q0 17 -16.5 26t-69.5 19
q-89 17 -131 52t-42 104q0 46 18.5 81.5t50.5 58.5t76.5 34.5t97.5 11.5q49 0 90.5 -9.5t71.5 -30.5t47.5 -54t20.5 -79h-179q-2 20 -15.5 34.5t-40.5 14.5q-53 0 -53 -35q0 -18 18.5 -26.5t57.5 -16.5q52 -10 88.5 -22.5t59.5 -31.5t33.5 -46t10.5 -64q0 -46 -18 -80.5
t-49.5 -57.5t-75 -35t-94.5 -13l-24 -30q42 3 71.5 -17.5t29.5 -62.5q0 -27 -10 -46.5t-27.5 -32t-40.5 -19t-49 -6.5z" />
    <glyph glyph-name="Scaron" unicode="&#x160;" horiz-adv-x="651" 
d="M315 -13q-74 0 -131 16t-96.5 47t-60 76t-19.5 103h212q1 -17 6.5 -31.5t17 -26t30.5 -18t46 -6.5q41 -1 61 15t20 46q0 22 -20.5 35t-71.5 23q-67 13 -113 31.5t-74.5 44.5t-41.5 60t-13 79q0 52 19.5 96.5t57.5 77.5t93 51.5t126 18.5q65 0 117 -13.5t88 -41.5t55 -71
t18 -102h-207q-4 69 -77 69q-35 0 -53 -14.5t-18 -39.5q0 -23 19 -35t72 -22q61 -12 107 -29t77 -42t46.5 -60t15.5 -82q0 -56 -20 -102.5t-59 -80.5t-96.5 -52.5t-132.5 -19.5zM451 757h-164l-92 149h137l48 -47l59 47h145z" />
    <glyph glyph-name="scaron" unicode="&#x161;" horiz-adv-x="519" 
d="M233 -14q-54 0 -98.5 10.5t-76 33t-49 57t-17.5 81.5h182q2 -25 15.5 -39.5t48.5 -14.5q53 0 53 37q0 17 -16.5 26t-69.5 19q-89 17 -131 52t-42 104q0 46 18.5 81.5t50.5 58.5t76.5 34.5t97.5 11.5q49 0 90.5 -9.5t71.5 -30.5t47.5 -54t20.5 -79h-179q-2 20 -15.5 34.5
t-40.5 14.5q-53 0 -53 -35q0 -18 18.5 -26.5t57.5 -16.5q52 -10 88.5 -22.5t59.5 -31.5t33.5 -46t10.5 -64q0 -48 -19 -83t-52.5 -58t-80 -34t-100.5 -11zM349 580h-138l-98 166h131l49 -52l63 52h139z" />
    <glyph glyph-name="Tcommaaccent" unicode="&#x162;" horiz-adv-x="629" 
d="M243 541h-181l29 174h589l-28 -174h-181l-85 -541h-228zM142 -206l47 175l171 -12l-110 -190z" />
    <glyph glyph-name="tcommaaccent" unicode="&#x163;" horiz-adv-x="393" 
d="M228 -12q-47 0 -82.5 11t-58 35.5t-30 63.5t1.5 94l32 199h-61l20 132h61l18 107h197l-18 -107h99l-20 -132h-99l-31 -192q-5 -32 6.5 -44t36.5 -12q11 0 23.5 1.5t25.5 6.5l-23 -148q-17 -6 -41.5 -10.5t-56.5 -4.5zM47 -206l47 175l171 -12l-110 -190z" />
    <glyph glyph-name="Tcaron" unicode="&#x164;" horiz-adv-x="629" 
d="M243 541h-181l29 174h589l-28 -174h-181l-85 -541h-228zM466 757h-164l-92 149h137l48 -47l59 47h145z" />
    <glyph glyph-name="tcaron" unicode="&#x165;" horiz-adv-x="393" 
d="M228 -12q-47 0 -82.5 11t-58 35.5t-30 63.5t1.5 94l32 199h-61l20 132h61l18 107h197l-18 -107h99l-20 -132h-99l-31 -192q-5 -32 6.5 -44t36.5 -12q11 0 23.5 1.5t25.5 6.5l-23 -148q-17 -6 -41.5 -10.5t-56.5 -4.5zM394 750h139l-75 -175h-99z" />
    <glyph glyph-name="Tbar" unicode="&#x166;" horiz-adv-x="629" 
d="M100 408h122l21 133h-181l29 174h589l-28 -174h-181l-21 -133h123l-22 -140h-123l-42 -268h-228l42 268h-122z" />
    <glyph glyph-name="tbar" unicode="&#x167;" horiz-adv-x="393" 
d="M20 331h61l10 60h-61l20 132h61l18 107h197l-18 -107h99l-20 -132h-99l-10 -60h99l-16 -96h-98l-6 -36q-5 -32 6.5 -44t36.5 -12q11 0 23.5 1.5t25.5 6.5l-23 -148q-17 -6 -41.5 -10.5t-56.5 -4.5q-47 0 -82.5 11t-58 35.5t-30 63.5t1.5 94l7 43h-61z" />
    <glyph glyph-name="Utilde" unicode="&#x168;" horiz-adv-x="776" 
d="M376 -13q-83 0 -146.5 20.5t-104 61t-56 102t-2.5 142.5l65 402h226l-65 -409q-11 -71 8.5 -106t78.5 -35q28 0 47.5 8t32 24.5t20 40.5t12.5 56l67 421h228l-70 -439q-23 -150 -106.5 -219.5t-234.5 -69.5zM524 755q-22 0 -39 5t-31.5 11t-26 11t-23.5 5t-21.5 -8
t-11.5 -22h-110q14 84 53 122t87 38q21 0 38 -5t31.5 -11t27.5 -11t26 -5q25 0 34 30h109q-8 -42 -22.5 -72t-33.5 -49.5t-41.5 -29t-45.5 -9.5z" />
    <glyph glyph-name="utilde" unicode="&#x169;" horiz-adv-x="627" 
d="M561 164q-8 -52 -11.5 -91.5t-1.5 -72.5h-192q-2 17 -2 39.5t2 44.5q-29 -42 -69.5 -69.5t-100.5 -27.5q-39 0 -71.5 12.5t-53.5 39t-29 68.5t1 101l50 315h197l-49 -308q-12 -83 52 -83q76 0 91 94l47 297h196zM420 581q-22 0 -39 5t-30.5 11t-25 11t-23.5 5t-20.5 -8
t-12.5 -22h-103q13 84 48 123t84 39q21 0 37.5 -5t31 -11t27 -11t25.5 -5q24 0 32 31h104q-14 -85 -51 -124t-84 -39z" />
    <glyph glyph-name="Umacron" unicode="&#x16a;" horiz-adv-x="776" 
d="M376 -13q-83 0 -146.5 20.5t-104 61t-56 102t-2.5 142.5l65 402h226l-65 -409q-11 -71 8.5 -106t78.5 -35q28 0 47.5 8t32 24.5t20 40.5t12.5 56l67 421h228l-70 -439q-23 -150 -106.5 -219.5t-234.5 -69.5zM317 884h332l-18 -115h-332z" />
    <glyph glyph-name="umacron" unicode="&#x16b;" horiz-adv-x="627" 
d="M561 164q-8 -52 -11.5 -91.5t-1.5 -72.5h-192q-2 17 -2 39.5t2 44.5q-29 -42 -69.5 -69.5t-100.5 -27.5q-39 0 -71.5 12.5t-53.5 39t-29 68.5t1 101l50 315h197l-49 -308q-12 -83 52 -83q76 0 91 94l47 297h196zM211 712h316l-17 -107h-316z" />
    <glyph glyph-name="Ubreve" unicode="&#x16c;" horiz-adv-x="776" 
d="M376 -13q-83 0 -146.5 20.5t-104 61t-56 102t-2.5 142.5l65 402h226l-65 -409q-11 -71 8.5 -106t78.5 -35q28 0 47.5 8t32 24.5t20 40.5t12.5 56l67 421h228l-70 -439q-23 -150 -106.5 -219.5t-234.5 -69.5zM466 749q-82 0 -124 42.5t-43 114.5h124q2 -20 12.5 -31
t32.5 -11q41 0 49 42h125q-11 -76 -58 -116.5t-118 -40.5z" />
    <glyph glyph-name="ubreve" unicode="&#x16d;" horiz-adv-x="627" 
d="M561 164q-8 -52 -11.5 -91.5t-1.5 -72.5h-192q-2 17 -2 39.5t2 44.5q-29 -42 -69.5 -69.5t-100.5 -27.5q-39 0 -71.5 12.5t-53.5 39t-29 68.5t1 101l50 315h197l-49 -308q-12 -83 52 -83q76 0 91 94l47 297h196zM364 581q-78 0 -122.5 42.5t-41.5 120.5h118q3 -45 48 -45
q46 0 52 45h120q-11 -80 -56.5 -121.5t-117.5 -41.5z" />
    <glyph glyph-name="Uring" unicode="&#x16e;" horiz-adv-x="776" 
d="M376 -13q-83 0 -146.5 20.5t-104 61t-56 102t-2.5 142.5l65 402h226l-65 -409q-11 -71 8.5 -106t78.5 -35q28 0 47.5 8t32 24.5t20 40.5t12.5 56l67 421h228l-70 -439q-23 -150 -106.5 -219.5t-234.5 -69.5zM466 790q20 0 32.5 14t12.5 36t-12.5 36t-32.5 14t-32.5 -13.5
t-12.5 -37.5q0 -22 12 -35.5t33 -13.5zM466 722q-25 0 -47.5 9.5t-39 25t-26 37t-9.5 45.5q0 25 10 46.5t26.5 37.5t38.5 25.5t47 9.5t47.5 -9.5t39 -25.5t26 -37.5t9.5 -45.5t-10 -45.5t-26.5 -37.5t-38.5 -25.5t-47 -9.5z" />
    <glyph glyph-name="uring" unicode="&#x16f;" horiz-adv-x="627" 
d="M561 164q-8 -52 -11.5 -91.5t-1.5 -72.5h-192q-2 17 -2 39.5t2 44.5q-29 -42 -69.5 -69.5t-100.5 -27.5q-39 0 -71.5 12.5t-53.5 39t-29 68.5t1 101l50 315h197l-49 -308q-12 -83 52 -83q76 0 91 94l47 297h196zM355 642q20 0 32.5 13.5t12.5 35.5q0 21 -12 34.5
t-32 13.5t-32.5 -13.5t-12.5 -35.5q0 -21 12 -34.5t32 -13.5zM355 574q-25 0 -46.5 9t-38 25t-26 37t-9.5 45t9.5 45.5t26 37t38.5 25t47 9.5t46.5 -9t38 -25t26 -37t9.5 -45t-9.5 -45.5t-26 -37.5t-38.5 -25t-47 -9z" />
    <glyph glyph-name="Uhungarumlaut" unicode="&#x170;" horiz-adv-x="776" 
d="M376 -13q-83 0 -146.5 20.5t-104 61t-56 102t-2.5 142.5l65 402h226l-65 -409q-11 -71 8.5 -106t78.5 -35q28 0 47.5 8t32 24.5t20 40.5t12.5 56l67 421h228l-70 -439q-23 -150 -106.5 -219.5t-234.5 -69.5zM353 906h164l-91 -149h-130zM554 906h164l-90 -149h-131z" />
    <glyph glyph-name="uhungarumlaut" unicode="&#x171;" horiz-adv-x="627" 
d="M561 164q-8 -52 -11.5 -91.5t-1.5 -72.5h-192q-2 17 -2 39.5t2 44.5q-29 -42 -69.5 -69.5t-100.5 -27.5q-39 0 -71.5 12.5t-53.5 39t-29 68.5t1 101l50 315h197l-49 -308q-12 -83 52 -83q76 0 91 94l47 297h196zM264 747h148l-98 -169h-114zM446 747h148l-98 -169h-115z
" />
    <glyph glyph-name="Uogonek" unicode="&#x172;" horiz-adv-x="776" 
d="M374 -182q-22 0 -42.5 4t-36.5 13t-26 24t-10 38q0 33 22 55.5t49 36.5q-72 5 -127 28t-89.5 63.5t-46.5 98.5t0 134l65 402h226l-65 -409q-11 -71 8.5 -106t77.5 -35q28 0 47.5 8t32 24.5t20.5 40.5t13 56l67 421h228l-70 -439q-8 -53 -23.5 -95.5t-39.5 -75.5
t-59 -57.5t-82 -41.5q-15 -6 -32 -12t-31.5 -13.5t-24 -18t-9.5 -25.5q0 -22 28 -22q14 0 25 3l-14 -85q-13 -5 -32.5 -10t-48.5 -5z" />
    <glyph glyph-name="uogonek" unicode="&#x173;" horiz-adv-x="627" 
d="M561 164q-8 -52 -11 -90.5t-1 -65.5q-18 -17 -35 -34t-17 -37q0 -22 27 -22q14 0 25 3l-14 -85q-13 -5 -32 -10t-48 -5q-22 0 -43 4t-37 13t-26 24t-10 38q0 20 9 36.5t23.5 29.5t31.5 22t34 15h-81q-1 9 -1 21v25t0.5 26t1.5 24q-29 -48 -73 -78.5t-107 -30.5
q-36 0 -66.5 12.5t-50.5 39t-28 68.5t1 101l50 315h197l-49 -308q-12 -83 52 -83q77 0 90 94l48 297h197z" />
    <glyph glyph-name="Wcircumflex" unicode="&#x174;" horiz-adv-x="1000" 
d="M77 715h229l14 -432l158 432h191l33 -437l156 437h208l-283 -715h-221l-35 416l-164 -416h-229zM508 906h164l93 -149h-137l-48 47l-60 -47h-144z" />
    <glyph glyph-name="wcircumflex" unicode="&#x175;" horiz-adv-x="842" 
d="M45 523h199l23 -294l120 294h158l25 -294l119 294h190l-246 -523h-185l-27 275l-115 -275h-190zM415 746h137l99 -166h-132l-49 53l-63 -53h-139z" />
    <glyph glyph-name="Ycircumflex" unicode="&#x176;" horiz-adv-x="693" 
d="M241 306l-166 409h235l77 -221l143 221h226l-288 -421l-46 -294h-228zM355 906h164l93 -149h-137l-48 47l-60 -47h-144z" />
    <glyph glyph-name="ycircumflex" unicode="&#x177;" horiz-adv-x="590" 
d="M172 59l-128 464h204l54 -263l130 263h195l-385 -697h-196zM296 746h137l99 -166h-132l-49 53l-63 -53h-139z" />
    <glyph glyph-name="Ydieresis" unicode="&#x178;" horiz-adv-x="693" 
d="M241 306l-166 409h235l77 -221l143 221h226l-288 -421l-46 -294h-228zM318 752q-19 0 -35.5 7t-29 19t-19.5 28.5t-7 34.5t7 34.5t19.5 28.5t29.5 19t36 7q38 0 64.5 -25.5t26.5 -63.5q0 -18 -7 -34.5t-19.5 -28.5t-29.5 -19t-36 -7zM545 752q-19 0 -35.5 7t-29 19
t-19.5 28.5t-7 34.5t7 34.5t19.5 28.5t29 19t35.5 7q39 0 65.5 -25.5t26.5 -63.5q0 -18 -7 -34.5t-19.5 -28.5t-29.5 -19t-36 -7z" />
    <glyph glyph-name="Zacute" unicode="&#x179;" horiz-adv-x="626" 
d="M-28 24l367 521h-248l28 170h568l-4 -24l-366 -520h262l-27 -171h-584zM372 906h201l-115 -149h-150z" />
    <glyph glyph-name="zacute" unicode="&#x17a;" horiz-adv-x="511" 
d="M-32 19l268 359h-189l22 145h471l-3 -20l-276 -359h206l-23 -144h-478zM303 747h194l-125 -169h-142z" />
    <glyph glyph-name="Zdotaccent" unicode="&#x17b;" horiz-adv-x="626" 
d="M-28 24l367 521h-248l28 170h568l-4 -24l-366 -520h262l-27 -171h-584zM401 752q-45 0 -74 26.5t-29 67.5q0 42 29.5 69t73.5 27t73.5 -26.5t29.5 -68.5t-29.5 -68.5t-73.5 -26.5z" />
    <glyph glyph-name="zdotaccent" unicode="&#x17c;" horiz-adv-x="511" 
d="M-32 19l268 359h-189l22 145h471l-3 -20l-276 -359h206l-23 -144h-478zM308 569q-45 0 -74 26t-29 68t29.5 69t73.5 27t73.5 -26.5t29.5 -68.5t-29.5 -68.5t-73.5 -26.5z" />
    <glyph glyph-name="Zcaron" unicode="&#x17d;" horiz-adv-x="626" 
d="M-28 24l367 521h-248l28 170h568l-4 -24l-366 -520h262l-27 -171h-584zM475 757h-164l-92 149h137l48 -47l59 47h145z" />
    <glyph glyph-name="zcaron" unicode="&#x17e;" horiz-adv-x="511" 
d="M-32 19l268 359h-189l22 145h471l-3 -20l-276 -359h206l-23 -144h-478zM369 580h-138l-98 166h131l49 -52l63 52h139z" />
    <glyph glyph-name="uni0192" unicode="&#x192;" horiz-adv-x="456" 
d="M51 415h85l23 119q10 52 33 88.5t55.5 59t72 33t83.5 10.5q35 0 54 -3t37 -9l-23 -145q-11 4 -21.5 5.5t-28.5 1.5q-27 0 -46.5 -15t-25.5 -46l-19 -99h113l-20 -132h-117l-87 -465h-194l87 465h-81z" />
    <glyph glyph-name="Aringacute" unicode="&#x1fa;" horiz-adv-x="755" 
d="M457 119h-225l-51 -119h-217l339 715h292l111 -715h-235zM299 273h141l-29 259zM453 808q20 0 32.5 14t12.5 36t-12.5 36t-32.5 14t-32.5 -13.5t-12.5 -37.5q0 -22 12 -35.5t33 -13.5zM453 740q-25 0 -47.5 9.5t-39 25t-26 37t-9.5 45.5q0 25 10 46.5t26.5 37.5
t38.5 25.5t47 9.5t47.5 -9.5t39 -25.5t26 -37.5t9.5 -45.5t-10 -45.5t-26.5 -37.5t-38.5 -25.5t-47 -9.5zM455 1142h201l-115 -149h-150z" />
    <glyph glyph-name="aringacute" unicode="&#x1fb;" horiz-adv-x="584" 
d="M168 -13q-35 0 -65 9.5t-52 28t-35 45.5t-13 62q0 52 19 87t55 56.5t87.5 31t117.5 9.5h72l2 12q5 32 -4.5 52.5t-48.5 20.5q-33 0 -47.5 -17t-19.5 -39h-184q20 97 86.5 145t173.5 48q134 0 194 -57.5t41 -177.5l-22 -139q-8 -51 -10.5 -91t2.5 -73h-191
q-3 16 -3.5 32.5t0.5 32.5q-22 -31 -58.5 -54.5t-96.5 -23.5zM251 117q32 0 54.5 18.5t27.5 47.5l5 27h-51q-48 0 -68 -11.5t-20 -38.5q0 -18 13 -30.5t39 -12.5zM346 638q20 0 32.5 13.5t12.5 35.5q0 21 -12 34.5t-32 13.5t-32.5 -13.5t-12.5 -35.5q0 -21 12 -34.5
t32 -13.5zM346 570q-25 0 -46.5 9t-38 25t-26 37t-9.5 45t9.5 45.5t26 37t38.5 25t47 9.5t46.5 -9t38 -25t26 -37t9.5 -45t-9.5 -45.5t-26 -37.5t-38.5 -25t-47 -9zM351 978h201l-115 -149h-150z" />
    <glyph glyph-name="AEacute" unicode="&#x1fc;" horiz-adv-x="1012" 
d="M384 715h651l-27 -174h-275l-16 -101h217l-24 -158h-217l-18 -108h291l-27 -174h-516l21 135h-184l-75 -135h-220zM344 285h123l41 256h-20zM675 906h201l-115 -149h-150z" />
    <glyph glyph-name="aeacute" unicode="&#x1fd;" horiz-adv-x="912" 
d="M525 217q0 -20 4.5 -38t15 -31.5t27 -21t41.5 -7.5q37 0 55.5 16t26.5 42h185q-19 -93 -90.5 -141.5t-181.5 -48.5q-75 0 -129.5 22.5t-86.5 70.5q-12 -18 -28 -35t-39.5 -29.5t-54.5 -20.5t-73 -8q-43 0 -78.5 10t-61 29t-40 46.5t-14.5 63.5q0 51 19.5 86t56 56.5
t88.5 31t117 9.5h71l2 11q5 31 -6 51t-50 20q-33 0 -49 -17t-21 -39h-183q9 49 32 85.5t57.5 60.5t78.5 35.5t94 11.5q60 0 100.5 -14t63.5 -42q36 26 78 40.5t88 14.5q65 0 115.5 -19.5t83 -57t45 -92.5t1.5 -126l-3 -23h-357v-2zM635 412q-31 0 -57.5 -21t-40.5 -71h168
q3 39 -12.5 65.5t-57.5 26.5zM251 117q32 0 55 18t28 52l5 29h-52q-48 0 -68 -13t-20 -42q0 -20 13 -32t39 -12zM491 747h194l-125 -169h-142z" />
    <glyph glyph-name="Oslashacute" unicode="&#x1fe;" horiz-adv-x="820" 
d="M34 23l76 77q-33 38 -51.5 87.5t-18.5 111.5q0 94 30 172.5t85 135t130.5 87.5t167.5 31q62 0 117.5 -14t100.5 -42l72 72l55 -56l-65 -66q36 -39 56.5 -91t20.5 -118q0 -94 -30 -172t-85.5 -133.5t-133 -86.5t-172.5 -31q-127 0 -220 61l-80 -81zM581 402q0 15 -2 29
t-5 27l-262 -265q35 -29 93 -29q44 0 77 19.5t55 52.5t33 76t11 90zM269 309q0 -12 1 -23t3 -21l257 260q-33 24 -84 25q-44 0 -77 -19.5t-55 -52.5t-33.5 -77t-11.5 -92zM443 906h201l-115 -149h-150z" />
    <glyph glyph-name="oslashacute" unicode="&#x1ff;" horiz-adv-x="620" 
d="M12 7l64 66q-25 29 -39.5 67.5t-14.5 88.5q0 67 22 123.5t62.5 97.5t97 64.5t124.5 23.5q44 0 85 -10t76 -31l66 67l48 -46l-62 -63q27 -30 43 -70t16 -92q0 -69 -22.5 -125t-63 -96.5t-96.5 -62.5t-124 -22q-46 0 -89 10.5t-78 32.5l-67 -69zM298 129q28 0 49 13
t35 36.5t21 55t7 67.5q0 5 -0.5 9t-0.5 9l-169 -173q20 -17 58 -17zM210 228v-9t1 -8l165 169q-20 14 -50 14q-57 0 -86.5 -46.5t-29.5 -119.5zM332 747h194l-125 -169h-142z" />
    <glyph glyph-name="uni0218" unicode="&#x218;" horiz-adv-x="650" 
d="M315 -13q-74 0 -131 16t-96.5 47t-60 76t-19.5 103h212q1 -17 6.5 -31.5t17 -26t30.5 -18t46 -6.5q41 -1 61 15t20 46q0 22 -20.5 35t-71.5 23q-67 13 -113 31.5t-74.5 44.5t-41.5 60t-13 79q0 52 19.5 96.5t57.5 77.5t93 51.5t126 18.5q65 0 117 -13.5t88 -41.5t55 -71
t18 -102h-207q-4 69 -77 69q-35 0 -53 -14.5t-18 -39.5q0 -23 19 -35t72 -22q61 -12 107 -29t77 -42t46.5 -60t15.5 -82q0 -56 -20 -102.5t-59 -80.5t-96.5 -52.5t-132.5 -19.5zM151 -206l47 175l171 -12l-110 -190z" />
    <glyph glyph-name="uni0219" unicode="&#x219;" horiz-adv-x="519" 
d="M233 -14q-54 0 -98.5 10.5t-76 33t-49 57t-17.5 81.5h182q2 -25 15.5 -39.5t48.5 -14.5q53 0 53 37q0 17 -16.5 26t-69.5 19q-89 17 -131 52t-42 104q0 46 18.5 81.5t50.5 58.5t76.5 34.5t97.5 11.5q49 0 90.5 -9.5t71.5 -30.5t47.5 -54t20.5 -79h-179q-2 20 -15.5 34.5
t-40.5 14.5q-53 0 -53 -35q0 -18 18.5 -26.5t57.5 -16.5q52 -10 88.5 -22.5t59.5 -31.5t33.5 -46t10.5 -64q0 -48 -19 -83t-52.5 -58t-80 -34t-100.5 -11zM86 -206l47 175l171 -12l-110 -190z" />
    <glyph glyph-name="uni021A" unicode="&#x21a;" horiz-adv-x="629" 
d="M243 541h-181l29 174h589l-28 -174h-181l-85 -541h-228zM142 -206l47 175l171 -12l-110 -190z" />
    <glyph glyph-name="uni021B" unicode="&#x21b;" horiz-adv-x="393" 
d="M228 -12q-47 0 -82.5 11t-58 35.5t-30 63.5t1.5 94l32 199h-61l20 132h61l18 107h197l-18 -107h99l-20 -132h-99l-31 -192q-5 -32 6.5 -44t36.5 -12q11 0 23.5 1.5t25.5 6.5l-23 -148q-17 -6 -41.5 -10.5t-56.5 -4.5zM47 -206l47 175l171 -12l-110 -190z" />
    <glyph glyph-name="uni0237" unicode="&#x237;" horiz-adv-x="303" 
d="M-57 -42q31 2 48 14t21 41l81 510h196l-84 -529q-6 -38 -22 -72t-48.5 -58t-84.5 -36.5t-129 -8.5z" />
    <glyph glyph-name="circumflex" unicode="&#x2c6;" horiz-adv-x="400" 
d="M205 746h137l99 -166h-132l-49 53l-63 -53h-139z" />
    <glyph glyph-name="caron" unicode="&#x2c7;" horiz-adv-x="400" 
d="M320 580h-138l-98 166h131l49 -52l63 52h139z" />
    <glyph glyph-name="breve" unicode="&#x2d8;" horiz-adv-x="400" 
d="M265 581q-78 0 -122.5 42.5t-41.5 120.5h118q3 -45 48 -45q46 0 52 45h120q-11 -80 -56.5 -121.5t-117.5 -41.5z" />
    <glyph glyph-name="dotaccent" unicode="&#x2d9;" horiz-adv-x="400" 
d="M263 569q-45 0 -74 26t-29 68t29.5 69t73.5 27t73.5 -26.5t29.5 -68.5t-29.5 -68.5t-73.5 -26.5z" />
    <glyph glyph-name="ring" unicode="&#x2da;" horiz-adv-x="400" 
d="M266 642q20 0 32.5 13.5t12.5 35.5q0 21 -12 34.5t-32 13.5t-32.5 -13.5t-12.5 -35.5q0 -21 12 -34.5t32 -13.5zM266 574q-25 0 -46.5 9t-38 25t-26 37t-9.5 45t9.5 45.5t26 37t38.5 25t47 9.5t46.5 -9t38 -25t26 -37t9.5 -45t-9.5 -45.5t-26 -37.5t-38.5 -25t-47 -9z
" />
    <glyph glyph-name="ogonek" unicode="&#x2db;" horiz-adv-x="400" 
d="M138 -182q-22 0 -43 4t-37 13t-26 24t-10 38q0 20 9 36.5t23.5 29.5t31.5 22t34 15h107q-14 -11 -30.5 -27t-16.5 -36q0 -22 27 -22q14 0 25 3l-14 -85q-13 -5 -32 -10t-48 -5z" />
    <glyph glyph-name="tilde" unicode="&#x2dc;" horiz-adv-x="400" 
d="M322 581q-22 0 -39 5t-30.5 11t-25 11t-23.5 5t-20.5 -8t-12.5 -22h-103q13 84 48 123t84 39q21 0 37.5 -5t31 -11t27 -11t25.5 -5q24 0 32 31h104q-14 -85 -51 -124t-84 -39z" />
    <glyph glyph-name="hungarumlaut" unicode="&#x2dd;" horiz-adv-x="400" 
d="M159 747h148l-98 -169h-114zM341 747h148l-98 -169h-115z" />
    <glyph glyph-name="uni037E" unicode="&#x37e;" horiz-adv-x="326" 
d="M-28 -77l105 270l172 -63l-169 -254zM195 272q-24 0 -44 8.5t-34.5 22.5t-22.5 33.5t-8 42.5q0 22 8 42t22.5 34.5t34 23t43.5 8.5t45 -8.5t36.5 -23t24 -34.5t8.5 -42q0 -23 -8.5 -42.5t-23.5 -33.5t-36 -22.5t-45 -8.5z" />
    <glyph glyph-name="uni0401" unicode="&#x401;" horiz-adv-x="621" 
d="M136 715h507l-27 -174h-282l-16 -101h224l-24 -158h-224l-18 -108h298l-27 -174h-524zM289 752q-19 0 -35.5 7t-29 19t-19.5 28.5t-7 34.5t7 34.5t19.5 28.5t29.5 19t36 7q38 0 64.5 -25.5t26.5 -63.5q0 -18 -7 -34.5t-19.5 -28.5t-29.5 -19t-36 -7zM516 752
q-19 0 -35.5 7t-29 19t-19.5 28.5t-7 34.5t7 34.5t19.5 28.5t29 19t35.5 7q39 0 65.5 -25.5t26.5 -63.5q0 -18 -7 -34.5t-19.5 -28.5t-29.5 -19t-36 -7z" />
    <glyph glyph-name="uni0402" unicode="&#x402;" horiz-adv-x="838" 
d="M577 -18q-49 0 -73.5 7t-39.5 14l24 152q6 -2 15.5 -4.5t23.5 -2.5q25 0 40.5 17.5t15.5 51.5q0 29 -15 48t-58 19q-19 0 -34 -4.5t-25.5 -10t-16.5 -11t-9 -8.5l-39 -250h-228l85 541h-181l29 174h596l-28 -174h-188l-20 -124q26 14 60 24t77 10q111 0 165.5 -59
t54.5 -157q0 -63 -18 -110.5t-49 -79t-73 -47.5t-91 -16z" />
    <glyph glyph-name="uni0403" unicode="&#x403;" horiz-adv-x="583" 
d="M360 906h201l-115 -149h-150zM136 715h492l-29 -175h-264l-84 -540h-228z" />
    <glyph glyph-name="uni0404" unicode="&#x404;" horiz-adv-x="767" 
d="M747 263q-12 -69 -44 -121t-79 -86.5t-105.5 -51.5t-124.5 -17q-80 0 -145 20t-111.5 60t-72 100.5t-25.5 141.5q0 90 27.5 166.5t79.5 132t126.5 87t169.5 31.5q141 0 226.5 -66t95.5 -199h-231q-6 43 -29 65.5t-68 22.5q-52 0 -88 -29t-54 -79h234l-25 -158h-227
q0 -6 2 -16q7 -47 35.5 -74t81.5 -27q45 0 77 24t47 73h227z" />
    <glyph glyph-name="uni0405" unicode="&#x405;" horiz-adv-x="651" 
d="M315 -13q-74 0 -131 16t-96.5 47t-60 76t-19.5 103h212q1 -17 6.5 -31.5t17 -26t30.5 -18t46 -6.5q41 -1 61 15t20 46q0 22 -20.5 35t-71.5 23q-67 13 -113 31.5t-74.5 44.5t-41.5 60t-13 79q0 52 19.5 96.5t57.5 77.5t93 51.5t126 18.5q65 0 117 -13.5t88 -41.5t55 -71
t18 -102h-207q-4 69 -77 69q-35 0 -53 -14.5t-18 -39.5q0 -23 19 -35t72 -22q61 -12 107 -29t77 -42t46.5 -60t15.5 -82q0 -56 -20 -102.5t-59 -80.5t-96.5 -52.5t-132.5 -19.5z" />
    <glyph glyph-name="uni0406" unicode="&#x406;" horiz-adv-x="366" 
d="M139 715h229l-113 -715h-229z" />
    <glyph glyph-name="uni0407" unicode="&#x407;" horiz-adv-x="366" 
d="M139 715h229l-113 -715h-229zM158 752q-19 0 -35.5 7t-29 19t-19.5 28.5t-7 34.5t7 34.5t19.5 28.5t29.5 19t36 7q38 0 64.5 -25.5t26.5 -63.5q0 -18 -7 -34.5t-19.5 -28.5t-29.5 -19t-36 -7zM385 752q-19 0 -35.5 7t-29 19t-19.5 28.5t-7 34.5t7 34.5t19.5 28.5t29 19
t35.5 7q39 0 65.5 -25.5t26.5 -63.5q0 -18 -7 -34.5t-19.5 -28.5t-29.5 -19t-36 -7z" />
    <glyph glyph-name="uni0408" unicode="&#x408;" horiz-adv-x="489" 
d="M151 -9q-63 0 -100 10t-58 21l26 166q18 -6 40 -12t51 -6q36 0 61.5 18t32.5 64l74 463h227l-75 -472q-20 -130 -91.5 -191t-187.5 -61z" />
    <glyph glyph-name="uni0409" unicode="&#x409;" horiz-adv-x="1058" 
d="M390 539q-2 -11 -7 -33.5t-11.5 -54t-15.5 -68.5t-19 -76q-18 -69 -38.5 -127.5t-51.5 -100.5t-75 -66t-108 -24q-42 0 -61.5 5t-20.5 6l26 169q3 -2 8 -3q10 -2 24 -2q21 0 37 13t28.5 37.5t23 59.5t22.5 78q14 53 28.5 116t25.5 118q13 64 25 129h529l-40 -259h43
q64 0 115 -12t86.5 -38t54.5 -66.5t19 -97.5q0 -54 -20 -98.5t-57 -76.5t-90.5 -49.5t-120.5 -17.5h-326l86 539h-119zM725 151q45 0 70 25t25 66q0 32 -20 49.5t-65 17.5h-40l-25 -158h55z" />
    <glyph glyph-name="uni040A" unicode="&#x40a;" horiz-adv-x="1084" 
d="M750 151q46 0 71 25t25 66q0 67 -85 67h-40l-25 -158h54zM23 0l113 715h228l-43 -264h199l42 264h223l-41 -259h44q64 0 114.5 -12t86 -38t54.5 -66.5t19 -97.5q0 -54 -19.5 -98.5t-56.5 -76.5t-90.5 -49.5t-120.5 -17.5h-326l44 275h-199l-43 -275h-228z" />
    <glyph glyph-name="uni040B" unicode="&#x40b;" horiz-adv-x="849" 
d="M510 278q-39 0 -59.5 -14t-26.5 -20l-38 -244h-228l85 541h-181l29 174h596l-28 -174h-188l-20 -125q27 15 63 25t81 10q61 0 106.5 -19.5t73.5 -56.5t37 -90t-2 -120l-24 -165h-226l25 160q4 27 3.5 48.5t-9 37t-25 24t-44.5 8.5z" />
    <glyph glyph-name="uni040C" unicode="&#x40c;" horiz-adv-x="746" 
d="M136 715h227l-43 -273l246 273h243l-317 -342l204 -373h-245l-154 300l-47 -300h-227zM439 906h201l-115 -149h-150z" />
    <glyph glyph-name="uni040D" unicode="&#x40d;" horiz-adv-x="800" 
d="M23 0l113 715h226l-63 -397l287 397h220l-113 -715h-225l63 397l-286 -397h-222zM325 906h199l32 -149h-144z" />
    <glyph glyph-name="uni040E" unicode="&#x40e;" horiz-adv-x="660" 
d="M405 749q-82 0 -125.5 42.5t-44.5 114.5h128q0 -10 2 -20.5t7 -19t13 -14t21 -5.5q24 0 34.5 19t12.5 40h129q-12 -75 -59.5 -116t-117.5 -41zM183 -10q-42 0 -68.5 4t-31.5 6l24 165q12 -3 25 -5t27 -2q53 0 89 48l-188 509h229l89 -282l136 281l223 1l-273 -502
q-29 -53 -58.5 -94.5t-63 -70t-72.5 -43.5t-87 -15z" />
    <glyph glyph-name="uni040F" unicode="&#x40f;" horiz-adv-x="784" 
d="M23 0l113 715h227l-86 -539h200l85 539h228l-113 -715h-232l-25 -130h-178l14 130h-233z" />
    <glyph glyph-name="uni0410" unicode="&#x410;" horiz-adv-x="754" 
d="M457 119h-225l-51 -119h-217l339 715h292l111 -715h-235zM299 273h141l-29 259z" />
    <glyph glyph-name="uni0411" unicode="&#x411;" horiz-adv-x="678" 
d="M650 241q0 -115 -76.5 -178t-213.5 -63h-337l113 715h522l-28 -175h-302l-15 -101h79q59 0 107 -12t81.5 -36t51.5 -61.5t18 -88.5zM337 149q45 0 70 22t25 60q0 36 -20.5 51t-65.5 15h-55l-24 -148h70z" />
    <glyph glyph-name="uni0412" unicode="&#x412;" horiz-adv-x="690" 
d="M136 715h305q63 0 107.5 -13.5t72 -37.5t40 -56t12.5 -69q0 -71 -40 -113.5t-100 -56.5q54 -11 89 -47.5t35 -101.5q0 -50 -19.5 -90.5t-56 -69t-88 -44.5t-115.5 -16h-355zM343 149q45 0 70 23.5t25 61.5q0 33 -20 50t-65 17h-62l-24 -152h76zM383 436q84 0 84 73
q0 31 -18 44.5t-53 13.5h-63l-21 -131h71z" />
    <glyph glyph-name="uni0413" unicode="&#x413;" horiz-adv-x="583" 
d="M136 715h492l-29 -175h-264l-84 -540h-228z" />
    <glyph glyph-name="uni0414" unicode="&#x414;" horiz-adv-x="800" 
d="M342 391q-18 -72 -38 -124.5t-46 -90.5h203l58 365h-139q-2 -8 -6 -25.5t-9.5 -39t-11.5 -44t-11 -41.5zM132 -130h-195l47 306h44q44 19 70 76.5t49 143.5q5 18 11 41t12.5 48.5t13 52.5t12.5 53q14 60 29 124h547l-86 -539h102l-49 -306h-196l14 130h-398z" />
    <glyph glyph-name="uni0415" unicode="&#x415;" horiz-adv-x="621" 
d="M136 715h507l-27 -174h-282l-16 -101h224l-24 -158h-224l-18 -108h298l-27 -174h-524z" />
    <glyph glyph-name="uni0416" unicode="&#x416;" horiz-adv-x="1026" 
d="M406 309l-222 -309h-238l298 400l-150 315h215l117 -281l44 281h225l-44 -281l211 281h236l-282 -344l167 -371h-230l-123 306l-48 -306h-225z" />
    <glyph glyph-name="uni0417" unicode="&#x417;" horiz-adv-x="660" 
d="M313 -13q-65 0 -118.5 17t-92 49t-60 79.5t-22.5 107.5h210q2 -39 24 -64t64 -25q41 0 62 20.5t23 49.5q3 35 -18.5 50.5t-63.5 15.5h-74l25 152h88q37 0 55.5 16t19.5 43q2 28 -15 47t-57 19q-45 0 -65 -23t-26 -56h-200q7 54 30 98t62 75.5t93 49t122 17.5
q70 0 120 -16.5t82.5 -44t47 -63.5t13.5 -74q-2 -62 -39 -104.5t-101 -53.5q27 -6 49.5 -19.5t39 -33.5t25 -47.5t5.5 -61.5q-3 -46 -24.5 -86t-60.5 -70t-95 -47t-128 -17z" />
    <glyph glyph-name="uni0418" unicode="&#x418;" horiz-adv-x="800" 
d="M23 0l113 715h226l-63 -397l287 397h220l-113 -715h-225l63 397l-286 -397h-222z" />
    <glyph glyph-name="uni0419" unicode="&#x419;" horiz-adv-x="800" 
d="M481 749q-83 0 -126 42.5t-44 114.5h128q0 -10 1.5 -20.5t6.5 -19t13.5 -14t21.5 -5.5q24 0 34.5 19t12.5 40h128q-11 -75 -59 -116t-117 -41zM23 0l113 715h226l-63 -397l287 397h220l-113 -715h-225l63 397l-286 -397h-222z" />
    <glyph glyph-name="uni041A" unicode="&#x41a;" horiz-adv-x="746" 
d="M136 715h227l-43 -273l246 273h243l-317 -342l204 -373h-245l-154 300l-47 -300h-227z" />
    <glyph glyph-name="uni041B" unicode="&#x41b;" horiz-adv-x="769" 
d="M337 307q-18 -69 -38.5 -127.5t-51.5 -100.5t-75 -66t-108 -24q-42 0 -61.5 5t-20.5 6l26 169q3 -2 8 -3q10 -2 24 -2q21 0 37 13t28.5 37.5t23 59.5t22.5 78q14 53 28.5 116t25.5 118q13 64 25 129h545l-113 -715h-227l86 539h-131q-2 -11 -7 -33.5t-11.5 -54
t-15.5 -68.5t-19 -76z" />
    <glyph glyph-name="uni041C" unicode="&#x41c;" horiz-adv-x="957" 
d="M136 715h285l67 -346l178 346h296l-113 -715h-225l67 424l-230 -424h-76l-93 424l-67 -424h-202z" />
    <glyph glyph-name="uni041D" unicode="&#x41d;" horiz-adv-x="794" 
d="M136 715h227l-41 -264h209l42 264h227l-113 -715h-227l43 275h-210l-43 -275h-227z" />
    <glyph glyph-name="uni041E" unicode="&#x41e;" horiz-adv-x="820" 
d="M810 410q0 -94 -30 -172t-85.5 -133.5t-133 -86.5t-172.5 -31q-71 0 -134.5 20t-111 60t-75.5 98t-28 135q0 94 30 172.5t85 134.5t130.5 87.5t167.5 31.5q73 0 138 -20t114 -59.5t77 -99t28 -137.5zM574 402q0 30 -7 56.5t-22.5 46.5t-40 31.5t-58.5 12.5q-43 0 -75 -20
t-53.5 -54t-32 -77.5t-10.5 -89.5q0 -63 31.5 -103t98.5 -40q43 0 75 20.5t53 53.5t31 75.5t10 87.5z" />
    <glyph glyph-name="uni041F" unicode="&#x41f;" horiz-adv-x="784" 
d="M536 539h-200l-85 -539h-228l113 715h654l-113 -715h-227z" />
    <glyph glyph-name="uni0420" unicode="&#x420;" horiz-adv-x="665" 
d="M136 715h268q134 0 203 -56t70 -152q0 -67 -21.5 -118t-61 -85.5t-96 -52.5t-126.5 -18h-85l-37 -233h-227zM362 385q48 0 74 24t26 72q0 67 -83 67h-44l-25 -163h52z" />
    <glyph glyph-name="uni0421" unicode="&#x421;" horiz-adv-x="768" 
d="M394 -13q-80 0 -145.5 20t-112 59.5t-71.5 98.5t-25 137q0 93 27.5 170.5t79 134t126.5 88t170 31.5q73 0 131.5 -17.5t100 -52.5t65 -88t26.5 -124h-228q-5 51 -28 78t-73 27q-40 0 -70 -19t-50 -51.5t-30 -75.5t-10 -91q0 -30 6 -57t20 -46.5t37 -31t56 -11.5
q48 0 81 26.5t47 81.5h225q-11 -72 -42.5 -126t-79 -89.5t-107 -53.5t-126.5 -18z" />
    <glyph glyph-name="uni0422" unicode="&#x422;" horiz-adv-x="629" 
d="M243 541h-181l29 174h589l-28 -174h-181l-85 -541h-228z" />
    <glyph glyph-name="uni0423" unicode="&#x423;" horiz-adv-x="660" 
d="M183 -10q-42 0 -68.5 4t-31.5 6l24 165q12 -3 25 -5t27 -2q53 0 89 48l-188 509h229l89 -282l136 281l223 1l-273 -502q-29 -53 -58.5 -94.5t-63 -70t-72.5 -43.5t-87 -15z" />
    <glyph glyph-name="uni0424" unicode="&#x424;" horiz-adv-x="931" 
d="M310 -10l15 98q-60 3 -112.5 20t-91.5 47.5t-61.5 75.5t-22.5 105v9q0 64 25.5 117t74 91t118 59.5t156.5 22.5l14 94h224l-15 -94q61 -3 113.5 -20t91.5 -48t61.5 -76t22.5 -105v-7q0 -64 -25.5 -117.5t-73.5 -92t-117.5 -60t-157.5 -21.5l-16 -98h-223zM255 346
q0 -46 23 -75t71 -31l38 246q-33 -1 -57.5 -12t-41 -29t-25 -42t-8.5 -51v-6zM705 377q1 46 -22.5 74.5t-71.5 30.5l-39 -246q33 1 58 12t42 29.5t25 42.5t8 51v6z" />
    <glyph glyph-name="uni0425" unicode="&#x425;" horiz-adv-x="744" 
d="M246 376l-145 339h243l71 -202l129 202h234l-240 -347l159 -368h-244l-87 237l-158 -237h-237z" />
    <glyph glyph-name="uni0426" unicode="&#x426;" horiz-adv-x="818" 
d="M561 -130l14 130h-552l113 715h227l-86 -539h200l85 539h228l-86 -539h102l-49 -306h-196z" />
    <glyph glyph-name="uni0427" unicode="&#x427;" horiz-adv-x="754" 
d="M420 0l43 272q-27 -12 -60 -19.5t-72 -7.5q-65 0 -115 20t-82.5 57.5t-44.5 92t-1 124.5l26 176h227l-29 -179q-8 -53 10 -85t76 -32q44 0 65 12t28 19l42 265h227l-113 -715h-227z" />
    <glyph glyph-name="uni0428" unicode="&#x428;" horiz-adv-x="1088" 
d="M136 715h223l-85 -539h144l85 539h224l-86 -539h144l85 539h224l-113 -715h-958z" />
    <glyph glyph-name="uni0429" unicode="&#x429;" horiz-adv-x="1125" 
d="M868 -130l14 130h-859l113 715h223l-85 -539h144l85 539h224l-86 -539h144l85 539h224l-85 -539h104l-49 -306h-196z" />
    <glyph glyph-name="uni042A" unicode="&#x42a;" horiz-adv-x="776" 
d="M133 0l86 542h-157l29 173h378l-41 -259h51q64 0 115 -12t86.5 -38t54.5 -66.5t19 -97.5q0 -54 -20 -98.5t-57 -76.5t-90.5 -49.5t-120.5 -17.5h-333zM442 151q46 0 71 25t25 66q0 67 -86 67h-47l-25 -158h62z" />
    <glyph glyph-name="uni042B" unicode="&#x42b;" horiz-adv-x="972" 
d="M23 0l113 715h221l-41 -259h49q64 0 115 -12t86.5 -38t54.5 -66.5t19 -97.5q0 -54 -20 -98.5t-57 -76.5t-90.5 -49.5t-120.5 -17.5h-329zM751 715h226l-113 -715h-226zM328 151q46 0 71 25t25 66q0 67 -86 67h-45l-25 -158h60z" />
    <glyph glyph-name="uni042C" unicode="&#x42c;" horiz-adv-x="665" 
d="M23 0l113 715h223l-40 -259h50q64 0 115 -12t86.5 -38t54.5 -66.5t19 -97.5q0 -54 -20 -98.5t-57 -76.5t-90.5 -49.5t-120.5 -17.5h-333zM331 151q46 0 71 25t25 66q0 32 -20 49.5t-65 17.5h-47l-25 -158h61z" />
    <glyph glyph-name="uni042D" unicode="&#x42d;" horiz-adv-x="759" 
d="M354 -13q-71 0 -129 17t-100 50.5t-66.5 83t-28.5 115.5h231q5 -43 28.5 -66t71.5 -23q52 0 86.5 30t51.5 79h-233l25 158h227v8q-5 51 -34 79.5t-85 28.5q-45 0 -77 -24t-46 -73h-225q12 69 44 120.5t78.5 86t104.5 52t124 17.5q80 0 145 -20t111.5 -60t71.5 -100.5
t25 -141.5q0 -90 -27.5 -166t-79 -132t-126 -87.5t-168.5 -31.5z" />
    <glyph glyph-name="uni042E" unicode="&#x42e;" horiz-adv-x="1112" 
d="M691 -14q-62 0 -119 17t-102 50.5t-75 83t-38 114.5q-2 8 -2 15q-1 4 -1 10h-61l-43 -276h-228l113 715h228l-43 -265h56q19 63 55 113.5t84.5 86t109.5 55t130 19.5q70 0 133 -20t110.5 -59.5t75 -98.5t27.5 -137q0 -94 -30 -172t-84 -133.5t-129.5 -86.5t-166.5 -31z
M866 401q0 30 -7 57t-21 46.5t-36.5 31t-53.5 11.5q-39 0 -69.5 -20t-50.5 -53.5t-30.5 -77t-10.5 -89.5q0 -63 30 -103t90 -40q40 0 70 20t49.5 53.5t29.5 76t10 87.5z" />
    <glyph glyph-name="uni042F" unicode="&#x42f;" horiz-adv-x="704" 
d="M438 400l25 160h-64q-46 0 -71.5 -23.5t-25.5 -61.5q0 -35 21.5 -55t66.5 -20h48zM204 0h-243l221 308q-42 25 -69 65t-27 105q0 52 18.5 95.5t55.5 75t91.5 49t126.5 17.5h332l-113 -715h-223l41 256h-38z" />
    <glyph glyph-name="uni0430" unicode="&#x430;" horiz-adv-x="584" 
d="M168 -13q-35 0 -65 9.5t-52 28t-35 45.5t-13 62q0 52 19 87t55 56.5t87.5 31t117.5 9.5h72l2 12q5 32 -4.5 52.5t-48.5 20.5q-33 0 -47.5 -17t-19.5 -39h-184q20 97 86.5 145t173.5 48q134 0 194 -57.5t41 -177.5l-22 -139q-8 -51 -10.5 -91t2.5 -73h-191
q-3 16 -3.5 32.5t0.5 32.5q-22 -31 -58.5 -54.5t-96.5 -23.5zM251 117q32 0 54.5 18.5t27.5 47.5l5 27h-51q-48 0 -68 -11.5t-20 -38.5q0 -18 13 -30.5t39 -12.5z" />
    <glyph glyph-name="uni0431" unicode="&#x431;" horiz-adv-x="620" 
d="M301 -13q-59 0 -108 17.5t-84.5 52.5t-55.5 86.5t-20 120.5q0 39 2 66.5t6 56.5q12 81 38.5 145.5t70.5 110.5t108.5 72t153.5 30q142 7 178 22l-23 -151q-17 -10 -53.5 -15t-101.5 -10q-54 -4 -92 -14.5t-64.5 -30t-43 -51t-26.5 -77.5h4q12 19 30 37t42 31.5t53.5 21.5
t65.5 8q47 0 87 -14.5t69.5 -44t46 -73t16.5 -101.5q0 -68 -22 -122.5t-61.5 -93t-94.5 -59.5t-121 -21zM300 130q27 0 46.5 12t32 32.5t18.5 48t6 59.5q0 38 -18 64t-59 26q-27 0 -47 -12t-32.5 -32t-19 -46.5t-6.5 -54.5q0 -18 3.5 -35.5t12.5 -31t24.5 -22t38.5 -8.5z
" />
    <glyph glyph-name="uni0432" unicode="&#x432;" horiz-adv-x="579" 
d="M90 523h278q50 0 85.5 -10t57.5 -27.5t32 -41.5t10 -51q0 -51 -28.5 -82t-72.5 -41q37 -8 63 -35t26 -75q0 -72 -55.5 -116t-157.5 -44h-320zM268 408l-14 -87h51q62 0 62 48q0 39 -52 39h-47zM238 215l-16 -99h56q32 0 50 13.5t18 39.5q0 25 -16 35.5t-46 10.5h-46z" />
    <glyph glyph-name="uni0433" unicode="&#x433;" horiz-adv-x="446" 
d="M265 391l-61 -391h-196l82 523h377l-22 -132h-180z" />
    <glyph glyph-name="uni0434" unicode="&#x434;" horiz-adv-x="624" 
d="M380 393h-99q-8 -36 -14.5 -69t-12.5 -59q-11 -47 -21.5 -79t-26.5 -54h133zM-62 -127l41 259h33q20 6 35 26.5t26.5 52t20.5 71.5t18 86q2 11 7 36.5t10 51.5q5 31 12 67h451l-61 -391h73l-40 -259h-161l10 127h-284l-30 -127h-161z" />
    <glyph glyph-name="uni0435" unicode="&#x435;" horiz-adv-x="602" 
d="M213 217q0 -20 4.5 -38t15 -31.5t27.5 -21t42 -7.5q37 0 56.5 16t27.5 42h185q-19 -93 -91.5 -141.5t-182.5 -48.5q-57 0 -107.5 14t-88 43.5t-59 74.5t-21.5 108q0 70 23 127.5t63.5 98t96 63t121.5 22.5t117.5 -20t84.5 -58.5t46.5 -93.5t2.5 -125l-3 -23h-360v-1z
M324 412q-31 0 -58 -20.5t-41 -70.5h170q4 40 -12 65.5t-59 25.5z" />
    <glyph glyph-name="uni0436" unicode="&#x436;" horiz-adv-x="840" 
d="M321 240l-152 -240h-209l203 296l-97 227h191l76 -210l33 210h194l-33 -212l141 212h205l-186 -242l108 -281h-205l-75 237l-37 -237h-195z" />
    <glyph glyph-name="uni0437" unicode="&#x437;" horiz-adv-x="526" 
d="M255 -12q-53 0 -96.5 11.5t-76 34.5t-52 59t-23.5 84h177q2 -25 17.5 -38.5t40.5 -13.5q24 0 36 13.5t12 32.5q2 43 -48 43h-58l19 112h64q54 0 54 40q0 15 -10.5 27t-36.5 12q-29 0 -47 -15t-23 -39h-168q20 91 86 138.5t175 47.5q62 0 103.5 -13t66.5 -34t35.5 -47.5
t9.5 -54.5q-2 -48 -33 -78t-76 -40q38 -9 63 -35.5t23 -74.5q0 -36 -17 -67t-48 -54.5t-74 -37t-95 -13.5z" />
    <glyph glyph-name="uni0438" unicode="&#x438;" horiz-adv-x="638" 
d="M8 0l82 523h196l-43 -276l193 276h192l-82 -523h-196l43 276l-192 -276h-193z" />
    <glyph glyph-name="uni0439" unicode="&#x439;" horiz-adv-x="638" 
d="M366 581q-81 0 -123.5 43.5t-43.5 115.5h128q0 -10 1.5 -20.5t6.5 -19.5t13.5 -15t21.5 -6q24 0 34.5 20t12.5 41h128q-11 -75 -59 -117t-120 -42zM8 0l82 523h196l-43 -276l193 276h192l-82 -523h-196l43 276l-192 -276h-193z" />
    <glyph glyph-name="uni043A" unicode="&#x43a;" horiz-adv-x="588" 
d="M238 231l-36 -231h-197l83 523h196l-32 -202l161 202h211l-208 -242l130 -281h-211z" />
    <glyph glyph-name="uni043B" unicode="&#x43b;" horiz-adv-x="591" 
d="M256 253q-9 -49 -23 -96t-37.5 -84t-59.5 -59.5t-90 -22.5q-20 0 -33.5 1t-21.5 3q-10 2 -15 5l25 158q1 -1 5 -2q6 -2 17 -2q16 0 27.5 10.5t20 28.5t14.5 42.5t11 52.5q6 32 12.5 72.5t11.5 76.5q6 42 13 86h449l-82 -523h-197l62 391h-86q-5 -33 -11 -69t-12 -69z" />
    <glyph glyph-name="uni043C" unicode="&#x43c;" horiz-adv-x="769" 
d="M483 0l45 291l-172 -291h-71l-80 291l-46 -291h-150l82 523h230l59 -248l140 248h239l-83 -523h-193z" />
    <glyph glyph-name="uni043D" unicode="&#x43d;" horiz-adv-x="625" 
d="M368 195h-132l-31 -195h-196l82 523h196l-30 -196h132l31 196h195l-82 -523h-196z" />
    <glyph glyph-name="uni043E" unicode="&#x43e;" horiz-adv-x="620" 
d="M294 -13q-53 0 -102 14t-87 43.5t-60.5 75t-22.5 107.5q0 67 22 124t62.5 98t97 64.5t124.5 23.5q53 0 102 -14.5t87 -44t60.5 -75.5t22.5 -109q0 -68 -22.5 -124.5t-63 -97t-96.5 -63t-124 -22.5zM297 132q27 0 47 13t32.5 36t19 54.5t6.5 67.5q0 37 -18 63t-59 26
q-27 0 -47 -12.5t-33.5 -35t-20 -52.5t-6.5 -66q0 -17 3.5 -34t12.5 -30.5t24.5 -21.5t38.5 -8z" />
    <glyph glyph-name="uni043F" unicode="&#x43f;" horiz-adv-x="614" 
d="M388 391h-123l-61 -391h-196l82 523h514l-82 -523h-196z" />
    <glyph glyph-name="uni0440" unicode="&#x440;" horiz-adv-x="646" 
d="M444 538q39 0 72.5 -14t57.5 -42.5t38 -71t14 -98.5q0 -77 -19 -137.5t-52.5 -102t-79.5 -63.5t-100 -22q-60 0 -102 26.5t-58 69.5l-41 -257h-197l83 523q9 57 13.5 97.5t6.5 76.5h192q0 -17 -1 -38.5t-3 -44.5q29 48 71.5 73t104.5 25zM316 135q48 0 78 44.5t30 118.5
q0 46 -19.5 70.5t-57.5 24.5q-24 0 -44.5 -12.5t-35.5 -34t-23 -51.5t-8 -65q0 -95 80 -95z" />
    <glyph glyph-name="uni0441" unicode="&#x441;" horiz-adv-x="584" 
d="M291 -12q-57 0 -106.5 15t-86 45t-57 75t-20.5 105q0 70 21.5 127t61 97.5t94.5 62.5t121 22q52 0 97.5 -12.5t79 -39.5t53 -68.5t21.5 -99.5h-184q-6 69 -71 69q-27 0 -45.5 -13.5t-30 -36t-16.5 -51t-5 -59.5q0 -44 18 -70.5t62 -26.5q34 0 56 20t30 60h176
q-13 -107 -82 -164t-187 -57z" />
    <glyph glyph-name="uni0442" unicode="&#x442;" horiz-adv-x="512" 
d="M370 391l-61 -391h-196l62 391h-141l22 132h476l-23 -132h-139z" />
    <glyph glyph-name="uni0443" unicode="&#x443;" horiz-adv-x="590" 
d="M172 59l-128 464h204l54 -263l130 263h195l-385 -697h-196z" />
    <glyph glyph-name="uni0444" unicode="&#x444;" horiz-adv-x="819" 
d="M247 -174l25 161q-48 5 -93 21.5t-80 46t-56 73t-21 102.5v11q0 64 22.5 117t66 91t106 61t142.5 27l34 212h190l-34 -212q48 -6 93 -22.5t80 -46.5t56 -74t21 -104v-10q0 -63 -23 -115.5t-66.5 -90.5t-106 -60.5t-141.5 -26.5l-26 -161h-189zM212 234q0 -43 18 -72
t64 -33l43 267q-60 -8 -92.5 -48t-32.5 -106v-8zM608 289q0 45 -18 73.5t-64 32.5l-42 -267q59 8 91.5 48.5t32.5 104.5v8z" />
    <glyph glyph-name="uni0445" unicode="&#x445;" horiz-adv-x="602" 
d="M175 269l-119 254h216l52 -128l90 128h207l-201 -247l135 -276h-217l-61 146l-108 -146h-207z" />
    <glyph glyph-name="uni0446" unicode="&#x446;" horiz-adv-x="636" 
d="M413 -127l10 127h-415l82 523h196l-62 -391h123l61 391h196l-62 -391h74l-40 -259h-163z" />
    <glyph glyph-name="uni0447" unicode="&#x447;" horiz-adv-x="589" 
d="M300 0l36 227q-22 -24 -57 -44t-87 -20q-84 0 -122.5 54.5t-21.5 161.5l22 144h197l-22 -142q-6 -38 5.5 -60t44.5 -22t53 14l36 210h195l-83 -523h-196z" />
    <glyph glyph-name="uni0448" unicode="&#x448;" horiz-adv-x="869" 
d="M90 523h193l-62 -391h96l61 391h193l-62 -391h96l61 391h193l-83 -523h-768z" />
    <glyph glyph-name="uni0449" unicode="&#x449;" horiz-adv-x="896" 
d="M673 -127l10 127h-675l82 523h193l-62 -391h96l61 391h193l-62 -391h96l61 391h193l-62 -391h79l-41 -259h-162z" />
    <glyph glyph-name="uni044A" unicode="&#x44a;" horiz-adv-x="624" 
d="M149 392h-115l22 131h308l-27 -173h47q213 0 213 -161q0 -41 -14 -76t-41.5 -60t-69.5 -39t-98 -14h-287zM319 232l-17 -108h44q28 0 43 17t15 44q0 20 -12.5 33.5t-39.5 13.5h-33z" />
    <glyph glyph-name="uni044B" unicode="&#x44b;" horiz-adv-x="793" 
d="M590 523h193l-82 -523h-194zM90 523h195l-27 -173h37q212 0 212 -161q0 -41 -13.5 -76t-41.5 -60t-69.5 -39t-97.5 -14h-277zM240 232l-17 -108h35q29 0 44 17t15 44q0 20 -13 33.5t-40 13.5h-24z" />
    <glyph glyph-name="uni044C" unicode="&#x44c;" horiz-adv-x="545" 
d="M90 523h195l-27 -173h47q213 0 213 -161q0 -41 -14 -76t-41.5 -60t-69.5 -39t-98 -14h-287zM240 232l-17 -108h44q29 0 44 17t15 44q0 20 -13 33.5t-40 13.5h-33z" />
    <glyph glyph-name="uni044D" unicode="&#x44d;" horiz-adv-x="583" 
d="M265 -12q-51 0 -94.5 12.5t-76.5 37t-53 62t-24 88.5h182q7 -26 22.5 -39t47.5 -13t54 19t33 52h-153l17 113h148v4q0 2 -0.5 3.5t-0.5 3.5q-6 68 -79 68q-32 0 -52 -16.5t-29 -46.5h-176q17 97 84.5 149t179.5 52q58 0 107 -15.5t85 -46t56 -76t20 -106.5
q0 -67 -21 -123t-60 -96.5t-94 -63t-123 -22.5z" />
    <glyph glyph-name="uni044E" unicode="&#x44e;" horiz-adv-x="852" 
d="M532 -13q-46 0 -89 12t-77.5 36.5t-58.5 62t-31 88.5q0 1 -0.5 3t-0.5 4v4h-41l-31 -197h-195l82 523h195l-31 -198h32q13 48 39 87t62 66.5t81.5 43t97.5 15.5q51 0 98.5 -14.5t85 -44t60 -75.5t22.5 -109q0 -68 -22.5 -124.5t-62 -97t-94.5 -63t-121 -22.5zM535 132
q25 0 43.5 13t31 36t18.5 54.5t6 67.5q0 37 -17.5 63t-53.5 26q-24 0 -43 -12.5t-32 -35t-19.5 -53t-6.5 -66.5q0 -17 3.5 -34t12 -30t22.5 -21t35 -8z" />
    <glyph glyph-name="uni044F" unicode="&#x44f;" horiz-adv-x="580" 
d="M341 293l17 107h-57q-32 0 -47 -16t-15 -42q0 -21 13 -35t43 -14h46zM168 0h-199l159 221q-32 14 -55.5 45t-23.5 85q0 35 14 66t41.5 54.5t69.5 37.5t98 14h298l-82 -523h-192l29 183h-35z" />
    <glyph glyph-name="uni0451" unicode="&#x451;" horiz-adv-x="602" 
d="M213 217q0 -20 4.5 -38t15 -31.5t27.5 -21t42 -7.5q37 0 56.5 16t27.5 42h185q-19 -93 -91.5 -141.5t-182.5 -48.5q-57 0 -107.5 14t-88 43.5t-59 74.5t-21.5 108q0 70 23 127.5t63.5 98t96 63t121.5 22.5t117.5 -20t84.5 -58.5t46.5 -93.5t2.5 -125l-3 -23h-360v-1z
M324 412q-31 0 -58 -20.5t-41 -70.5h170q4 40 -12 65.5t-59 25.5zM236 570q-19 0 -35.5 7t-29 19t-19.5 28t-7 35q0 18 7 34.5t19.5 28.5t29.5 19t36 7q38 0 64.5 -26t26.5 -63q0 -18 -7 -34.5t-19.5 -28.5t-29.5 -19t-36 -7zM453 570q-19 0 -35.5 7t-28.5 19t-19 28t-7 35
q0 37 26 63t64 26q39 0 65.5 -26t26.5 -63t-26.5 -63t-65.5 -26z" />
    <glyph glyph-name="uni0452" unicode="&#x452;" horiz-adv-x="627" 
d="M541 -8q-6 -38 -22.5 -72t-48.5 -58t-84 -36.5t-129 -8.5l21 139q32 2 48 14t21 41l45 286q13 83 -54 83q-76 0 -91 -94l-45 -286h-197l92 582h-53l16 102h53l11 65h196l-10 -65h151l-16 -102h-151l-23 -146q27 44 69 73t106 29q36 0 67 -12.5t51.5 -39.5t28.5 -69.5
t-1 -101.5z" />
    <glyph glyph-name="uni0453" unicode="&#x453;" horiz-adv-x="446" 
d="M275 747h194l-125 -169h-142zM265 391l-61 -391h-196l82 523h377l-22 -132h-180z" />
    <glyph glyph-name="uni0454" unicode="&#x454;" horiz-adv-x="584" 
d="M558 190q-16 -97 -83.5 -149.5t-183.5 -52.5q-58 0 -107.5 15.5t-85.5 46t-56.5 76.5t-20.5 107q0 67 21.5 123t60.5 96t94 62.5t122 22.5q52 0 95.5 -12t75.5 -36.5t52 -62t25 -89.5h-184q-7 26 -21.5 39t-46.5 13t-53.5 -19t-33.5 -52h154l-18 -113h-147v-5
q5 -35 24.5 -54.5t56.5 -19.5q65 0 82 64h178z" />
    <glyph glyph-name="uni0455" unicode="&#x455;" horiz-adv-x="519" 
d="M233 -14q-54 0 -98.5 10.5t-76 33t-49 57t-17.5 81.5h182q2 -25 15.5 -39.5t48.5 -14.5q53 0 53 37q0 17 -16.5 26t-69.5 19q-89 17 -131 52t-42 104q0 46 18.5 81.5t50.5 58.5t76.5 34.5t97.5 11.5q49 0 90.5 -9.5t71.5 -30.5t47.5 -54t20.5 -79h-179q-2 20 -15.5 34.5
t-40.5 14.5q-53 0 -53 -35q0 -18 18.5 -26.5t57.5 -16.5q52 -10 88.5 -22.5t59.5 -31.5t33.5 -46t10.5 -64q0 -48 -19 -83t-52.5 -58t-80 -34t-100.5 -11z" />
    <glyph glyph-name="uni0456" unicode="&#x456;" horiz-adv-x="302" 
d="M211 563q-46 0 -75 28t-29 70q0 43 29.5 70.5t75.5 27.5q45 0 74.5 -27.5t29.5 -70.5q0 -21 -8 -39t-22.5 -31t-33.5 -20.5t-41 -7.5zM93 523h197l-83 -523h-196z" />
    <glyph glyph-name="uni0457" unicode="&#x457;" horiz-adv-x="302" 
d="M107 570q-38 0 -64.5 25.5t-26.5 63.5q0 18 7 34.5t19.5 28.5t29.5 19t36 7q38 0 64.5 -26t26.5 -63q0 -18 -7 -34.5t-19.5 -28.5t-29.5 -19t-36 -7zM322 570q-19 0 -35.5 7t-28.5 19t-19 28t-7 35q0 18 7 34.5t19 28.5t28.5 19t35.5 7q39 0 65.5 -26t26.5 -63t-26.5 -63
t-65.5 -26zM93 523h197l-83 -523h-196z" />
    <glyph glyph-name="uni0458" unicode="&#x458;" horiz-adv-x="302" 
d="M-57 -42q31 2 48 14t21 41l81 510h196l-84 -529q-6 -38 -22 -72t-48.5 -58t-84.5 -36.5t-129 -8.5zM210 563q-45 0 -74 28t-29 70q0 43 29.5 70.5t74.5 27.5t74.5 -27.5t29.5 -70.5q0 -42 -30 -70t-75 -28z" />
    <glyph glyph-name="uni0459" unicode="&#x459;" horiz-adv-x="821" 
d="M256 253q-9 -49 -23 -96t-37.5 -84t-59.5 -59.5t-90 -22.5q-20 0 -33.5 1t-21.5 3q-10 2 -15 5l25 158q1 -1 5 -2q6 -2 17 -2q16 0 27.5 10.5t20 28.5t14.5 42.5t11 52.5q6 32 12.5 72.5t11.5 76.5q6 42 13 86h438l-28 -173h38q212 0 212 -161q0 -41 -13.5 -76t-41.5 -60
t-69.5 -39t-97.5 -14h-278l62 391h-76q-5 -33 -11 -69t-12 -69zM525 232l-17 -108h34q29 0 44 17t15 44q0 20 -12.5 33.5t-40.5 13.5h-23z" />
    <glyph glyph-name="uni045A" unicode="&#x45a;" horiz-adv-x="853" 
d="M557 232l-17 -108h35q29 0 44 17t15 44q0 20 -13 33.5t-40 13.5h-24zM356 195h-121l-31 -195h-196l82 523h196l-30 -196h121l31 196h195l-28 -173h38q213 0 213 -161q0 -41 -14 -76t-41.5 -60t-69.5 -39t-98 -14h-278z" />
    <glyph glyph-name="uni045B" unicode="&#x45b;" horiz-adv-x="627" 
d="M60 684h53l11 65h196l-10 -65h151l-16 -102h-151l-23 -146q27 44 69 73t106 29q36 0 67 -12.5t51.5 -39.5t28.5 -69.5t-1 -101.5l-50 -315h-197l47 297q13 83 -54 83q-76 0 -91 -94l-45 -286h-197l92 582h-53z" />
    <glyph glyph-name="uni045C" unicode="&#x45c;" horiz-adv-x="588" 
d="M238 231l-36 -231h-197l83 523h196l-32 -202l161 202h211l-208 -242l130 -281h-211zM332 747h194l-125 -169h-142z" />
    <glyph glyph-name="uni045D" unicode="&#x45d;" horiz-adv-x="638" 
d="M8 0l82 523h196l-43 -276l193 276h192l-82 -523h-196l43 276l-192 -276h-193zM209 747h192l38 -169h-137z" />
    <glyph glyph-name="uni045E" unicode="&#x45e;" horiz-adv-x="590" 
d="M345 581q-80 0 -122.5 43.5t-43.5 115.5h127q0 -10 2 -20.5t7 -19.5t13 -15t21 -6q24 0 35 20t13 41h128q-11 -75 -59.5 -117t-120.5 -42zM172 59l-128 464h204l54 -263l130 263h195l-385 -697h-196z" />
    <glyph glyph-name="uni045F" unicode="&#x45f;" horiz-adv-x="614" 
d="M8 0l82 523h196l-62 -391h123l61 391h196l-82 -523h-170l-28 -127h-158l13 127h-171z" />
    <glyph glyph-name="uni0490" unicode="&#x490;" horiz-adv-x="570" 
d="M251 0h-228l113 715h281l28 130h195l-46 -305h-259z" />
    <glyph glyph-name="uni0491" unicode="&#x491;" horiz-adv-x="446" 
d="M265 391l-61 -391h-196l82 523h207l30 127h159l-41 -259h-180z" />
    <glyph glyph-name="Wgrave" unicode="&#x1e80;" horiz-adv-x="1000" 
d="M77 715h229l14 -432l158 432h191l33 -437l156 437h208l-283 -715h-221l-35 416l-164 -416h-229zM420 906h199l32 -149h-144z" />
    <glyph glyph-name="wgrave" unicode="&#x1e81;" horiz-adv-x="842" 
d="M45 523h199l23 -294l120 294h158l25 -294l119 294h190l-246 -523h-185l-27 275l-115 -275h-190zM302 747h192l38 -169h-137z" />
    <glyph glyph-name="Wacute" unicode="&#x1e82;" horiz-adv-x="1000" 
d="M77 715h229l14 -432l158 432h191l33 -437l156 437h208l-283 -715h-221l-35 416l-164 -416h-229zM560 906h201l-115 -149h-150z" />
    <glyph glyph-name="wacute" unicode="&#x1e83;" horiz-adv-x="842" 
d="M45 523h199l23 -294l120 294h158l25 -294l119 294h190l-246 -523h-185l-27 275l-115 -275h-190zM476 747h194l-125 -169h-142z" />
    <glyph glyph-name="Wdieresis" unicode="&#x1e84;" horiz-adv-x="1000" 
d="M77 715h229l14 -432l158 432h191l33 -437l156 437h208l-283 -715h-221l-35 416l-164 -416h-229zM466 752q-19 0 -35.5 7t-29 19t-19.5 28.5t-7 34.5t7 34.5t19.5 28.5t29.5 19t36 7q38 0 64.5 -25.5t26.5 -63.5q0 -18 -7 -34.5t-19.5 -28.5t-29.5 -19t-36 -7zM693 752
q-19 0 -35.5 7t-29 19t-19.5 28.5t-7 34.5t7 34.5t19.5 28.5t29 19t35.5 7q39 0 65.5 -25.5t26.5 -63.5q0 -18 -7 -34.5t-19.5 -28.5t-29.5 -19t-36 -7z" />
    <glyph glyph-name="wdieresis" unicode="&#x1e85;" horiz-adv-x="842" 
d="M45 523h199l23 -294l120 294h158l25 -294l119 294h190l-246 -523h-185l-27 275l-115 -275h-190zM365 570q-19 0 -35.5 7t-29 19t-19.5 28t-7 35q0 18 7 34.5t19.5 28.5t29.5 19t36 7q38 0 64.5 -26t26.5 -63q0 -18 -7 -34.5t-19.5 -28.5t-29.5 -19t-36 -7zM582 570
q-19 0 -35.5 7t-28.5 19t-19 28t-7 35q0 37 26 63t64 26q39 0 65.5 -26t26.5 -63t-26.5 -63t-65.5 -26z" />
    <glyph glyph-name="Ygrave" unicode="&#x1ef2;" horiz-adv-x="693" 
d="M241 306l-166 409h235l77 -221l143 221h226l-288 -421l-46 -294h-228zM265 906h199l32 -149h-144z" />
    <glyph glyph-name="ygrave" unicode="&#x1ef3;" horiz-adv-x="590" 
d="M172 59l-128 464h204l54 -263l130 263h195l-385 -697h-196zM185 747h192l38 -169h-137z" />
    <glyph glyph-name="uni2009" unicode="&#x2009;" horiz-adv-x="81" 
 />
    <glyph glyph-name="endash" unicode="&#x2013;" horiz-adv-x="543" 
d="M59 351h452l-18 -112h-452z" />
    <glyph glyph-name="emdash" unicode="&#x2014;" horiz-adv-x="958" 
d="M59 351h866l-18 -112h-866z" />
    <glyph glyph-name="quoteleft" unicode="&#x2018;" horiz-adv-x="307" 
d="M59 473l162 255l107 -40l-101 -271z" />
    <glyph glyph-name="quoteright" unicode="&#x2019;" horiz-adv-x="307" 
d="M73 458l100 270l168 -56l-161 -255z" />
    <glyph glyph-name="quotesinglbase" unicode="&#x201a;" horiz-adv-x="307" 
d="M-18 -64l100 271l168 -57l-162 -255z" />
    <glyph glyph-name="quotedblleft" unicode="&#x201c;" horiz-adv-x="543" 
d="M59 473l162 255l107 -40l-101 -271zM295 473l162 255l106 -40l-100 -271z" />
    <glyph glyph-name="quotedblright" unicode="&#x201d;" horiz-adv-x="543" 
d="M73 458l100 270l168 -56l-161 -255zM308 458l101 270l168 -56l-162 -255z" />
    <glyph glyph-name="quotedblbase" unicode="&#x201e;" horiz-adv-x="543" 
d="M-18 -64l100 271l168 -57l-162 -255zM217 -64l101 271l168 -57l-162 -255z" />
    <glyph glyph-name="dagger" unicode="&#x2020;" horiz-adv-x="411" 
d="M157 464h-105l22 136h105l19 115h157l-18 -115h104l-21 -136h-105l-40 -251h-157z" />
    <glyph glyph-name="daggerdbl" unicode="&#x2021;" horiz-adv-x="411" 
d="M163 497h-105l19 123h105l16 95h157l-15 -95h105l-20 -123h-105l-10 -66h105l-19 -123h-105l-16 -95h-157l15 95h-105l19 123h106z" />
    <glyph glyph-name="bullet" unicode="&#x2022;" horiz-adv-x="379" 
d="M189 150q-32 0 -59 11.5t-46.5 31t-30 45.5t-10.5 54q0 36 12 66t33.5 51t50 33t61.5 12t60 -11.5t46.5 -31.5t30 -46.5t10.5 -55.5q0 -35 -12 -64t-33.5 -50t-50.5 -33t-62 -12z" />
    <glyph glyph-name="ellipsis" unicode="&#x2026;" horiz-adv-x="909" 
d="M122 -12q-48 0 -78.5 31t-30.5 77q0 45 30 76t78 31q24 0 45 -8.5t36 -23t23.5 -34t8.5 -41.5q0 -46 -31.5 -77t-80.5 -31zM425 -12q-48 0 -78.5 31t-30.5 77q0 45 30 76t78 31q24 0 45 -8.5t36.5 -23t24 -34t8.5 -41.5q0 -46 -32 -77t-81 -31zM729 -12q-24 0 -44 8.5
t-34.5 23t-23 34t-8.5 42.5q0 45 30.5 76t78.5 31q24 0 44.5 -8.5t36 -23t24 -34t8.5 -41.5q0 -23 -8.5 -42.5t-23.5 -34t-35.5 -23t-44.5 -8.5z" />
    <glyph glyph-name="perthousand" unicode="&#x2030;" horiz-adv-x="1237" 
d="M198 528q0 -21 10.5 -37.5t37.5 -16.5q15 0 26 8t17.5 21t10 28.5t3.5 30.5q0 21 -11 37t-35 16q-30 0 -44.5 -26t-14.5 -61zM241 363q-37 0 -70.5 10t-59 30.5t-40.5 50t-15 68.5q0 42 15 78.5t42 64t65 43t84 15.5q36 0 69 -10.5t58 -31t40 -50t15 -68.5q0 -41 -15 -77
t-41.5 -63.5t-64 -43.5t-82.5 -16zM674 715h102l-582 -715h-102zM561 152q0 -20 10.5 -37t37.5 -16q29 1 43 28.5t14 59.5q0 21 -11 36.5t-35 15.5q-30 0 -44.5 -26t-14.5 -61zM604 -13q-37 0 -70.5 10t-59 30.5t-40.5 50.5t-15 69q0 41 15 77.5t42 64t64.5 43.5t83.5 16
q36 0 69.5 -10.5t58.5 -31t40 -50t15 -68.5q0 -41 -15 -77.5t-41.5 -64t-64 -43.5t-82.5 -16zM971 152q0 -20 10.5 -37t37.5 -16q29 1 43 28.5t14 59.5q0 21 -11 36.5t-35 15.5q-30 0 -44.5 -26t-14.5 -61zM1014 -13q-38 0 -71.5 10t-58.5 30.5t-40 50.5t-15 69
q0 41 15 77.5t42 64t64.5 43.5t83.5 16q36 0 69.5 -10.5t58.5 -31t40 -50t15 -68.5q0 -41 -15 -77.5t-41.5 -64t-64 -43.5t-82.5 -16z" />
    <glyph glyph-name="uni2032" unicode="&#x2032;" horiz-adv-x="256" 
d="M122 715h184l-109 -281h-139z" />
    <glyph glyph-name="uni2033" unicode="&#x2033;" horiz-adv-x="478" 
d="M122 715h184l-109 -281h-139zM344 715h184l-109 -281h-139z" />
    <glyph glyph-name="guilsinglleft" unicode="&#x2039;" horiz-adv-x="304" 
d="M24 267l151 188h133l-148 -189l83 -199h-124z" />
    <glyph glyph-name="guilsinglright" unicode="&#x203a;" horiz-adv-x="304" 
d="M276 255l-151 -188h-133l149 189l-84 199h124z" />
    <glyph glyph-name="fraction" unicode="&#x2044;" horiz-adv-x="178" 
d="M357 715h101l-614 -715h-100z" />
    <glyph glyph-name="Euro" unicode="&#x20ac;" horiz-adv-x="727" 
d="M50 452h59q32 129 117.5 201.5t219.5 72.5q65 0 117.5 -16t89.5 -49t57 -83t19 -117h-210q0 41 -16.5 67.5t-63.5 26.5q-44 0 -70 -27.5t-40 -75.5h139l-23 -74h-131l-7 -46h123l-24 -74h-105q1 -21 5.5 -38.5t15 -30.5t27 -20.5t41.5 -7.5q43 0 70 25t41 82h207
q-26 -143 -110 -212t-219 -69q-70 0 -124 19t-91.5 54t-58 85.5t-21.5 112.5h-64l12 74h56l7 46h-56z" />
    <glyph glyph-name="uni20B4" unicode="&#x20b4;" horiz-adv-x="681" 
d="M652 229q-23 -117 -109 -179.5t-226 -61.5q-65 0 -114 14.5t-81 40t-48 60.5t-16 77q0 47 21 85h-60l11 73h119q20 14 44.5 26.5t53.5 24.5h-210l12 73h367q12 11 16.5 24t4.5 29q2 51 -51 51q-32 0 -52.5 -16.5t-29.5 -52.5h-207q22 116 102.5 172t210.5 56
q58 0 103.5 -15.5t76.5 -42t47 -60.5t16 -70q0 -41 -15 -75h54l-12 -73h-99q-33 -28 -86 -51h178l-11 -73h-353q-18 -15 -24.5 -31.5t-6.5 -34.5q-1 -23 15 -37.5t45 -14.5q50 0 72 24.5t30 57.5h212z" />
    <glyph glyph-name="uni20B8" unicode="&#x20b8;" horiz-adv-x="616" 
d="M82 642l12 73h570l-11 -73h-571zM217 412h-171l28 174h570l-29 -174h-170l-65 -412h-228z" />
    <glyph glyph-name="uni20BD" unicode="&#x20bd;" horiz-adv-x="698" 
d="M395 385q48 0 74.5 24t26.5 72q0 67 -83 67h-44l-25 -163h51zM302 112l-18 -112h-227l18 112h-85l12 74h84l8 47h-85l11 73h85l65 409h267q135 0 203.5 -56t69.5 -152q0 -67 -21 -118t-61 -85.5t-96.5 -52.5t-126.5 -18h-84l-7 -47h210l-11 -74h-211z" />
    <glyph glyph-name="uni2116" unicode="&#x2116;" horiz-adv-x="1194" 
d="M972 328q-88 0 -139.5 44t-51.5 125q0 51 18.5 92.5t50.5 71.5t74 46t89 16q95 0 143 -47.5t48 -125.5q0 -51 -19 -92.5t-51 -70t-74 -44t-88 -15.5zM983 445q16 0 28 9t20 24t12 35t4 41q0 24 -10 39t-34 15q-32 0 -49 -31.5t-17 -77.5q0 -26 11.5 -40t34.5 -14z
M136 715h255l110 -365l58 365h200l-113 -715h-218l-139 414l-65 -414h-201zM762 270h397l-15 -100h-397z" />
    <glyph glyph-name="trademark" unicode="&#x2122;" horiz-adv-x="768" 
d="M410 715h133l30 -146l78 146h144l-51 -321h-117l26 170l-93 -170h-36l-38 170l-27 -170h-100zM163 623h-81l15 92h277l-15 -92h-80l-37 -229h-116z" />
    <glyph glyph-name="onethird" unicode="&#x2153;" horiz-adv-x="839" 
d="M154 574l-89 -45l19 118l114 68h124l-61 -382h-145zM655 715h101l-614 -715h-100zM618 -7q-76 0 -123.5 32t-48.5 105h128q0 -38 38 -38q13 0 24.5 7.5t11.5 25.5q0 27 -41 27h-29l12 79h35q41 0 41 32q0 11 -6.5 18.5t-23.5 7.5q-14 0 -25.5 -8.5t-15.5 -26.5h-126
q9 63 55.5 98.5t124.5 35.5q27 0 54.5 -5t49 -17t35.5 -32t14 -50q0 -36 -21 -58.5t-56 -32.5q29 -7 47 -25t18 -53q0 -32 -14 -55t-37.5 -38t-55 -22t-65.5 -7z" />
    <glyph glyph-name="twothirds" unicode="&#x2154;" horiz-adv-x="899" 
d="M21 351l149 133q14 12 29.5 26t28 28t21 26.5t8.5 23.5q0 28 -25 28q-15 0 -26 -12t-17 -39h-132q11 79 61.5 117.5t124.5 38.5q32 0 60.5 -6t50 -20t34 -36t12.5 -55q0 -41 -28.5 -75t-75.5 -73l-24 -20h103l-16 -103h-341zM737 715h101l-614 -715h-100zM679 -7
q-76 0 -123.5 32t-48.5 105h128q0 -38 38 -38q13 0 24.5 7.5t11.5 25.5q0 27 -41 27h-29l12 79h35q41 0 41 32q0 11 -6.5 18.5t-23.5 7.5q-14 0 -25.5 -8.5t-15.5 -26.5h-126q9 63 55.5 98.5t124.5 35.5q27 0 54.5 -5t49 -17t35.5 -32t14 -50q0 -36 -21 -58.5t-56 -32.5
q29 -7 47 -25t18 -53q0 -32 -14 -55t-37.5 -38t-55 -22t-65.5 -7z" />
    <glyph glyph-name="oneeighth" unicode="&#x215b;" horiz-adv-x="837" 
d="M153 574l-89 -45l19 118l114 68h124l-61 -382h-145zM657 715h101l-614 -715h-100zM616 -7q-32 0 -64.5 5t-58 18t-41.5 33.5t-16 52.5q0 45 23 68t61 35q-20 11 -32.5 27.5t-12.5 39.5q0 31 14.5 53t37.5 36t52.5 20.5t59.5 6.5q31 0 60 -6t51.5 -18.5t36 -32.5t13.5 -48
q0 -70 -64 -89q29 -11 43 -31.5t14 -45.5q0 -35 -15.5 -59t-41 -38.5t-57 -20.5t-63.5 -6zM580 120q0 -13 9 -22.5t26 -9.5t28.5 9.5t11.5 28.5q0 14 -9 23.5t-26 9.5q-16 0 -28 -10t-12 -29zM602 261q0 -14 8.5 -22t23.5 -8t25.5 9t10.5 26q0 14 -9.5 22t-23.5 8
q-13 0 -24 -9t-11 -26z" />
    <glyph glyph-name="threeeighths" unicode="&#x215c;" horiz-adv-x="898" 
d="M223 326q-76 0 -123.5 32t-48.5 105h128q0 -38 38 -38q13 0 24.5 7.5t11.5 25.5q0 27 -41 27h-29l12 79h35q41 0 41 32q0 11 -6.5 18.5t-23.5 7.5q-14 0 -25.5 -8.5t-15.5 -26.5h-126q9 63 55.5 98.5t124.5 35.5q27 0 54.5 -5t49 -17t35.5 -32t14 -50q0 -36 -21 -58.5
t-56 -32.5q29 -7 47 -25t18 -53q0 -32 -14 -55t-37.5 -38t-55 -22t-65.5 -7zM722 715h101l-614 -715h-100zM677 -7q-32 0 -64.5 5t-58 18t-41.5 33.5t-16 52.5q0 45 23 68t61 35q-20 11 -32.5 27.5t-12.5 39.5q0 31 14.5 53t37.5 36t52.5 20.5t59.5 6.5q31 0 60 -6
t51.5 -18.5t36 -32.5t13.5 -48q0 -70 -64 -89q29 -11 43 -31.5t14 -45.5q0 -35 -15.5 -59t-41 -38.5t-57 -20.5t-63.5 -6zM641 120q0 -13 9 -22.5t26 -9.5t28.5 9.5t11.5 28.5q0 14 -9 23.5t-26 9.5q-16 0 -28 -10t-12 -29zM663 261q0 -14 8.5 -22t23.5 -8t25.5 9t10.5 26
q0 14 -9.5 22t-23.5 8q-13 0 -24 -9t-11 -26z" />
    <glyph glyph-name="fiveeighths" unicode="&#x215d;" horiz-adv-x="877" 
d="M218 326q-32 0 -62 6.5t-54 22t-39 40.5t-16 61h135q1 -11 8 -18.5t24 -7.5q14 0 25 10t11 30q0 32 -33 32q-14 0 -23 -6t-15 -17h-113l50 236h291l-16 -100h-192l-16 -76q13 18 37 33.5t66 15.5q47 0 77 -25.5t30 -78.5q-1 -81 -49 -119.5t-126 -38.5zM704 715h101
l-614 -715h-100zM656 -7q-32 0 -64.5 5t-58 18t-41.5 33.5t-16 52.5q0 45 23 68t61 35q-20 11 -32.5 27.5t-12.5 39.5q0 31 14.5 53t37.5 36t52.5 20.5t59.5 6.5q31 0 60 -6t51.5 -18.5t36 -32.5t13.5 -48q0 -70 -64 -89q29 -11 43 -31.5t14 -45.5q0 -35 -15.5 -59
t-41 -38.5t-57 -20.5t-63.5 -6zM620 120q0 -13 9 -22.5t26 -9.5t28.5 9.5t11.5 28.5q0 14 -9 23.5t-26 9.5q-16 0 -28 -10t-12 -29zM642 261q0 -14 8.5 -22t23.5 -8t25.5 9t10.5 26q0 14 -9.5 22t-23.5 8q-13 0 -24 -9t-11 -26z" />
    <glyph glyph-name="seveneighths" unicode="&#x215e;" horiz-adv-x="831" 
d="M219 602h-144l18 113h329l-3 -16l-197 -366h-147zM649 715h101l-614 -715h-100zM610 -7q-32 0 -64.5 5t-58 18t-41.5 33.5t-16 52.5q0 45 23 68t61 35q-20 11 -32.5 27.5t-12.5 39.5q0 31 14.5 53t37.5 36t52.5 20.5t59.5 6.5q31 0 60 -6t51.5 -18.5t36 -32.5t13.5 -48
q0 -70 -64 -89q29 -11 43 -31.5t14 -45.5q0 -35 -15.5 -59t-41 -38.5t-57 -20.5t-63.5 -6zM574 120q0 -13 9 -22.5t26 -9.5t28.5 9.5t11.5 28.5q0 14 -9 23.5t-26 9.5q-16 0 -28 -10t-12 -29zM596 261q0 -14 8.5 -22t23.5 -8t25.5 9t10.5 26q0 14 -9.5 22t-23.5 8
q-13 0 -24 -9t-11 -26z" />
    <glyph glyph-name="minus" unicode="&#x2212;" horiz-adv-x="582" 
d="M61 414h507l-24 -149h-507z" />
    <glyph glyph-name="approxequal" unicode="&#x2248;" horiz-adv-x="593" 
d="M55 341q7 52 22.5 88t37 58.5t47.5 32.5t54 10q30 0 61 -6t59.5 -13.5t53.5 -13.5t43 -6q38 0 49 43h111q-5 -48 -20.5 -83.5t-37 -58.5t-48.5 -34.5t-55 -11.5q-30 0 -61 6t-59.5 13.5t-53.5 13.5t-43 6q-39 0 -50 -44h-110zM18 113q7 52 22.5 87.5t37 58t47.5 32.5
t55 10q30 0 60.5 -6t59 -13.5t53.5 -13.5t43 -6q40 0 49 44h111q-5 -48 -20 -83.5t-37 -59t-48.5 -35t-54.5 -11.5q-31 0 -62 6t-59.5 13.5t-53.5 14t-43 6.5q-20 0 -32 -12t-17 -32h-111z" />
    <glyph glyph-name="notequal" unicode="&#x2260;" horiz-adv-x="570" 
d="M73 492h243l49 96h123l-49 -96h127l-20 -131h-173l-34 -68h196l-20 -131h-243l-48 -96h-122l48 96h-128l20 131h174l34 68h-197z" />
    <glyph glyph-name="lessequal" unicode="&#x2264;" horiz-adv-x="514" 
d="M57 382l6 36l464 224l-28 -178l-160 -71l137 -75l-27 -171zM17 126h429l-20 -126h-428z" />
    <glyph glyph-name="greaterequal" unicode="&#x2265;" horiz-adv-x="514" 
d="M24 126h428l-20 -126h-428zM497 407l-6 -36l-464 -224l27 178l161 71l-138 74l28 172z" />
    <glyph glyph-name="uni24C5" unicode="&#x24c5;" horiz-adv-x="842" 
d="M287 562h165q90 0 129 -38t39 -102v-2q0 -65 -40 -99.5t-121 -34.5h-38v-129h-134v405zM444 376q50 0 50 44v2q0 39 -49 39h-24v-85h23zM433 31q67 0 125.5 23.5t102.5 67t69.5 103.5t25.5 134q0 72 -25 132t-68 103t-102 66.5t-126 23.5q-68 0 -127 -24t-102.5 -67
t-68.5 -103t-25 -133q0 -74 25.5 -134t69 -102.5t102 -66t124.5 -23.5zM433 -21q-80 0 -150.5 29t-123 79.5t-82.5 119.5t-30 150q0 79 30 148.5t82.5 120.5t123.5 80.5t152 29.5q82 0 152.5 -29t122.5 -80t81.5 -120t29.5 -148q0 -81 -30 -150.5t-82.5 -120.5t-123.5 -80
t-152 -29z" />
    <glyph glyph-name="zero.tab" unicode="&#xe44f;" 
d="M233 284q-2 -17 -4 -32t-2 -27q0 -33 13.5 -52t47.5 -19q37 0 54 28.5t28 93.5l25 153q6 37 6 62q0 34 -13.5 52.5t-45.5 18.5q-37 0 -55 -29t-29 -95zM274 -13q-114 0 -180 60t-66 176q0 36 6 75l25 154q22 137 99 205.5t194 68.5q56 0 102 -15.5t78.5 -45.5t50 -74
t17.5 -101q0 -17 -1 -34.5t-4 -35.5l-25 -154q-23 -139 -97.5 -209t-198.5 -70z" />
    <glyph glyph-name="one.tab" unicode="&#xe450;" 
d="M275 487l-182 -105l31 192l218 141h200l-113 -715h-231z" />
    <glyph glyph-name="two.tab" unicode="&#xe451;" 
d="M-15 31l251 264q19 20 44 47t47 56t37.5 58t15.5 54q0 22 -10.5 36.5t-35.5 14.5q-14 0 -25.5 -5.5t-20.5 -18t-16.5 -34t-13.5 -54.5h-204q20 140 94.5 208.5t209.5 67.5q48 0 91.5 -10.5t76.5 -33.5t53 -60t21 -90q0 -42 -12 -78.5t-36 -71.5t-58.5 -71t-78.5 -77
l-72 -63h204l-26 -170h-541z" />
    <glyph glyph-name="three.tab" unicode="&#xe452;" 
d="M289 -13q-62 0 -113.5 13t-89 42.5t-57.5 78t-17 119.5h194q0 -42 14.5 -66.5t59.5 -24.5q38 0 58.5 20.5t20.5 63.5q0 28 -15.5 44.5t-53.5 16.5h-52l22 137h60q33 0 56 18t23 61q0 25 -14.5 39.5t-45.5 14.5q-32 0 -54 -19t-30 -65h-195q20 117 93.5 181t196.5 64
q45 0 89 -9t79.5 -31t57.5 -58t22 -90q0 -67 -35 -111t-95 -61q48 -14 75 -50t27 -90q0 -56 -20 -100t-57 -74.5t-89 -47t-115 -16.5z" />
    <glyph glyph-name="four.tab" unicode="&#xe453;" 
d="M285 134h-292l12 80l323 501h251l-68 -432h69l-24 -149h-70l-20 -134h-201zM314 283l40 254l-158 -254h118z" />
    <glyph glyph-name="five.tab" unicode="&#xe454;" 
d="M274 -13q-62 0 -111 15t-81.5 45.5t-48.5 76.5t-12 108h192q-1 -35 13.5 -54t51.5 -19q41 0 60 29.5t19 73.5q0 35 -19.5 54t-57.5 19q-35 0 -59 -14t-40 -35h-130l84 429h461l-25 -163h-308l-29 -149q23 30 62 54t96 24q83 0 130.5 -49.5t47.5 -145.5q0 -68 -19.5 -123
t-57.5 -94t-93 -60.5t-126 -21.5z" />
    <glyph glyph-name="six.tab" unicode="&#xe455;" 
d="M296 -13q-60 0 -109 15.5t-84 46.5t-54.5 78t-19.5 111q0 21 2.5 45.5t6.5 47.5l11 74q25 155 108.5 237.5t214.5 82.5q118 0 176.5 -52.5t56.5 -164.5h-185q0 28 -11.5 44.5t-45.5 16.5q-49 0 -76.5 -49t-41.5 -133q22 29 58 53t90 24q39 0 72.5 -12.5t58 -37.5
t38.5 -61t14 -84q0 -62 -19.5 -114t-56 -89.5t-88.5 -58t-116 -20.5zM222 229q0 -32 18.5 -55.5t56.5 -23.5t61.5 27t23.5 71q0 32 -18 53.5t-54 21.5q-37 0 -62.5 -25t-25.5 -69z" />
    <glyph glyph-name="seven.tab" unicode="&#xe456;" 
d="M333 533h-262l29 182h546l-4 -23l-356 -692h-230z" />
    <glyph glyph-name="eight.tab" unicode="&#xe457;" 
d="M286 -13q-48 0 -97 10t-88 32.5t-64 60t-25 93.5q0 75 38.5 124t107.5 75q-32 19 -53 50t-21 73q0 53 21.5 94t58 69t84 42.5t98.5 14.5q44 0 87.5 -10t78 -32.5t56 -57.5t21.5 -86q0 -67 -30 -106.5t-83 -64.5q46 -23 69.5 -59.5t23.5 -83.5q0 -60 -22.5 -105t-61 -74.5
t-90 -44t-109.5 -14.5zM215 218q0 -32 20.5 -51t54.5 -19q36 0 61 23.5t25 65.5q0 33 -20 51t-54 18q-36 0 -61.5 -23t-25.5 -65zM264 496q0 -26 17.5 -45.5t49.5 -19.5q30 0 52.5 20t22.5 57q0 28 -17.5 46.5t-47.5 18.5q-32 0 -54.5 -21t-22.5 -56z" />
    <glyph glyph-name="nine.tab" unicode="&#xe458;" 
d="M254 -12q-114 0 -177.5 53.5t-62.5 166.5h189q2 -32 16 -47.5t46 -15.5q48 0 76.5 44t41.5 137q-21 -29 -57.5 -52.5t-90.5 -23.5q-39 0 -72.5 12.5t-57.5 37t-38 60.5t-14 84q0 59 19.5 110.5t56 89.5t89.5 60t120 22q58 0 106 -15t82.5 -45.5t53.5 -78t19 -111.5
q0 -20 -2.5 -45t-6.5 -48l-12 -77q-14 -84 -40 -144.5t-65.5 -99t-94 -56.5t-124.5 -18zM246 468q0 -32 17.5 -53.5t52.5 -21.5q37 0 64 24.5t27 69.5q0 32 -18 55.5t-56 23.5t-62.5 -27t-24.5 -71z" />
    <glyph glyph-name="cent.tab" unicode="&#xe459;" 
d="M235 -8q-45 7 -84 25.5t-67 47.5t-44.5 68t-16.5 88q0 67 21.5 124t60.5 99t94 66t122 27l15 92h74l-15 -96q86 -13 136 -65.5t54 -151.5h-174q-1 55 -39 72l-42 -266q62 10 78 87h167q-5 -50 -26 -90.5t-55.5 -69t-81.5 -45t-104 -17.5l-19 -122h-74zM212 223
q0 -73 44 -94l42 263q-40 -11 -63 -53t-23 -116z" />
    <glyph glyph-name="dollar.tab" unicode="&#xe45a;" 
d="M221 -7q-47 7 -87.5 24t-69.5 45.5t-44 69.5t-12 95h183q-3 -65 54 -83l20 130q-53 12 -92 30t-64 43t-37 58.5t-12 76.5q0 56 21 101t58 76.5t88 48.5t110 17l14 88h74l-15 -93q45 -6 82 -21t63 -41t40 -64.5t14 -90.5h-177q-3 50 -46 65l-20 -126q47 -11 85.5 -27
t66.5 -40.5t43 -58.5t15 -79q0 -60 -20 -106t-57 -77.5t-89 -48t-116 -17.5l-19 -123h-74zM390 202q0 20 -11 33t-42 23l-19 -121q32 3 52 18t20 47zM244 513q0 -20 11 -32t40 -22l18 115q-35 -3 -52 -19t-17 -42z" />
    <glyph glyph-name="Euro.tab" unicode="&#xe45b;" 
d="M40 453h45q25 141 99.5 207t186.5 65q121 0 183 -61.5t52 -184.5h-184q2 36 -9 58.5t-47 22.5q-35 0 -53 -25t-29 -82h128l-24 -74h-116l-7 -45h108l-24 -75h-95q-3 -21 -2.5 -40t6.5 -33.5t19 -23t37 -8.5q32 0 50.5 19t26.5 70h182q-10 -69 -33 -117.5t-57.5 -79
t-80 -45t-100.5 -14.5q-67 0 -115.5 19t-79.5 54.5t-43.5 85.5t-7.5 113h-46l12 75h45l7 45h-45z" />
    <glyph glyph-name="a.alt" unicode="&#xe4c0;" horiz-adv-x="638" 
d="M323 393q-46 0 -74.5 -44.5t-28.5 -118.5q0 -45 18 -71t56 -26q23 0 42 12.5t33 34.5t21.5 52.5t7.5 65.5q0 45 -19 70t-56 25zM204 -13q-41 0 -75.5 14.5t-59 43t-38 70t-13.5 95.5q0 78 20 138.5t53.5 102.5t79 64t96.5 22q61 0 99.5 -26t53.5 -67l12 79h197l-56 -359
q-8 -52 -11 -91t0 -73h-195q-3 17 -3.5 41t0.5 45q-28 -47 -66 -73t-94 -26z" />
    <glyph glyph-name="t.alt" unicode="&#xe4d3;" horiz-adv-x="389" 
d="M101 391h-70l20 132h71l17 107h197l-17 -107h92l-20 -132h-93l-61 -391h-197z" />
    <glyph glyph-name="f_i" unicode="&#xfb01;" horiz-adv-x="688" 
d="M50 523h64l10 59q8 48 28.5 82.5t50.5 56t68 31.5t80 10q37 0 58.5 -4t38.5 -11l-22 -142q-10 3 -20 5.5t-27 2.5q-29 0 -43 -13.5t-19 -38.5l-6 -38h102l-21 -132h-102l-62 -391h-196l62 391h-64zM596 563q-46 0 -75 28t-29 70q0 43 29.5 70.5t75.5 27.5
q45 0 74.5 -27.5t29.5 -70.5q0 -21 -8 -39t-22.5 -31t-33.5 -20.5t-41 -7.5zM478 523h197l-83 -523h-196z" />
    <glyph glyph-name="f_l" unicode="&#xfb02;" horiz-adv-x="686" 
d="M50 523h64l10 59q8 48 28.5 82.5t50.5 56t68 31.5t80 10q37 0 58.5 -4t38.5 -11l-22 -142q-10 3 -20 5.5t-27 2.5q-29 0 -43 -13.5t-19 -38.5l-6 -38h102l-21 -132h-102l-62 -391h-196l62 391h-64zM514 750h195l-118 -750h-196z" />
    <glyph glyph-name="hyphen.uc" horiz-adv-x="412" 
d="M70 403h315l-25 -154h-314z" />
    <glyph glyph-name="four.old" horiz-adv-x="679" 
d="M323 38h-347l11 70l375 511h263l-70 -443h90l-21 -138h-91l-21 -130h-210zM351 176l43 278l-194 -278h151z" />
    <glyph glyph-name="zero.num" horiz-adv-x="435" 
d="M204 493q0 -25 9.5 -41.5t35.5 -16.5q19 0 31.5 12.5t19.5 31t9.5 39.5t2.5 37q0 26 -9.5 42t-35.5 16q-20 0 -32.5 -13.5t-19 -32.5t-9 -39.5t-2.5 -34.5zM243 326q-40 0 -73.5 10.5t-58 31t-38 50.5t-13.5 70q0 49 14.5 92t42 74t67.5 49t90 18q40 0 73.5 -10.5
t57.5 -30.5t37.5 -50.5t13.5 -70.5q0 -51 -14.5 -93.5t-41.5 -73.5t-66.5 -48.5t-90.5 -17.5z" />
    <glyph glyph-name="nine.oldtab" 
d="M386 398q0 36 -18.5 58.5t-57.5 22.5t-63.5 -28.5t-25.5 -72.5q-1 -33 18 -55t57 -22t64 27t26 70zM318 632q60 0 107.5 -15.5t81.5 -47t52 -79.5t18 -112q0 -22 -2 -44t-5 -43l-11 -73q-26 -169 -103.5 -246.5t-212.5 -77.5q-51 0 -96.5 11.5t-79.5 38t-53.5 68.5
t-17.5 103h185q0 -29 14.5 -48t47.5 -19q50 0 78.5 46t45.5 147q-21 -31 -58.5 -54t-94.5 -23q-41 0 -73.5 13.5t-56 38t-36 60t-12.5 79.5q0 63 20.5 114t58 87.5t89.5 56t114 19.5z" />
    <glyph glyph-name="eight.oldtab" 
d="M286 -13q-52 0 -101 11.5t-87.5 35.5t-61.5 61t-23 89q0 76 40 125t109 72q-35 20 -55.5 51.5t-20.5 76.5q0 52 21.5 92.5t57.5 68t83 41.5t99 14q44 0 87 -10t76.5 -32t54.5 -58t21 -87q0 -65 -30 -107.5t-87 -65.5q48 -22 73 -59.5t25 -90.5q0 -58 -23 -101t-61.5 -71
t-89.5 -42t-107 -14zM265 497q0 -27 17.5 -45.5t48.5 -18.5t53 21t22 59q0 28 -17.5 47t-48.5 19q-32 0 -53.5 -22t-21.5 -60zM214 211q0 -32 19.5 -51t56.5 -19q35 0 59 23.5t24 67.5q0 32 -18.5 51.5t-54.5 19.5q-37 0 -61.5 -25t-24.5 -67z" />
    <glyph glyph-name="seven.oldtab" 
d="M321 445h-261l28 174h539l-5 -23l-357 -688h-226z" />
    <glyph glyph-name="six.oldtab" 
d="M302 -13q-60 0 -109.5 16t-84.5 48.5t-54.5 82t-19.5 115.5q0 20 2.5 41t5.5 41l11 73q12 78 40.5 137.5t71 100.5t97 62t118.5 21q51 0 94.5 -11.5t74 -37t47 -66.5t13.5 -100h-185q1 27 -11 44t-46 17q-45 0 -75.5 -46t-47.5 -147q22 31 60 54t95 23q82 0 129 -50.5
t47 -138.5q0 -63 -19 -114.5t-54.5 -88t-86 -56.5t-113.5 -20zM225 224q0 -35 18.5 -58t58.5 -23q39 0 63.5 28.5t25.5 72.5q0 33 -18.5 55t-56.5 22q-39 0 -65 -27t-26 -70z" />
    <glyph glyph-name="five.oldtab" 
d="M194 131q0 -36 15.5 -57t55.5 -21q43 0 63 28.5t20 79.5q0 34 -19 56t-61 22q-62 0 -99 -51h-127l84 431h454l-27 -160h-302l-30 -155q12 15 27 29.5t33.5 26t41.5 18t51 6.5q79 0 128.5 -50.5t49.5 -147.5q0 -63 -17.5 -116.5t-52.5 -92t-88.5 -60t-126.5 -21.5
q-61 0 -110.5 15t-84 45t-52 74t-13.5 101h187z" />
    <glyph glyph-name="four.oldtab" 
d="M272 38h-294l11 69l323 512h249l-71 -444h73l-21 -137h-72l-22 -130h-197zM297 175l44 272l-169 -272h125z" />
    <glyph glyph-name="three.oldtab" 
d="M275 -105q-66 0 -118.5 15.5t-89.5 46.5t-55.5 78t-15.5 109h192q0 -45 17.5 -69.5t62.5 -24.5q37 0 58 21.5t21 63.5q1 32 -17.5 51t-55.5 19h-52l21 130h57q38 0 61.5 19.5t23.5 64.5q0 30 -17 45t-46 15q-35 0 -56 -20.5t-30 -66.5h-191q17 115 90.5 177.5t194.5 62.5
q45 0 90 -9t80.5 -31t58 -57.5t22.5 -89.5q0 -64 -33 -109.5t-99 -63.5q48 -15 75.5 -51.5t27.5 -95.5q0 -56 -22 -99t-59.5 -72t-88 -44t-107.5 -15z" />
    <glyph glyph-name="two.oldtab" 
d="M-13 29l246 212q22 19 47 41.5t45 46t33.5 47t13.5 45.5q0 52 -53 52q-62 0 -82 -95h-191q21 128 96.5 191t196.5 63q47 0 91.5 -10.5t78.5 -33t54.5 -57.5t20.5 -85q0 -41 -13 -74t-35.5 -62t-52 -55t-62.5 -52l-65 -52h190l-23 -151h-541z" />
    <glyph glyph-name="one.oldtab" 
d="M274 409l-187 -108l28 178l222 140h181l-98 -619h-210z" />
    <glyph glyph-name="zero.oldtab" 
d="M282 -13q-58 0 -105 14.5t-80 44t-51 73t-18 101.5q0 34 6 70l12 78q20 130 96 197t191 67q58 0 104.5 -15.5t79.5 -45.5t50.5 -74t17.5 -100q0 -15 -1 -31t-4 -33l-12 -78q-20 -131 -92 -199.5t-194 -68.5zM289 154q36 0 52.5 26.5t25.5 84.5l13 78q2 18 4 33t2 27
q0 66 -58 66q-36 0 -54.5 -27.5t-27.5 -85.5l-12 -78q-6 -33 -6 -58q0 -28 13 -47t48 -19z" />
    <glyph glyph-name="yen.oldtab" 
d="M73 375h131l-115 319h217l46 -184l103 184h191l-212 -319h138l-11 -72h-147l-7 -45h147l-12 -72h-146l-29 -186h-213l29 186h-140l11 72h140l7 45h-140z" />
    <glyph glyph-name="sterling.oldtab" 
d="M54 396h43q-2 14 -3 30t-1 33q0 57 18.5 102t53 76.5t83 48.5t107.5 17q123 0 183.5 -57t51.5 -181h-178q2 40 -12.5 57t-46.5 17q-23 0 -36.5 -10t-21 -26t-10 -36.5t-2.5 -41.5v-29h150l-19 -119h-128q-2 -27 -7 -51.5t-16 -47.5q20 -6 38 -10.5t33 -4.5
q23 0 38.5 11.5t20.5 39.5h177q-14 -108 -69 -165.5t-146 -57.5q-33 0 -59 7.5t-47 17t-38 17t-32 7.5q-18 0 -29 -11t-14 -29h-149q10 61 35 107t68 69q11 22 17 48t6 49v4h-78z" />
    <glyph glyph-name="f.short" horiz-adv-x="391" 
d="M50 523h64l10 59q8 48 28.5 82.5t50.5 56t68 31.5t80 10q37 0 58.5 -4t38.5 -11l-22 -142q-10 3 -20 5.5t-27 2.5q-29 0 -43 -13.5t-19 -38.5l-6 -38h102l-21 -132h-102l-62 -391h-196l62 391h-64z" />
    <glyph glyph-name="f_f.short" horiz-adv-x="731" 
d="M50 523h64l8 49q7 48 27.5 82t50.5 55.5t67.5 31.5t79.5 10q35 0 56 -4t39 -10l-22 -142q-10 3 -19.5 5t-24.5 2q-28 0 -42 -12.5t-19 -38.5l-5 -28h143l10 59q7 48 28 82.5t51 56t68.5 31.5t80.5 10q37 0 58 -4t39 -11l-23 -142q-9 3 -19.5 5.5t-26.5 2.5
q-29 0 -43.5 -13.5t-19.5 -38.5l-6 -38h102l-20 -132h-103l-61 -391h-196l61 391h-144l-61 -391h-196l61 391h-63z" />
    <glyph glyph-name="Euro.oldtab" 
d="M48 440h44q25 136 96.5 200t180.5 64q117 -1 177 -60.5t51 -177.5h-177q2 36 -9 58t-47 22q-35 0 -53 -24.5t-29 -81.5h127l-24 -72h-114l-7 -45h107l-24 -71h-94q-3 -21 -2.5 -40t6.5 -33.5t19.5 -23t37.5 -8.5q31 0 49.5 18.5t27.5 69.5h173q-20 -133 -88 -190.5
t-174 -57.5q-65 0 -112 18.5t-77 53t-42 83.5t-7 110h-46l11 71h44l8 45h-44z" />
    <glyph glyph-name="dollar.oldtab" 
d="M244 498q0 -19 11 -31.5t38 -22.5l18 114q-34 -3 -50.5 -18.5t-16.5 -41.5zM390 196q0 21 -11 33.5t-43 21.5l-19 -121q33 3 53 18.5t20 47.5zM222 -7q-46 7 -85 24t-66.5 44.5t-42 67t-10.5 91.5h174q-2 -64 53 -83l20 131q-102 25 -149.5 71.5t-47.5 129.5q0 54 20 97
t56 73t84.5 46.5t105.5 17.5l14 86h73l-14 -90q43 -6 79 -20.5t61 -40t39 -62.5t14 -88h-169q-2 27 -14 42t-34 22l-19 -125q46 -11 83.5 -26.5t64.5 -39t41.5 -56t14.5 -76.5q0 -58 -19.5 -102.5t-55.5 -75t-86.5 -46.5t-111.5 -17l-19 -119h-73z" />
    <glyph glyph-name="braceright.tab" horiz-adv-x="300" 
d="M93 776q75 -2 122.5 -20.5t69.5 -50.5t20 -78t-25 -103l-31 -78q-14 -32 -2.5 -53t56.5 -27l-19 -119q-47 -2 -63 -20.5t-14 -52.5l6 -98q4 -64 -10.5 -107t-47.5 -69t-85.5 -37t-123.5 -11l21 127q45 1 60.5 18t14.5 62l-2 105q-2 60 27 95.5t96 52.5q-60 20 -77.5 61.5
t7.5 107.5l28 76q17 46 7.5 66.5t-55.5 25.5l20 127v0z" />
    <glyph glyph-name="braceleft.tab" horiz-adv-x="300" 
d="M221 -148q-75 3 -122.5 21t-69.5 50.5t-20 78.5t25 103l31 77q14 33 3 54t-56 26l19 120q46 1 62 20t14 52l-6 98q-4 64 10.5 107t47.5 69.5t85.5 37t123.5 10.5l-20 -126q-45 -2 -60.5 -18.5t-15.5 -61.5l2 -106q2 -60 -26.5 -95t-96.5 -52q120 -40 71 -169l-28 -76
q-17 -46 -8 -67t56 -26l-21 -127v0z" />
    <glyph glyph-name="bracketright.tab" horiz-adv-x="300" 
d="M-33 -21h71l106 670h-71l20 127h246l-146 -924h-246z" />
    <glyph glyph-name="bracketleft.tab" horiz-adv-x="300" 
d="M121 776h246l-19 -127h-71l-106 -670h71l-21 -127h-246z" />
    <glyph glyph-name="parenright.tab" horiz-adv-x="300" 
d="M193 775q16 -28 32.5 -63t30 -77.5t22.5 -93.5t9 -111q0 -163 -58 -306t-172 -272h-139q97 139 149 288t52 307q0 58 -4.5 106.5t-12.5 88.5t-18 72.5t-21 60.5h130v0z" />
    <glyph glyph-name="parenleft.tab" horiz-adv-x="300" 
d="M121 -148q-16 28 -32.5 63t-30 78t-22.5 93.5t-9 110.5q0 164 58 306.5t172 271.5h139q-97 -139 -149 -288t-52 -306q0 -59 4.5 -107.5t12.5 -88.5t18 -72.5t21 -60.5h-130v0z" />
    <glyph glyph-name="semicolon.tab" horiz-adv-x="300" 
d="M-54 -77l105 270l172 -63l-169 -254zM169 272q-24 0 -44 8.5t-34.5 22.5t-22.5 33.5t-8 42.5q0 22 8 42t22.5 34.5t34 23t43.5 8.5t45 -8.5t36.5 -23t24 -34.5t8.5 -42q0 -23 -8.5 -42.5t-23.5 -33.5t-36 -22.5t-45 -8.5z" />
    <glyph glyph-name="colon.tab" horiz-adv-x="300" 
d="M120 -12q-48 0 -78.5 31t-30.5 77q0 45 30 76t78 31q24 0 45 -8.5t36.5 -23t24 -34t8.5 -41.5q0 -46 -32 -77t-81 -31zM166 272q-24 0 -44 8.5t-34.5 22.5t-22.5 33.5t-8 42.5q0 22 8 42t22.5 34.5t34 23t43.5 8.5t45 -8.5t36.5 -23t24 -34.5t8.5 -42q0 -23 -8.5 -42.5
t-23.5 -33.5t-36 -22.5t-45 -8.5z" />
    <glyph glyph-name="comma.tab" horiz-adv-x="300" 
d="M-41 -77l105 270l173 -63l-170 -254z" />
    <glyph glyph-name="period.tab" horiz-adv-x="300" 
d="M122 -12q-24 0 -44 8.5t-34.5 23t-23 34t-8.5 42.5q0 45 30.5 76t78.5 31q24 0 44.5 -8.5t36 -23t24 -34t8.5 -41.5q0 -23 -8.5 -42.5t-23.5 -34t-35.5 -23t-44.5 -8.5z" />
    <glyph glyph-name="greaterequal.tab" 
d="M66 126h428l-20 -126h-428zM539 407l-6 -36l-464 -224l27 178l161 71l-138 74l28 172z" />
    <glyph glyph-name="lessequal.tab" 
d="M100 382l6 36l464 224l-28 -178l-160 -71l137 -75l-27 -171zM60 126h429l-20 -126h-428z" />
    <glyph glyph-name="greater.tab" 
d="M536 336l-6 -38l-490 -244l28 181l215 89l-185 101l27 168z" />
    <glyph glyph-name="less.tab" 
d="M81 310l7 38l490 244l-28 -181l-215 -89l185 -101l-27 -168z" />
    <glyph glyph-name="approxequal.tab" 
d="M59 341q7 52 22.5 88t37 58.5t47.5 32.5t54 10q30 0 61 -6t59.5 -13.5t53.5 -13.5t43 -6q38 0 49 43h111q-5 -48 -20.5 -83.5t-37 -58.5t-48.5 -34.5t-55 -11.5q-30 0 -61 6t-59.5 13.5t-53.5 13.5t-43 6q-39 0 -50 -44h-110zM22 113q7 52 22.5 87.5t37 58t47.5 32.5
t55 10q30 0 60.5 -6t59 -13.5t53.5 -13.5t43 -6q40 0 49 44h111q-5 -48 -20 -83.5t-37 -59t-48.5 -35t-54.5 -11.5q-31 0 -62 6t-59.5 13.5t-53.5 14t-43 6.5q-20 0 -32 -12t-17 -32h-111z" />
    <glyph glyph-name="notequal.tab" 
d="M89 492h243l49 96h123l-49 -96h127l-20 -131h-173l-34 -68h196l-20 -131h-243l-48 -96h-122l48 96h-128l20 131h174l34 68h-197z" />
    <glyph glyph-name="equal.tab" 
d="M65 293h478l-21 -131h-477zM96 492h478l-21 -131h-477z" />
    <glyph glyph-name="divide.tab" 
d="M76 407h492l-22 -134h-491zM286 34q-43 0 -71 28t-28 70q0 41 28 69t71 28q44 0 73 -28t29 -69q0 -42 -28.5 -70t-73.5 -28zM334 450q-43 0 -71 28t-28 69t28 69.5t71 28.5q44 0 73 -28.5t29 -69.5t-28.5 -69t-73.5 -28z" />
    <glyph glyph-name="multiply.tab" 
d="M34 186l174 152l-131 154l116 103l132 -155l174 151l90 -104l-175 -152l132 -153l-117 -103l-132 154l-173 -150z" />
    <glyph glyph-name="plusminus.tab" 
d="M235 343h-173l22 142h173l26 162h157l-26 -162h174l-22 -142h-174l-26 -161h-156zM27 126h507l-19 -126h-507z" />
    <glyph glyph-name="minus.tab" 
d="M78 414h491l-23 -149h-492z" />
    <glyph glyph-name="plus.tab" 
d="M222 269h-166l22 142h167l29 181h156l-28 -181h165l-23 -142h-165l-28 -182h-157z" />
    <glyph glyph-name="perthousand.tab" horiz-adv-x="1000" 
d="M173 525q0 -18 7 -30t25 -12q15 0 24 11.5t14 27.5t6.5 33.5t1.5 30.5q0 43 -30 43q-15 0 -24.5 -11.5t-15 -28t-7 -34.5t-1.5 -30zM197 386q-64 0 -105 36t-41 105q0 40 11.5 75.5t34 62.5t55.5 42.5t75 15.5q31 0 57.5 -9.5t46 -27.5t30.5 -44t11 -60
q0 -41 -11.5 -76.5t-34 -62t-55 -42t-74.5 -15.5zM590 715h101l-590 -715h-100zM437 127q0 -18 7 -30.5t24 -12.5q15 0 24.5 11.5t14.5 28t6.5 34t1.5 30.5q0 43 -30 43q-15 0 -24.5 -11.5t-14.5 -28t-7 -34.5t-2 -30zM462 -13q-65 0 -106 36t-41 105q0 40 11.5 76t34 63
t55.5 42.5t75 15.5q31 0 57.5 -9.5t46 -27.5t30.5 -44.5t11 -59.5q0 -41 -11.5 -77t-34 -62.5t-54.5 -42t-74 -15.5zM777 127q0 -18 7 -30.5t25 -12.5q15 0 24.5 11.5t14 28t6 34t1.5 30.5q0 21 -7 32t-24 11q-15 0 -24 -11.5t-14 -28t-7 -34.5t-2 -30zM802 -13
q-65 0 -105.5 36t-40.5 105q0 40 11.5 76t34 63t55 42.5t75.5 15.5q31 0 57.5 -9.5t46 -27.5t30.5 -44.5t11 -59.5q0 -41 -11.5 -77t-34 -62.5t-55 -42t-74.5 -15.5z" />
    <glyph glyph-name="percent.tab" horiz-adv-x="800" 
d="M200 540q0 -20 8.5 -36t34.5 -15q14 0 24 7.5t16.5 19t9.5 26t3 29.5q0 20 -9.5 35t-32.5 15q-29 0 -41.5 -24t-12.5 -57zM239 383q-35 0 -66.5 9.5t-55.5 28t-38 46.5t-14 66q0 40 14 74.5t39 60t60.5 40.5t79.5 15q34 0 65.5 -10t55 -29.5t37.5 -47.5t14 -65
q0 -39 -14 -73t-39 -59.5t-60 -40.5t-78 -15zM656 715h104l-583 -715h-103zM533 144q0 -20 8.5 -35.5t34.5 -15.5q29 1 40.5 26.5t11.5 55.5q0 20 -9 35t-32 15q-29 0 -41.5 -24t-12.5 -57zM571 -13q-35 0 -66.5 9.5t-55 28.5t-37.5 47t-14 65q0 40 14 75t39 60.5t60.5 40.5
t79.5 15q34 0 65.5 -10t55 -29.5t37.5 -47.5t14 -65q0 -39 -14 -73t-39.5 -60t-60.5 -41t-78 -15z" />
    <glyph glyph-name="two.num" horiz-adv-x="366" 
d="M18 351l149 133q14 12 29.5 26t28 28t21 26.5t8.5 23.5q0 28 -25 28q-15 0 -26 -12t-17 -39h-132q11 79 61.5 117.5t124.5 38.5q32 0 60.5 -6t50 -20t34 -36t12.5 -55q0 -41 -28.5 -75t-75.5 -73l-24 -20h103l-16 -103h-341z" />
    <glyph glyph-name="uni045D.bgr" horiz-adv-x="627" 
d="M561 164q-8 -52 -11.5 -91.5t-1.5 -72.5h-192q-2 17 -2 39.5t2 44.5q-29 -42 -69.5 -69.5t-100.5 -27.5q-39 0 -71.5 12.5t-53.5 39t-29 68.5t1 101l50 315h197l-49 -308q-12 -83 52 -83q76 0 91 94l47 297h196zM193 747h192l38 -169h-137z" />
    <glyph glyph-name="three.num" horiz-adv-x="385" 
d="M220 326q-76 0 -123.5 32t-48.5 105h128q0 -38 38 -38q13 0 24.5 7.5t11.5 25.5q0 27 -41 27h-29l12 79h35q41 0 41 32q0 11 -6.5 18.5t-23.5 7.5q-14 0 -25.5 -8.5t-15.5 -26.5h-126q9 63 55.5 98.5t124.5 35.5q27 0 54.5 -5t49 -17t35.5 -32t14 -50q0 -36 -21 -58.5
t-56 -32.5q29 -7 47 -25t18 -53q0 -32 -14 -55t-37.5 -38t-55 -22t-65.5 -7z" />
    <glyph glyph-name="four.num" horiz-adv-x="408" 
d="M221 403h-189l9 54l197 258h173l-34 -218h48l-15 -94h-48l-11 -70h-141zM241 497l19 120l-88 -120h69z" />
    <glyph glyph-name="uni20B4.old" horiz-adv-x="667" 
d="M633 222q-22 -114 -104 -174.5t-216 -59.5q-65 0 -113 14t-80 38.5t-47.5 58.5t-15.5 75q0 47 21 83h-59l11 71h115q38 26 94 49h-203l12 71h357q11 11 15.5 23.5t4.5 28.5q0 48 -50 48q-32 0 -51.5 -15.5t-27.5 -50.5h-202q22 112 100 166.5t204 54.5q58 0 102 -15
t74 -40.5t45 -58.5t15 -68q0 -39 -14 -73h51l-11 -71h-95q-32 -26 -82 -49h171l-11 -71h-342q-18 -14 -24.5 -30.5t-6.5 -33.5q0 -23 14.5 -37t43.5 -14q46 0 68.5 24t30.5 56h206z" />
    <glyph glyph-name="uni20B4.oldtab" 
d="M572 222q-20 -112 -98 -173.5t-197 -60.5q-59 0 -102.5 14t-72 38.5t-42 58.5t-11.5 75q2 47 21 83h-51l12 71h102q34 26 87 49h-183l13 71h322q10 11 14 23.5t5 28.5q2 48 -45 48q-29 0 -46.5 -15.5t-26.5 -50.5h-182q22 112 94.5 166.5t181.5 54.5q54 0 94.5 -15
t67.5 -40.5t39.5 -58.5t11.5 -68q-1 -20 -4 -38t-10 -35h49l-12 -71h-88q-29 -26 -76 -49h158l-13 -71h-312q-16 -14 -22 -30.5t-7 -33.5q-1 -23 12 -37t40 -14q22 0 37.5 6.5t26 17.5t17 25.5t10.5 30.5h186z" />
    <glyph glyph-name="uni20B4.tab" 
d="M579 229q-23 -117 -104.5 -179.5t-206.5 -61.5q-59 0 -102.5 14.5t-71.5 40t-41 60.5t-11 77q1 47 21 85h-52l11 73h106q39 28 93 51h-191l12 73h331q11 12 15 25t4 28q2 51 -44 51q-29 0 -48 -16.5t-28 -52.5h-186q23 116 98 172t192 56q52 0 92.5 -15.5t67.5 -42
t40 -60.5t12 -70q-2 -42 -16 -75h50l-12 -73h-91q-32 -29 -79 -51h162l-13 -73h-319q-17 -15 -23 -31.5t-7 -34.5q-2 -23 12 -37.5t41 -14.5q45 0 65.5 24.5t27.5 57.5h193z" />
    <glyph glyph-name="five.num" horiz-adv-x="378" 
d="M215 326q-32 0 -62 6.5t-54 22t-39 40.5t-16 61h135q1 -11 8 -18.5t24 -7.5q14 0 25 10t11 30q0 32 -33 32q-14 0 -23 -6t-15 -17h-113l50 236h291l-16 -100h-192l-16 -76q13 18 37 33.5t66 15.5q47 0 77 -25.5t30 -78.5q-1 -81 -49 -119.5t-126 -38.5z" />
    <glyph glyph-name="uni20B8.old" horiz-adv-x="606" 
d="M81 623l11 71h554l-12 -71h-553zM212 400h-166l27 168h553l-28 -168h-165l-63 -400h-221z" />
    <glyph glyph-name="uni20B8.oldtab" 
d="M89 623l11 71h526l-11 -71h-526zM206 400h-152l27 168h526l-28 -168h-152l-63 -400h-221z" />
    <glyph glyph-name="uni20B8.tab" 
d="M84 642l12 73h556l-12 -73h-556zM212 412h-164l28 174h556l-29 -174h-164l-64 -412h-228z" />
    <glyph glyph-name="six.num" horiz-adv-x="404" 
d="M241 326q-39 0 -72.5 9t-57.5 28t-37.5 48.5t-13.5 70.5q0 11 1 23.5t3 25.5l2 12q14 83 69.5 130.5t136.5 47.5q32 0 60.5 -6.5t50 -20.5t34 -38t13.5 -58h-132q-2 10 -8 16t-21 6q-24 0 -38 -22t-22 -57q14 17 35.5 28t55.5 11q49 0 82.5 -26t33.5 -78q0 -38 -14 -66.5
t-37.5 -47t-55.5 -27.5t-68 -9zM204 456q0 -14 8 -24.5t27 -10.5q17 0 28 11.5t11 32.5q0 15 -8.5 25t-25.5 10t-28.5 -11.5t-11.5 -32.5z" />
    <glyph glyph-name="uni20BD.old" horiz-adv-x="678" 
d="M383 374q47 0 72.5 23t25.5 69q0 32 -20.5 49t-60.5 17h-43l-24 -158h50zM292 109l-17 -109h-220l17 109h-82l12 71h82l7 46h-83l11 71h83l63 397h259q130 0 197 -55t68 -147q0 -65 -20.5 -114.5t-59 -83.5t-93.5 -51t-123 -17h-82l-7 -46h204l-11 -71h-205z" />
    <glyph glyph-name="uni20BD.oldtab" 
d="M339 374q44 0 67.5 23t23.5 69q0 32 -18.5 49t-56.5 17h-28l-24 -158h36zM264 109l-17 -109h-202l17 109h-73l11 71h73l7 46h-74l11 71h74l61 397h226q122 0 184.5 -54.5t62.5 -147.5q0 -65 -20 -114.5t-56 -83.5t-87.5 -51t-115.5 -17h-64l-7 -46h180l-11 -71h-180z" />
    <glyph glyph-name="uni20BD.tab" 
d="M348 385q45 0 68.5 24t23.5 72q0 67 -75 67h-39l-23 -163h45zM263 112l-16 -112h-204l17 112h-70l10 74h71l7 47h-71l11 74h71l60 408h239q121 0 182 -56t62 -152q-1 -134 -74.5 -204t-200.5 -70h-76l-7 -47h188l-10 -74h-189z" />
    <glyph glyph-name="seven.num" horiz-adv-x="357" 
d="M215 602h-144l18 113h329l-3 -16l-197 -366h-147z" />
    <glyph glyph-name="eight.num" horiz-adv-x="393" 
d="M227 326q-32 0 -64.5 5t-58 18t-41.5 33.5t-16 52.5q0 45 23 68t61 35q-20 11 -32.5 27.5t-12.5 39.5q0 31 14.5 53t37.5 36t52.5 20.5t59.5 6.5q31 0 60 -6t51.5 -18.5t36 -32.5t13.5 -48q0 -70 -64 -89q29 -11 43 -31.5t14 -45.5q0 -35 -15.5 -59t-41 -38.5t-57 -20.5
t-63.5 -6zM191 453q0 -13 9 -22.5t26 -9.5t28.5 9.5t11.5 28.5q0 14 -9 23.5t-26 9.5q-16 0 -28 -10t-12 -29zM213 594q0 -14 8.5 -22t23.5 -8t25.5 9t10.5 26q0 14 -9.5 22t-23.5 8q-13 0 -24 -9t-11 -26z" />
    <glyph glyph-name="nine.num" horiz-adv-x="404" 
d="M246 721q78 0 127.5 -37t49.5 -118q0 -12 -1 -25t-3 -26l-2 -12q-13 -86 -63 -131.5t-142 -45.5q-32 0 -60.5 6.5t-50 20.5t-34.5 37.5t-15 58.5h132q2 -11 8 -16.5t23 -5.5q25 0 39 20.5t20 58.5q-13 -17 -35 -28t-55 -11q-49 0 -83 25.5t-34 79.5q0 37 14.5 65t39 46.5
t57 28t68.5 9.5zM279 591q0 14 -7.5 24.5t-26.5 10.5q-17 0 -28 -12t-11 -33q0 -14 8 -24t25 -10t28.5 11t11.5 33z" />
    <glyph glyph-name="zero.den" horiz-adv-x="435" 
d="M151 160q0 -25 9.5 -41.5t35.5 -16.5q19 0 31.5 12.5t19.5 31t9.5 39.5t2.5 37q0 26 -9.5 42t-35.5 16q-20 0 -32.5 -13.5t-19 -32.5t-9 -39.5t-2.5 -34.5zM190 -7q-40 0 -73.5 10.5t-58 31t-38 50.5t-13.5 70q0 49 14.5 92t42 74t67.5 49t90 18q40 0 73.5 -10.5
t57.5 -30.5t37.5 -50.5t13.5 -70.5q0 -51 -14.5 -93.5t-41.5 -73.5t-66.5 -48.5t-90.5 -17.5z" />
    <glyph glyph-name="one.den" horiz-adv-x="297" 
d="M99 241l-89 -45l19 118l114 68h124l-61 -382h-145z" />
    <glyph glyph-name="two.den" horiz-adv-x="366" 
d="M-33 18l149 133q14 12 29.5 26t28 28t21 26.5t8.5 23.5q0 28 -25 28q-15 0 -26 -12t-17 -39h-132q11 79 61.5 117.5t124.5 38.5q32 0 60.5 -6t50 -20t34 -36t12.5 -55q0 -41 -28.5 -75t-75.5 -73l-24 -20h103l-16 -103h-341z" />
    <glyph glyph-name="uni021B.alt" horiz-adv-x="389" 
d="M-1 -206l47 175l171 -12l-110 -190zM101 391h-70l20 132h71l17 107h197l-17 -107h92l-20 -132h-93l-61 -391h-197z" />
    <glyph glyph-name="uni0437.bgr" horiz-adv-x="533" 
d="M212 -190q-111 0 -174.5 54.5t-63.5 165.5h170q-1 -38 12.5 -61.5t48.5 -23.5t53 25t19 69q1 39 -16.5 58.5t-62.5 19.5h-43l18 132h47q41 0 64.5 19.5t25.5 64.5q5 72 -49 72q-31 0 -48 -19.5t-24 -55.5h-166q14 100 79.5 153t172.5 53q52 0 93.5 -12t71 -35.5t45 -58.5
t15.5 -80q0 -32 -11 -60.5t-30.5 -51t-47.5 -37.5t-62 -19q57 -10 92.5 -48t34.5 -95q0 -56 -20 -98.5t-55.5 -71.5t-83.5 -44t-105 -15z" />
    <glyph glyph-name="uni0449.bgr" horiz-adv-x="936" 
d="M714 -127l10 127h-84q-2 17 -1.5 39.5t2.5 44.5q-26 -41 -71.5 -70t-105.5 -29q-51 0 -85 24.5t-48 73.5q-36 -51 -81 -74.5t-96 -23.5q-38 0 -68 12.5t-50 38t-27.5 64.5t0.5 92l52 331h196l-47 -301q-12 -78 48 -78q32 0 52.5 21t27.5 61l46 297h195l-48 -302
q-6 -39 6.5 -58t41.5 -19q34 0 53.5 21.5t26.5 60.5l47 297h196l-62 -391h77l-41 -259h-162z" />
    <glyph glyph-name="three.den" horiz-adv-x="385" 
d="M168 -7q-76 0 -123.5 32t-48.5 105h128q0 -38 38 -38q13 0 24.5 7.5t11.5 25.5q0 27 -41 27h-29l12 79h35q41 0 41 32q0 11 -6.5 18.5t-23.5 7.5q-14 0 -25.5 -8.5t-15.5 -26.5h-126q9 63 55.5 98.5t124.5 35.5q27 0 54.5 -5t49 -17t35.5 -32t14 -50q0 -36 -21 -58.5
t-56 -32.5q29 -7 47 -25t18 -53q0 -32 -14 -55t-37.5 -38t-55 -22t-65.5 -7z" />
    <glyph glyph-name="uni044A.bgr" horiz-adv-x="622" 
d="M34 392l22 131h304l-27 -168q2 0 8.5 0.5t14 0.5h15h11.5q108 0 162.5 -41.5t54.5 -121.5q0 -41 -15 -78t-47 -65t-82 -44t-119 -16q-254 0 -215 253l24 149h-111zM345 115q25 0 41.5 21t16.5 51q0 22 -14 36.5t-40 14.5h-34l-8 -50q-11 -73 38 -73z" />
    <glyph glyph-name="four.den" horiz-adv-x="408" 
d="M169 70h-189l9 54l197 258h173l-34 -218h48l-15 -94h-48l-11 -70h-141zM189 164l19 120l-88 -120h69z" />
    <glyph glyph-name="five.den" horiz-adv-x="378" 
d="M163 -7q-32 0 -62 6.5t-54 22t-39 40.5t-16 61h135q1 -11 8 -18.5t24 -7.5q14 0 25 10t11 30q0 32 -33 32q-14 0 -23 -6t-15 -17h-113l50 236h291l-16 -100h-192l-16 -76q13 18 37 33.5t66 15.5q47 0 77 -25.5t30 -78.5q-1 -81 -49 -119.5t-126 -38.5z" />
    <glyph glyph-name="six.den" horiz-adv-x="404" 
d="M188 -7q-39 0 -72.5 9t-57.5 28t-37.5 48.5t-13.5 70.5q0 11 1 23.5t3 25.5l2 12q14 83 69.5 130.5t136.5 47.5q32 0 60.5 -6.5t50 -20.5t34 -38t13.5 -58h-132q-2 10 -8 16t-21 6q-24 0 -38 -22t-22 -57q14 17 35.5 28t55.5 11q49 0 82.5 -26t33.5 -78q0 -38 -14 -66.5
t-37.5 -47t-55.5 -27.5t-68 -9zM151 123q0 -14 8 -24.5t27 -10.5q17 0 28 11.5t11 32.5q0 15 -8.5 25t-25.5 10t-28.5 -11.5t-11.5 -32.5z" />
    <glyph glyph-name="seven.den" horiz-adv-x="357" 
d="M163 269h-144l18 113h329l-3 -16l-197 -366h-147z" />
    <glyph glyph-name="florin.tab" 
d="M107 415h99l21 111q10 57 34.5 95t58 61t74.5 33t85 10q34 0 55 -3t39 -9l-23 -145q-11 3 -23 5t-30 2q-27 0 -49.5 -14.5t-30.5 -55.5l-17 -90h124l-20 -132h-129l-86 -465h-195l87 465h-95z" />
    <glyph glyph-name="uni0431.locl" horiz-adv-x="620" 
d="M294 -13q-53 0 -102.5 14t-87 43.5t-60 75t-22.5 107.5q-1 83 39 144.5t109 86.5q16 6 32 8.5t28 4t19.5 1.5h7.5q-81 22 -117.5 56t-36.5 82q0 66 46.5 102.5t143.5 36.5h138q64 0 101 4.5t57 11.5l-22 -143q-20 -11 -56 -15.5t-83 -4.5h-140q-36 0 -36 -24
q0 -15 14.5 -23.5t37.5 -15.5q58 -17 111.5 -38t94 -52.5t64.5 -75t24 -104.5q0 -64 -22 -116t-62 -89t-96 -57t-124 -20zM297 132q27 0 46.5 11.5t32.5 31.5t19 46.5t6 57.5q0 37 -18.5 63.5t-59.5 26.5q-27 0 -47 -11t-33 -30.5t-19.5 -46t-6.5 -56.5q0 -17 4 -34t13 -30
t24.5 -21t38.5 -8z" />
    <glyph glyph-name="yen.tab" 
d="M63 371h135l-113 344h220l43 -189l102 189h208l-221 -344h143l-12 -74h-150l-8 -46h150l-11 -74h-150l-28 -177h-223l28 177h-144l11 74h144l8 46h-144z" />
    <glyph glyph-name="eight.den" horiz-adv-x="393" 
d="M175 -7q-32 0 -64.5 5t-58 18t-41.5 33.5t-16 52.5q0 45 23 68t61 35q-20 11 -32.5 27.5t-12.5 39.5q0 31 14.5 53t37.5 36t52.5 20.5t59.5 6.5q31 0 60 -6t51.5 -18.5t36 -32.5t13.5 -48q0 -70 -64 -89q29 -11 43 -31.5t14 -45.5q0 -35 -15.5 -59t-41 -38.5t-57 -20.5
t-63.5 -6zM139 120q0 -13 9 -22.5t26 -9.5t28.5 9.5t11.5 28.5q0 14 -9 23.5t-26 9.5q-16 0 -28 -10t-12 -29zM161 261q0 -14 8.5 -22t23.5 -8t25.5 9t10.5 26q0 14 -9.5 22t-23.5 8q-13 0 -24 -9t-11 -26z" />
    <glyph glyph-name="nine.den" horiz-adv-x="404" 
d="M194 388q78 0 127.5 -37t49.5 -118q0 -12 -1 -25t-3 -26l-2 -12q-13 -86 -63 -131.5t-142 -45.5q-32 0 -60.5 6.5t-50 20.5t-34.5 37.5t-15 58.5h132q2 -11 8 -16.5t23 -5.5q25 0 39 20.5t20 58.5q-13 -17 -35 -28t-55 -11q-49 0 -83 25.5t-34 79.5q0 37 14.5 65t39 46.5
t57 28t68.5 9.5zM227 258q0 14 -7.5 24.5t-26.5 10.5q-17 0 -28 -12t-11 -33q0 -14 8 -24t25 -10t28.5 11t11.5 33z" />
    <glyph glyph-name="zero.sub" horiz-adv-x="435" 
d="M131 33q0 -25 9.5 -41.5t35.5 -16.5q19 0 31.5 12.5t19.5 31t9.5 39.5t2.5 37q0 26 -9.5 42t-35.5 16q-20 0 -32.5 -13.5t-19 -32.5t-9 -39.5t-2.5 -34.5zM170 -134q-40 0 -73.5 10.5t-58 31t-38 50.5t-13.5 70q0 49 14.5 92t42 74t67.5 49t90 18q40 0 73.5 -10.5
t57.5 -30.5t37.5 -50.5t13.5 -70.5q0 -51 -14.5 -93.5t-41.5 -73.5t-66.5 -48.5t-90.5 -17.5z" />
    <glyph glyph-name="one.sub" horiz-adv-x="297" 
d="M78 114l-89 -45l19 118l114 68h124l-61 -382h-145z" />
    <glyph glyph-name="sterling.tab" 
d="M44 408h44q-2 15 -3 31t-1 34q0 59 19.5 106t55 79.5t85 49.5t110.5 17q128 0 191 -59.5t53 -188.5h-186q2 42 -12 59t-46 17q-23 0 -37 -10t-22 -26.5t-11 -37t-3 -41.5v-30h154l-19 -122h-131q-2 -27 -7.5 -51.5t-16.5 -48.5q21 -6 39 -10.5t34 -4.5q23 0 38.5 11.5
t20.5 39.5h186q-15 -112 -71.5 -171.5t-150.5 -59.5q-35 0 -61.5 8t-48 17t-39 17t-33.5 8q-18 0 -29.5 -11t-14.5 -30h-155q10 63 35.5 111.5t70.5 72.5q11 23 17 49.5t6 49.5v3h-81z" />
    <glyph glyph-name="two.sub" horiz-adv-x="366" 
d="M-55 -109l149 133q14 12 29.5 26t28 28t21 26.5t8.5 23.5q0 28 -25 28q-15 0 -26 -12t-17 -39h-132q11 79 61.5 117.5t124.5 38.5q32 0 60.5 -6t50 -20t34 -36t12.5 -55q0 -41 -28.5 -75t-75.5 -73l-24 -20h103l-16 -103h-341z" />
    <glyph glyph-name="three.sub" horiz-adv-x="385" 
d="M149 -134q-76 0 -123.5 32t-48.5 105h128q0 -38 38 -38q13 0 24.5 7.5t11.5 25.5q0 27 -41 27h-29l12 79h35q41 0 41 32q0 11 -6.5 18.5t-23.5 7.5q-14 0 -25.5 -8.5t-15.5 -26.5h-126q9 63 55.5 98.5t124.5 35.5q27 0 54.5 -5t49 -17t35.5 -32t14 -50q0 -36 -21 -58.5
t-56 -32.5q29 -7 47 -25t18 -53q0 -32 -14 -55t-37.5 -38t-55 -22t-65.5 -7z" />
    <glyph glyph-name="four.sub" horiz-adv-x="408" 
d="M148 -57h-189l9 54l197 258h173l-34 -218h48l-15 -94h-48l-11 -70h-141zM168 37l19 120l-88 -120h69z" />
    <glyph glyph-name="space.tab" horiz-adv-x="300" 
 />
    <glyph glyph-name="uni0433.bgr" horiz-adv-x="524" 
d="M234 -14q-106 0 -166.5 39.5t-59.5 119.5q1 70 51 115.5t158 65.5q33 6 54 13t32.5 14t15.5 14.5t4 15.5q0 31 -44 31q-25 0 -39.5 -13.5t-19.5 -35.5h-175q13 80 78 126.5t169 46.5q50 0 90 -11t68 -31.5t43 -49t15 -63.5q-1 -81 -52 -122t-154 -58q-34 -6 -53.5 -13
t-29.5 -14t-13 -15t-3 -15q0 -15 11 -23.5t31 -8.5q29 0 44.5 14.5t22.5 39.5h180q-11 -48 -34 -82.5t-57 -56.5t-76.5 -32.5t-90.5 -10.5z" />
    <glyph glyph-name="uni043F.bgr" horiz-adv-x="627" 
d="M60 349q9 57 13.5 97.5t6.5 76.5h192q0 -20 -1 -44.5t-4 -47.5q28 45 71.5 76t107.5 31q36 0 67 -12.5t51.5 -39.5t28.5 -69.5t-1 -101.5l-50 -315h-197l47 297q13 83 -54 83q-76 0 -91 -94l-45 -286h-197z" />
    <glyph glyph-name="uni0448.bgr" horiz-adv-x="919" 
d="M853 164q-8 -52 -11.5 -91.5t-1.5 -72.5h-193q-2 17 -1.5 39.5t2.5 44.5q-26 -41 -71.5 -70t-105.5 -29q-51 0 -84.5 24.5t-47.5 73.5q-37 -51 -81.5 -74.5t-96.5 -23.5q-38 0 -68 12.5t-50 38t-27.5 64.5t1.5 92l51 331h197l-48 -301q-6 -40 6.5 -59t41.5 -19
q32 0 53 21t27 61l47 297h194l-47 -302q-7 -39 6 -58t42 -19q34 0 53.5 21.5t25.5 60.5l47 297h197z" />
    <glyph glyph-name="uni044E.bgr" horiz-adv-x="852" 
d="M532 -13q-44 0 -84.5 10.5t-74.5 32.5t-58.5 55.5t-34.5 79.5q-2 8 -3 15.5t-2 16.5h-42l-30 -197h-195l116 749h194l-65 -424h33q13 48 39 87t62 66.5t81.5 43t97.5 15.5q51 0 98.5 -14.5t85 -44t60 -75.5t22.5 -109q0 -68 -22.5 -124.5t-62 -97t-94.5 -63t-121 -22.5z
M535 132q25 0 43.5 13t31 36t18.5 54.5t6 67.5q0 37 -17.5 63t-53.5 26q-24 0 -43 -12.5t-32 -35t-19.5 -53t-6.5 -66.5q0 -17 3.5 -34t12 -30t22.5 -21t35 -8z" />
    <glyph glyph-name="nine.old" horiz-adv-x="658" 
d="M350 632q140 0 213 -71t75 -201q0 -24 -2 -48t-7 -51l-6 -35q-27 -167 -120 -249.5t-235 -82.5q-53 0 -100.5 12.5t-83 39t-57 68.5t-21.5 102h200q3 -32 19.5 -47.5t51.5 -15.5q57 0 87 47t49 145q-11 -15 -27 -29.5t-37 -26t-48 -18.5t-60 -7q-42 0 -78.5 12
t-63.5 36.5t-42.5 61t-15.5 84.5q0 63 23.5 114t65 86.5t98 54.5t122.5 19zM425 398q1 35 -19.5 58.5t-61.5 23.5q-40 0 -67 -29.5t-27 -75.5q0 -34 20 -56t58 -22q42 0 69.5 28t27.5 73z" />
    <glyph glyph-name="eight.old" horiz-adv-x="664" 
d="M311 -13q-57 0 -110 12t-93 36.5t-64 62.5t-24 89q0 40 12 72t33.5 56t50.5 40.5t63 25.5q-38 20 -59 52.5t-21 76.5q0 54 23 94.5t62 67.5t89.5 40.5t105.5 13.5q45 0 92.5 -10t85.5 -32.5t62.5 -59.5t24.5 -91q0 -60 -35.5 -102.5t-90.5 -63.5q52 -21 77.5 -60
t25.5 -87q0 -59 -23 -102.5t-64.5 -72.5t-98.5 -43.5t-124 -14.5zM237 215q0 -35 21.5 -55.5t61.5 -20.5q36 0 63.5 23.5t27.5 69.5q0 35 -21.5 54.5t-59.5 19.5q-37 0 -65 -23t-28 -68zM293 498q0 -29 19 -48t54 -19q32 0 56 20.5t24 59.5q0 31 -19.5 50t-51.5 19
t-57 -21.5t-25 -60.5z" />
    <glyph glyph-name="seven.old" horiz-adv-x="580" 
d="M323 445h-276l28 174h553l-4 -23l-363 -688h-226z" />
    <glyph glyph-name="six.old" horiz-adv-x="658" 
d="M324 -12q-134 0 -211.5 68t-79.5 197q0 23 2.5 51.5t6.5 52.5l6 35q13 81 44 143t76 104.5t103.5 64.5t127.5 22q52 0 98.5 -11.5t81 -37.5t55 -67t20.5 -100h-199q-2 26 -16.5 41.5t-48.5 15.5q-50 0 -81.5 -47.5t-49.5 -144.5q10 15 26 29.5t37 26t48 18.5t60 7
q42 0 78.5 -13t63.5 -38t42.5 -62t15.5 -85q0 -66 -24 -116.5t-65.5 -84.5t-97 -51.5t-119.5 -17.5zM246 223q-1 -35 19.5 -59t61.5 -24t67.5 29t26.5 76q0 34 -20 56t-58 22q-42 0 -69 -28t-28 -72z" />
    <glyph glyph-name="uni0434.bgr" horiz-adv-x="643" 
d="M298 168q26 0 46.5 11t34.5 30t21 45t7 55q-1 38 -21 62t-56 24q-27 0 -46.5 -11.5t-32.5 -30.5t-19.5 -43.5t-6.5 -49.5q0 -41 18 -66.5t55 -25.5zM558 31q-9 -57 -29.5 -99.5t-56 -70.5t-86.5 -41.5t-121 -13.5q-73 0 -125.5 15.5t-86 42.5t-50 63t-18.5 77h195
q1 -11 6 -22t14.5 -20t24.5 -14.5t37 -5.5q52 0 73 25.5t26 63.5l14 82q-25 -39 -63.5 -60.5t-95.5 -21.5q-41 0 -76.5 13.5t-61.5 40.5t-41 67.5t-15 94.5q0 65 19 118.5t53 92t80.5 59.5t101.5 21q60 0 97 -23.5t54 -64.5l12 73h197z" />
    <glyph glyph-name="five.old" horiz-adv-x="620" 
d="M192 131q3 -37 22 -57.5t61 -20.5t67 29t25 74q0 38 -23 60t-68 22q-40 0 -66.5 -15t-44.5 -35h-130l86 431h482l-26 -162h-328l-29 -150q26 29 67 51t100 22q44 0 80 -14.5t61 -41t38.5 -63t13.5 -80.5q0 -67 -22 -120t-62.5 -89.5t-97.5 -56t-127 -19.5
q-56 0 -106 13.5t-88 42t-60.5 73t-22.5 106.5h198z" />
    <glyph glyph-name="uni0438.bgr" horiz-adv-x="627" 
d="M561 164q-8 -52 -11.5 -91.5t-1.5 -72.5h-192q-2 17 -2 39.5t2 44.5q-29 -42 -69.5 -69.5t-100.5 -27.5q-39 0 -71.5 12.5t-53.5 39t-29 68.5t1 101l50 315h197l-49 -308q-12 -83 52 -83q76 0 91 94l47 297h196z" />
    <glyph glyph-name="uni043F.locl" horiz-adv-x="627" 
d="M181 712h376l-17 -107h-376zM561 164q-8 -52 -11.5 -91.5t-1.5 -72.5h-192q-2 17 -2 39.5t2 44.5q-29 -42 -69.5 -69.5t-100.5 -27.5q-39 0 -71.5 12.5t-53.5 39t-29 68.5t1 101l50 315h197l-49 -308q-12 -83 52 -83q76 0 91 94l47 297h196z" />
    <glyph glyph-name="one.num" horiz-adv-x="297" 
d="M150 574l-89 -45l19 118l114 68h124l-61 -382h-145z" />
    <glyph glyph-name="five.sub" horiz-adv-x="378" 
d="M142 -134q-32 0 -62 6.5t-54 22t-39 40.5t-16 61h135q1 -11 8 -18.5t24 -7.5q14 0 25 10t11 30q0 32 -33 32q-14 0 -23 -6t-15 -17h-113l50 236h291l-16 -100h-192l-16 -76q13 18 37 33.5t66 15.5q47 0 77 -25.5t30 -78.5q-1 -81 -49 -119.5t-126 -38.5z" />
    <glyph glyph-name="uni044C.bgr" horiz-adv-x="541" 
d="M255 -10q-254 0 -215 253l45 280h194l-26 -168q1 0 7.5 0.5t14 0.5h15h11.5q108 0 162.5 -41.5t54.5 -121.5q0 -41 -15 -78t-47 -65t-82 -44t-119 -16zM264 115q25 0 41.5 21t16.5 51q0 22 -13.5 36.5t-39.5 14.5h-35l-8 -50q-11 -73 38 -73z" />
    <glyph glyph-name="three.old" horiz-adv-x="625" 
d="M288 -104q-66 0 -120 15t-92 45.5t-59 77t-20 110.5h191q2 -43 23.5 -68t69.5 -25q38 1 63.5 21.5t25.5 62.5q0 70 -85 70h-57l22 130h59q38 0 64.5 17.5t26.5 64.5q0 31 -18 46.5t-51 15.5q-35 0 -60 -21t-35 -66h-193q10 54 33.5 98t61.5 75.5t89.5 49t117.5 17.5
q54 0 100.5 -11.5t81 -34.5t54 -59.5t19.5 -85.5q0 -66 -36.5 -109t-98.5 -61q51 -17 81 -52.5t30 -96.5q0 -54 -23 -96.5t-62.5 -71t-92 -43.5t-110.5 -15z" />
    <glyph glyph-name="uni0439.bgr" horiz-adv-x="627" 
d="M356 581q-80 0 -122.5 43.5t-43.5 115.5h127q0 -10 2 -20.5t7 -19.5t13.5 -15t21.5 -6q24 0 34.5 20t12.5 41h128q-11 -75 -59.5 -117t-120.5 -42zM561 164q-8 -52 -11.5 -91.5t-1.5 -72.5h-192q-2 17 -2 39.5t2 44.5q-29 -42 -69.5 -69.5t-100.5 -27.5q-39 0 -71.5 12.5
t-53.5 39t-29 68.5t1 101l50 315h197l-49 -308q-12 -83 52 -83q76 0 91 94l47 297h196z" />
    <glyph glyph-name="uni0414.bgr" horiz-adv-x="761" 
d="M414 535l-157 -359h203zM135 -130h-195l48 306h61l258 539h292l87 -539h62l-49 -306h-196l14 130h-354z" />
    <glyph glyph-name="uni0416.bgr" horiz-adv-x="1026" 
d="M406 309l-222 -309h-238l298 400l-150 315h215l117 -281l44 281h225l-44 -281l211 281h236l-282 -344l167 -371h-230l-123 306l-48 -306h-225z" />
    <glyph glyph-name="uni041A.bgr" horiz-adv-x="746" 
d="M298 299l-47 -299h-228l113 715h228l-43 -271l245 271h242l-315 -342l203 -373h-244z" />
    <glyph glyph-name="uni0436.bgr" horiz-adv-x="840" 
d="M321 240l-152 -240h-209l203 296l-97 227h191l75 -210l69 436h194l-69 -439l142 213h205l-186 -242l108 -281h-205l-75 237l-37 -237h-195z" />
    <glyph glyph-name="two.old" horiz-adv-x="594" 
d="M-31 29l255 215q19 16 45 37.5t49 45.5t39.5 48.5t16.5 46.5q0 51 -59 51q-32 0 -55 -23.5t-34 -71.5h-190q18 123 97.5 188.5t200.5 65.5q120 0 186 -50t66 -139q0 -36 -12.5 -67t-34.5 -59t-53 -56t-70 -58l-67 -52h200l-23 -151h-562z" />
    <glyph glyph-name="one.old" horiz-adv-x="444" 
d="M182 410l-139 -76l27 177l175 108h180l-98 -619h-210z" />
    <glyph glyph-name="uni0432.bgr" horiz-adv-x="564" 
d="M258 -13q-65 0 -113 21t-77 58t-39 88.5t1 112.5l43 253q20 121 91 181.5t187 60.5q56 0 100.5 -15.5t74 -43t43 -65t8.5 -82.5q-7 -66 -48.5 -111.5t-106.5 -56.5q60 -11 90 -58.5t22 -112.5q-5 -52 -26.5 -94.5t-57 -72.5t-84 -46.5t-108.5 -16.5zM343 631
q-29 0 -44.5 -23t-23.5 -61l-20 -95h42q40 0 61.5 22t29.5 72q8 45 -4 65t-41 20zM263 122q18 0 31 8.5t22 22.5t14.5 32.5t8.5 39.5q12 100 -68 100h-38l-13 -87q-9 -57 0 -86.5t43 -29.5z" />
    <glyph glyph-name="zero.old" horiz-adv-x="680" 
d="M245 308q-3 -17 -4 -32t-1 -28q1 -48 21.5 -74.5t70.5 -26.5q49 0 75.5 35t37.5 107l4 23q2 17 3.5 32t1.5 29q0 46 -20.5 73t-70.5 27q-48 0 -75.5 -35t-38.5 -107zM327 -13q-63 0 -117.5 17t-94.5 51t-63 84.5t-23 116.5q0 15 1.5 31.5t3.5 33.5l4 23q11 72 40 126
t71.5 90t98 54t119.5 18q61 0 115 -17.5t94.5 -51t64 -83.5t23.5 -116q0 -16 -1 -32t-4 -33l-4 -24q-24 -149 -109.5 -218.5t-218.5 -69.5z" />
    <glyph glyph-name="uni0424.bgr" horiz-adv-x="931" 
d="M311 -10l9 61q-60 7 -111.5 26.5t-89.5 54t-60 83.5t-22 114v9q0 75 26 136t75.5 105.5t120 70t160.5 29.5l7 46h222l-8 -46q60 -7 111.5 -27t90 -55t60 -85.5t21.5 -116.5v-9q0 -74 -26 -134t-75 -103.5t-120 -68.5t-160 -29l-10 -61h-221zM255 342q0 -121 90 -134
l49 318q-35 -3 -61 -18t-43.5 -39t-26 -55t-8.5 -66v-6zM705 382q0 62 -22 97.5t-67 43.5l-50 -319q71 8 105 55.5t34 116.5v6z" />
    <glyph glyph-name="yen.old" horiz-adv-x="639" 
d="M75 359h129l-127 335h232l54 -210l122 210h215l-226 -335h132l-10 -71h-157l-7 -46h155l-11 -71h-155l-27 -171h-221l27 171h-155l10 71h156l7 46h-155z" />
    <glyph glyph-name="sterling.old" horiz-adv-x="648" 
d="M53 397h44q-2 14 -3 28.5t-1 30.5q0 58 21.5 103.5t59.5 77.5t90.5 49t114.5 17q58 0 107.5 -12t85 -40.5t55.5 -75t19 -115.5h-203q1 41 -13 60t-49 19q-23 0 -38 -9t-24 -25t-12.5 -36.5t-3.5 -42.5v-29h174l-20 -120h-152q0 -24 -5.5 -49t-17.5 -50q25 -6 46.5 -11.5
t38.5 -5.5q52 0 61 53h196q-6 -48 -23 -89t-46 -70.5t-69.5 -46.5t-92.5 -17q-37 0 -68 7.5t-56.5 17t-47 17t-38.5 7.5q-20 0 -32 -11.5t-15 -28.5h-160q9 61 39 110.5t81 71.5q18 40 18 88v7h-80z" />
    <glyph glyph-name="Euro.old" horiz-adv-x="706" 
d="M49 438h56q31 125 114.5 195t212.5 70q63 0 114 -15.5t87 -47.5t55 -79.5t19 -113.5h-204q0 40 -16 66t-61 26q-43 0 -68.5 -27t-39.5 -74h136l-23 -71h-127l-7 -45h120l-23 -72h-103q2 -40 20.5 -67t66.5 -27q42 0 67.5 24.5t39.5 79.5h201q-26 -138 -106.5 -205.5
t-212.5 -67.5q-68 0 -120.5 18.5t-89 52.5t-56 83t-20.5 109h-62l11 72h55l7 45h-55z" />
    <glyph glyph-name="uni0442.bgr" horiz-adv-x="931" 
d="M60 349q9 57 13.5 97.5t6.5 76.5h192q0 -20 -1 -43t-4 -46q13 21 31 39.5t40.5 33t49 23t56.5 8.5q51 0 84.5 -24.5t47.5 -73.5q37 51 81.5 74.5t96.5 23.5q37 0 67.5 -12.5t50.5 -38t27.5 -64.5t-1.5 -92l-51 -331h-197l48 301q6 40 -6.5 59t-41.5 19q-66 0 -80 -82
l-47 -297h-194l47 302q7 39 -6 58t-42 19q-33 0 -53 -21.5t-26 -60.5l-47 -297h-197z" />
    <glyph glyph-name="six.sub" horiz-adv-x="404" 
d="M169 -134q-39 0 -72.5 9t-57.5 28t-37.5 48.5t-13.5 70.5q0 11 1 23.5t3 25.5l2 12q14 83 69.5 130.5t136.5 47.5q32 0 60.5 -6.5t50 -20.5t34 -38t13.5 -58h-132q-2 10 -8 16t-21 6q-24 0 -38 -22t-22 -57q14 17 35.5 28t55.5 11q49 0 82.5 -26t33.5 -78
q0 -38 -14 -66.5t-37.5 -47t-55.5 -27.5t-68 -9zM132 -4q0 -14 8 -24.5t27 -10.5q17 0 28 11.5t11 32.5q0 15 -8.5 25t-25.5 10t-28.5 -11.5t-11.5 -32.5z" />
    <glyph glyph-name="seven.sub" horiz-adv-x="357" 
d="M143 142h-144l18 113h329l-3 -16l-197 -366h-147z" />
    <glyph glyph-name="eight.sub" horiz-adv-x="393" 
d="M155 -134q-32 0 -64.5 5t-58 18t-41.5 33.5t-16 52.5q0 45 23 68t61 35q-20 11 -32.5 27.5t-12.5 39.5q0 31 14.5 53t37.5 36t52.5 20.5t59.5 6.5q31 0 60 -6t51.5 -18.5t36 -32.5t13.5 -48q0 -70 -64 -89q29 -11 43 -31.5t14 -45.5q0 -35 -15.5 -59t-41 -38.5t-57 -20.5
t-63.5 -6zM119 -7q0 -13 9 -22.5t26 -9.5t28.5 9.5t11.5 28.5q0 14 -9 23.5t-26 9.5q-16 0 -28 -10t-12 -29zM141 134q0 -14 8.5 -22t23.5 -8t25.5 9t10.5 26q0 14 -9.5 22t-23.5 8q-13 0 -24 -9t-11 -26z" />
    <glyph glyph-name="nine.sub" horiz-adv-x="404" 
d="M174 261q78 0 127.5 -37t49.5 -118q0 -12 -1 -25t-3 -26l-2 -12q-13 -86 -63 -131.5t-142 -45.5q-32 0 -60.5 6.5t-50 20.5t-34.5 37.5t-15 58.5h132q2 -11 8 -16.5t23 -5.5q25 0 39 20.5t20 58.5q-13 -17 -35 -28t-55 -11q-49 0 -83 25.5t-34 79.5q0 37 14.5 65t39 46.5
t57 28t68.5 9.5zM207 131q0 14 -7.5 24.5t-26.5 10.5q-17 0 -28 -12t-11 -33q0 -14 8 -24t25 -10t28.5 11t11.5 33z" />
    <glyph glyph-name="hungarumlaut.uc" horiz-adv-x="400" 
d="M164 906h164l-91 -149h-130zM365 906h164l-90 -149h-131z" />
    <glyph glyph-name="dollar.old" horiz-adv-x="632" 
d="M235 -6q-44 6 -84.5 22t-71 43t-49.5 66.5t-20 94.5h194q0 -61 55 -80l20 128q-112 24 -163.5 71t-51.5 131q0 55 22.5 98t61 73t90 45.5t110.5 16.5l14 86h79l-14 -91q43 -6 81 -19.5t66.5 -38.5t46 -62.5t19.5 -89.5h-191q-1 26 -13.5 41t-32.5 23l-19 -124
q51 -11 92 -27t70 -39.5t44.5 -56t15.5 -77.5q0 -59 -22 -104t-61 -75t-92 -45t-116 -16l-19 -119h-80zM411 197q0 19 -12 31t-43 22l-19 -118q74 6 74 65zM253 500q0 -20 12 -32.5t42 -21.5l18 113q-28 -3 -50 -16.5t-22 -42.5z" />
    <glyph glyph-name="tilde.uc" horiz-adv-x="400" 
d="M350 755q-22 0 -39 5t-31.5 11t-26 11t-23.5 5t-21.5 -8t-11.5 -22h-110q14 84 53 122t87 38q21 0 38 -5t31.5 -11t27.5 -11t26 -5q25 0 34 30h109q-8 -42 -22.5 -72t-33.5 -49.5t-41.5 -29t-45.5 -9.5z" />
    <glyph glyph-name="ring.uc" horiz-adv-x="400" 
d="M294 810q20 0 32.5 14t12.5 36t-12.5 36t-32.5 14t-32.5 -13.5t-12.5 -37.5q0 -22 12 -35.5t33 -13.5zM294 742q-25 0 -47.5 9.5t-39 25t-26 37t-9.5 45.5q0 25 10 46.5t26.5 37.5t38.5 25.5t47 9.5t47.5 -9.5t39 -25.5t26 -37.5t9.5 -45.5t-10 -45.5t-26.5 -37.5
t-38.5 -25.5t-47 -9.5z" />
    <glyph glyph-name="dotaccent.uc" horiz-adv-x="400" 
d="M292 752q-45 0 -74 26.5t-29 67.5q0 42 29.5 69t73.5 27t73.5 -26.5t29.5 -68.5t-29.5 -68.5t-73.5 -26.5z" />
    <glyph glyph-name="breve.uc" horiz-adv-x="400" 
d="M292 749q-82 0 -124 42.5t-43 114.5h124q2 -20 12.5 -31t32.5 -11q41 0 49 42h125q-11 -76 -58 -116.5t-118 -40.5z" />
    <glyph glyph-name="caron.uc" horiz-adv-x="400" 
d="M359 757h-164l-92 149h137l48 -47l59 47h145z" />
    <glyph glyph-name="circumflex.uc" horiz-adv-x="400" 
d="M215 906h164l93 -149h-137l-48 47l-60 -47h-144z" />
    <glyph glyph-name="acute.uc" horiz-adv-x="400" 
d="M257 906h201l-115 -149h-150z" />
    <glyph glyph-name="uni041B.bgr" horiz-adv-x="754" 
d="M410 532l-229 -532h-217l339 715h293l111 -715h-236z" />
    <glyph glyph-name="macron.uc" horiz-adv-x="400" 
d="M131 884h332l-18 -115h-332z" />
    <glyph glyph-name="dieresis.uc" horiz-adv-x="400" 
d="M177 752q-19 0 -35.5 7t-29 19t-19.5 28.5t-7 34.5t7 34.5t19.5 28.5t29.5 19t36 7q38 0 64.5 -25.5t26.5 -63.5q0 -18 -7 -34.5t-19.5 -28.5t-29.5 -19t-36 -7zM404 752q-19 0 -35.5 7t-29 19t-19.5 28.5t-7 34.5t7 34.5t19.5 28.5t29 19t35.5 7q39 0 65.5 -25.5
t26.5 -63.5q0 -18 -7 -34.5t-19.5 -28.5t-29.5 -19t-36 -7z" />
    <glyph glyph-name="grave.uc" horiz-adv-x="400" 
d="M132 906h199l32 -149h-144z" />
    <glyph glyph-name="at.uc" horiz-adv-x="927" 
d="M475 -85q-101 0 -180.5 31.5t-135 86.5t-85 128.5t-29.5 157.5q0 101 38 183t102 139.5t146.5 88.5t172.5 31q87 0 161.5 -25.5t129 -72t85.5 -112.5t31 -147q0 -76 -19.5 -129.5t-52 -87t-73.5 -48.5t-84 -15q-125 0 -145 80q-20 -38 -55.5 -59.5t-85.5 -21.5
q-69 0 -109.5 46.5t-42.5 125.5q0 56 16 102t43.5 78.5t65 50t80.5 17.5q46 0 70 -16.5t34 -40.5l9 49h159l-44 -274q-5 -30 3.5 -47t34.5 -17q20 0 40.5 11.5t37 36.5t26.5 65t10 97q0 63 -23 115t-66 89.5t-103 58.5t-135 21q-77 0 -144.5 -26t-117.5 -74.5t-79 -118
t-29 -156.5q0 -70 21.5 -130t65 -104.5t108.5 -70t152 -25.5q44 0 83.5 7.5t72.5 19.5t59.5 28t44.5 34h94q-26 -36 -63.5 -65.5t-83.5 -50.5t-99.5 -32.5t-111.5 -11.5zM458 249q31 0 52.5 32t21.5 80q0 26 -13 42t-41 16q-29 0 -50.5 -29.5t-20.5 -82.5q0 -26 12.5 -42
t38.5 -16z" />
    <glyph glyph-name="bar.uc" horiz-adv-x="270" 
d="M80 776h136v-860h-135z" />
    <glyph glyph-name="backslash.uc" horiz-adv-x="447" 
d="M70 776h149l182 -860h-149z" />
    <glyph glyph-name="slash.uc" horiz-adv-x="440" 
d="M361 776h159l-419 -860h-157z" />
    <glyph glyph-name="braceright.uc" horiz-adv-x="425" 
d="M119 784q153 -1 215 -63t23 -180l-18 -55q-14 -37 4.5 -58t73.5 -24l-21 -136q-58 1 -80 -16.5t-21 -55.5v-61q1 -66 -17.5 -110.5t-57.5 -71t-99 -38t-142 -11.5l23 143q28 1 47 6.5t30.5 16.5t16.5 28t5 41l2 72q2 57 34 89.5t89 43.5q-57 14 -76.5 51.5t-2.5 92.5
l20 65q15 47 -1 66t-70 23l23 142v0z" />
    <glyph glyph-name="braceleft.uc" horiz-adv-x="425" 
d="M330 -96q-153 2 -215 64t-23 180l18 55q14 37 -4.5 58t-73.5 24l21 136q58 -1 80 16.5t21 55.5l-1 61q0 66 18.5 110.5t57.5 71t98.5 37.5t141.5 11l-22 -142q-29 -2 -47.5 -7t-30 -16t-16.5 -28t-5 -41l-3 -72q-2 -57 -33.5 -89.5t-88.5 -43.5q57 -14 76.5 -51.5
t2.5 -93.5l-20 -65q-15 -47 1 -65.5t70 -22.5l-23 -143v0z" />
    <glyph glyph-name="bracketright.uc" horiz-adv-x="419" 
d="M3 48h121l94 594h-121l23 142h319l-140 -879h-319z" />
    <glyph glyph-name="bracketleft.uc" horiz-adv-x="419" 
d="M143 784h321l-23 -142h-122l-94 -594h122l-22 -143h-321z" />
    <glyph glyph-name="space_uni0326" horiz-adv-x="400" 
d="M34 -206l47 175l171 -12l-110 -190z" />
    <glyph glyph-name="parenright.uc" horiz-adv-x="362" 
d="M239 785q19 -29 38.5 -63.5t35 -77t25 -93t9.5 -110.5q0 -161 -67 -296t-184 -243h-156q51 67 92 131t69.5 130.5t44 138.5t15.5 154q0 103 -21.5 186t-49.5 143h149v0z" />
    <glyph glyph-name="parenleft.uc" horiz-adv-x="362" 
d="M143 -98q-20 28 -39 63t-34.5 77.5t-25 93t-9.5 110.5q0 161 67 296t184 243h156q-51 -67 -92 -131t-69.5 -130.5t-44 -138.5t-15.5 -154q0 -103 21.5 -186t49.5 -143h-149v0z" />
    <glyph glyph-name="guillemotright.uc" horiz-adv-x="477" 
d="M459 296l-143 -191h-125l142 193l-90 199h118zM277 298l-143 -193h-125l142 197l-86 195h118z" />
    <glyph glyph-name="guillemotleft.uc" horiz-adv-x="477" 
d="M28 306l143 191h125l-142 -193l90 -199h-118zM210 304l143 193h125l-142 -197l86 -195h-118z" />
    <glyph glyph-name="guilsinglright.uc" horiz-adv-x="304" 
d="M284 295l-151 -190h-133l149 191l-84 201h124z" />
    <glyph glyph-name="uni0442.locl" horiz-adv-x="919" 
d="M191 712h642l-17 -107h-642zM853 164q-8 -52 -11.5 -91.5t-1.5 -72.5h-193q-2 17 -1.5 39.5t2.5 44.5q-26 -41 -71.5 -70t-105.5 -29q-51 0 -84.5 24.5t-47.5 73.5q-37 -51 -81.5 -74.5t-96.5 -23.5q-38 0 -68 12.5t-50 38t-27.5 64.5t1.5 92l51 331h197l-48 -301
q-6 -40 6.5 -59t41.5 -19q32 0 53 21t27 61l47 297h194l-47 -302q-7 -39 6 -58t42 -19q34 0 53.5 21.5t25.5 60.5l47 297h197z" />
    <glyph glyph-name="guilsinglleft.uc" horiz-adv-x="304" 
d="M28 307l152 190h132l-149 -191l84 -201h-123z" />
    <glyph glyph-name="emdash.uc" horiz-adv-x="958" 
d="M65 385h866l-18 -111h-866z" />
    <glyph glyph-name="idotaccent" horiz-adv-x="303" 
d="M211 563q-46 0 -75 28t-29 70q0 43 29.5 70.5t75.5 27.5q45 0 74.5 -27.5t29.5 -70.5q0 -21 -8 -39t-22.5 -31t-33.5 -20.5t-41 -7.5zM93 523h197l-83 -523h-196z" />
    <glyph glyph-name="endash.uc" horiz-adv-x="543" 
d="M65 385h451l-18 -111h-451z" />
    <glyph glyph-name="plus.sub" horiz-adv-x="361" 
d="M90 22h-95l16 99h95l16 99h102l-16 -99h95l-16 -99h-95l-15 -98h-102z" />
    <glyph glyph-name="exclamdown.uc" horiz-adv-x="343" 
d="M240.008 0.0439453h-220.986l104.994 473.971h162.989zM227.009 726.999q47.9971 0 78.4951 -29.998t30.498 -74.9951q0 -21.999 -8.49902 -40.998q-8.5 -18.998 -23.499 -33.498q-14.999 -14.499 -34.998 -22.998q-19.998 -8.5 -43.9971 -8.5
q-47.9971 0 -79.4951 29.999q-31.498 29.998 -31.498 74.9951q0 21.998 9 41.4971q8.99902 19.499 23.998 33.498t35.498 22.499q20.499 8.49902 44.4971 8.49902z" />
    </font>
</defs>
</svg>
